<svg version="1.1" id="Layer_1" xmlns="http://www.w3.org/2000/svg" xmlns:xlink="http://www.w3.org/1999/xlink" x="0px" y="0px"
	 width="100%" viewBox="0 0 816 400" enable-background="new 0 0 816 400" xml:space="preserve">
<path fill="#000000" opacity="1.000000" stroke="none" 
	d="
M324.876648,42.801212 
	C343.020355,45.304863 359.084900,51.603401 372.980377,63.051849 
	C388.781586,76.070427 399.216461,92.809982 405.210388,112.066391 
	C418.529785,154.857010 418.649841,197.787781 403.136017,240.033005 
	C392.648010,268.592651 373.916382,290.180298 344.059296,299.616272 
	C296.728607,314.574585 245.031494,299.414856 221.621216,246.230270 
	C208.965027,217.477386 206.126205,187.253464 208.347961,156.255783 
	C209.740585,136.825897 213.593414,117.983170 221.622421,100.209770 
	C235.937134,68.522102 259.737427,48.630665 294.567535,43.084167 
	C304.467377,41.507675 314.461243,41.361710 324.876648,42.801212 
M313.271210,253.775635 
	C319.485535,253.653625 325.005096,251.528397 329.943787,247.857681 
	C337.416840,242.303268 342.338593,234.745758 345.484192,226.212860 
	C357.216614,194.386688 357.404297,162.058853 348.807037,129.512177 
	C345.863678,118.369576 340.831970,108.308144 331.958252,100.577126 
	C319.539978,89.758026 301.101196,90.220825 289.114502,101.450005 
	C282.607452,107.545860 278.434326,115.061935 275.480804,123.287926 
	C267.431824,145.705566 266.537567,168.870300 268.774963,192.291916 
	C270.194550,207.152405 273.308044,221.598343 280.896301,234.691055 
	C287.877289,246.735947 297.564697,254.526520 313.271210,253.775635 
z"/>
<path fill="#000000" opacity="1.000000" stroke="none" 
	d="
M545.310120,81.999779 
	C545.308411,152.287201 545.307251,222.074615 545.299927,291.862030 
	C545.299194,299.256012 545.282349,299.254822 537.822144,299.254547 
	C522.665466,299.253937 507.508759,299.260315 492.352051,299.252319 
	C486.166870,299.249054 485.983337,299.069977 485.981873,292.729431 
	C485.967560,230.437103 485.957764,168.144775 485.956421,105.852448 
	C485.956238,97.951630 485.949127,97.924835 477.811829,97.959381 
	C470.316986,97.991203 462.821228,97.950172 455.327637,98.062141 
	C451.966949,98.112343 450.578796,96.788116 450.611023,93.317650 
	C450.737732,79.661110 450.740540,66.002289 450.634369,52.345516 
	C450.607544,48.894840 451.921265,47.658890 455.344452,47.667809 
	C483.658936,47.741592 511.974030,47.760902 540.288147,47.632427 
	C544.364990,47.613930 545.402893,49.308861 545.342468,53.019588 
	C545.188049,62.510651 545.302185,72.006081 545.310120,81.999779 
z"/>
</svg>