<svg version="1.1" id="Layer_1" xmlns="http://www.w3.org/2000/svg" xmlns:xlink="http://www.w3.org/1999/xlink" x="0px" y="0px"
	 width="100%" viewBox="0 0 300 231" enable-background="new 0 0 300 231" xml:space="preserve">
<path fill="#BFBFBF" opacity="1.000000" stroke="none" 
	d="
M0.999999,204.000000 
	C1.000000,145.979111 1.000000,87.958206 1.265267,29.799751 
	C1.922661,29.357119 2.507938,29.134672 2.678907,28.734999 
	C8.153516,15.936984 17.248835,7.068421 30.613623,2.737611 
	C30.900030,2.644802 30.878096,1.600457 31.000000,1.000000 
	C110.687561,1.000000 190.375122,1.000000 270.197876,1.281053 
	C270.649170,1.945083 270.892914,2.547918 271.291840,2.679146 
	C284.027039,6.868514 293.031586,15.179438 298.741364,27.235813 
	C299.106750,28.007380 300.229553,28.420261 301.000000,29.000000 
	C301.000000,87.020897 301.000000,145.041794 300.734741,203.200226 
	C300.077362,203.642853 299.492065,203.865311 299.321075,204.264984 
	C293.846466,217.062973 284.751221,225.931625 271.386383,230.262375 
	C271.100006,230.355164 271.121918,231.399536 271.000000,232.000000 
	C191.312439,232.000000 111.624878,232.000000 31.802105,231.718964 
	C31.350824,231.054947 31.107082,230.452087 30.708191,230.320877 
	C17.972942,226.131516 8.968473,217.820511 3.258633,205.764160 
	C2.893226,204.992615 1.770450,204.579742 0.999999,204.000000 
M77.578629,62.982655 
	C67.084969,69.687149 61.465122,79.572487 59.162086,91.526413 
	C55.599953,110.015678 55.823925,128.603439 58.394936,147.160706 
	C59.689171,156.502350 62.576225,165.392349 69.119980,172.573593 
	C79.836845,184.334503 93.379257,187.355316 108.343658,184.056625 
	C123.971275,180.611725 133.061066,169.843140 136.622192,154.840027 
	C141.886444,132.661530 141.996201,110.170525 136.681549,88.009254 
	C130.183990,60.915367 102.857948,49.328587 77.578629,62.982655 
M204.500000,181.770645 
	C212.496124,181.770691 220.507584,181.470276 228.482925,181.877441 
	C233.717453,182.144669 235.330582,180.175842 234.841614,175.251541 
	C234.514008,171.952332 234.570114,168.577835 234.831741,165.266815 
	C235.152466,161.207642 233.760849,159.706070 229.512665,159.780579 
	C216.189941,160.014206 202.860504,159.879105 189.533737,159.849182 
	C187.817566,159.845322 186.101898,159.619476 183.594437,159.439728 
	C187.685608,152.137558 193.576859,148.043594 199.092926,143.571854 
	C207.618271,136.660583 216.727524,130.326721 224.470154,122.623322 
	C239.431015,107.738319 238.554749,82.287819 223.431900,67.764908 
	C216.457153,61.066872 207.781128,58.259254 198.509140,57.521378 
	C171.451263,55.368088 153.390869,69.147758 153.117767,98.341164 
	C153.088028,101.520126 154.287308,102.908012 157.518280,102.811172 
	C161.845505,102.681503 166.207321,102.478630 170.503738,102.866760 
	C175.610641,103.328094 177.454132,101.398544 177.019333,96.362007 
	C176.825348,94.115150 177.438950,91.723206 178.047729,89.495972 
	C180.230331,81.511002 186.796768,76.708290 194.677338,77.144783 
	C203.037430,77.607841 208.676743,82.990456 210.105347,91.499977 
	C212.073273,103.222069 207.948593,112.398109 198.723587,119.478058 
	C190.668625,125.660034 182.557434,131.770569 174.401031,137.818176 
	C161.602448,147.307785 153.431656,159.431015 152.070770,175.697510 
	C151.709442,180.016571 152.501678,181.988388 157.524826,181.884888 
	C172.844177,181.569351 188.174164,181.770081 204.500000,181.770645 
z"/>
<path fill="#000000" opacity="1.000000" stroke="none" 
	d="
M30.531342,1.000000 
	C30.878096,1.600457 30.900030,2.644802 30.613623,2.737611 
	C17.248835,7.068421 8.153516,15.936984 2.678907,28.734999 
	C2.507938,29.134672 1.922661,29.357119 1.265267,29.331093 
	C1.000000,19.737650 1.000000,10.475300 1.000000,1.000000 
	C10.686523,1.000000 20.374605,1.000000 30.531342,1.000000 
z"/>
<path fill="#000000" opacity="1.000000" stroke="none" 
	d="
M301.000000,28.531342 
	C300.229553,28.420261 299.106750,28.007380 298.741364,27.235813 
	C293.031586,15.179438 284.027039,6.868514 271.291840,2.679146 
	C270.892914,2.547918 270.649170,1.945083 270.666565,1.281053 
	C280.923950,1.000000 290.847870,1.000000 301.000000,1.000000 
	C301.000000,10.019615 301.000000,19.041149 301.000000,28.531342 
z"/>
<path fill="#000000" opacity="1.000000" stroke="none" 
	d="
M0.999999,204.468658 
	C1.770450,204.579742 2.893226,204.992615 3.258633,205.764160 
	C8.968473,217.820511 17.972942,226.131516 30.708191,230.320877 
	C31.107082,230.452087 31.350824,231.054947 31.333447,231.718964 
	C21.076056,232.000000 11.152110,232.000000 1.000000,232.000000 
	C1.000000,222.980392 1.000000,213.958847 0.999999,204.468658 
z"/>
<path fill="#000000" opacity="1.000000" stroke="none" 
	d="
M271.468658,232.000000 
	C271.121918,231.399536 271.100006,230.355164 271.386383,230.262375 
	C284.751221,225.931625 293.846466,217.062973 299.321075,204.264984 
	C299.492065,203.865311 300.077362,203.642853 300.734741,203.668884 
	C301.000000,213.262344 301.000000,222.524704 301.000000,232.000000 
	C291.313477,232.000000 281.625397,232.000000 271.468658,232.000000 
z"/>
<path fill="#FEFEFE" opacity="1.000000" stroke="none" 
	d="
M77.885529,62.784771 
	C102.857948,49.328587 130.183990,60.915367 136.681549,88.009254 
	C141.996201,110.170525 141.886444,132.661530 136.622192,154.840027 
	C133.061066,169.843140 123.971275,180.611725 108.343658,184.056625 
	C93.379257,187.355316 79.836845,184.334503 69.119980,172.573593 
	C62.576225,165.392349 59.689171,156.502350 58.394936,147.160706 
	C55.823925,128.603439 55.599953,110.015678 59.162086,91.526413 
	C61.465122,79.572487 67.084969,69.687149 77.885529,62.784771 
M115.171822,105.262718 
	C114.411697,99.669228 114.098259,93.967781 112.779076,88.509407 
	C111.107399,81.592522 105.135963,77.144653 98.702133,77.035072 
	C92.219139,76.924660 86.905220,80.739845 84.336700,87.462906 
	C83.745758,89.009689 83.122650,90.649406 83.046715,92.271278 
	C82.362610,106.883186 81.503929,121.497505 81.346413,136.118118 
	C81.286362,141.692261 82.470573,147.399551 83.880432,152.840775 
	C85.831367,160.370209 90.823578,164.036484 97.841370,164.159882 
	C106.000526,164.303345 111.879486,159.612213 113.540077,150.442017 
	C116.189873,135.809174 116.854263,121.020081 115.171822,105.262718 
z"/>
<path fill="#FEFEFE" opacity="1.000000" stroke="none" 
	d="
M204.000000,181.770264 
	C188.174164,181.770081 172.844177,181.569351 157.524826,181.884888 
	C152.501678,181.988388 151.709442,180.016571 152.070770,175.697510 
	C153.431656,159.431015 161.602448,147.307785 174.401031,137.818176 
	C182.557434,131.770569 190.668625,125.660034 198.723587,119.478058 
	C207.948593,112.398109 212.073273,103.222069 210.105347,91.499977 
	C208.676743,82.990456 203.037430,77.607841 194.677338,77.144783 
	C186.796768,76.708290 180.230331,81.511002 178.047729,89.495972 
	C177.438950,91.723206 176.825348,94.115150 177.019333,96.362007 
	C177.454132,101.398544 175.610641,103.328094 170.503738,102.866760 
	C166.207321,102.478630 161.845505,102.681503 157.518280,102.811172 
	C154.287308,102.908012 153.088028,101.520126 153.117767,98.341164 
	C153.390869,69.147758 171.451263,55.368088 198.509140,57.521378 
	C207.781128,58.259254 216.457153,61.066872 223.431900,67.764908 
	C238.554749,82.287819 239.431015,107.738319 224.470154,122.623322 
	C216.727524,130.326721 207.618271,136.660583 199.092926,143.571854 
	C193.576859,148.043594 187.685608,152.137558 183.594437,159.439728 
	C186.101898,159.619476 187.817566,159.845322 189.533737,159.849182 
	C202.860504,159.879105 216.189941,160.014206 229.512665,159.780579 
	C233.760849,159.706070 235.152466,161.207642 234.831741,165.266815 
	C234.570114,168.577835 234.514008,171.952332 234.841614,175.251541 
	C235.330582,180.175842 233.717453,182.144669 228.482925,181.877441 
	C220.507584,181.470276 212.496124,181.770691 204.000000,181.770264 
z"/>
<path fill="#C0C0C0" opacity="1.000000" stroke="none" 
	d="
M115.206726,105.723152 
	C116.854263,121.020081 116.189873,135.809174 113.540077,150.442017 
	C111.879486,159.612213 106.000526,164.303345 97.841370,164.159882 
	C90.823578,164.036484 85.831367,160.370209 83.880432,152.840775 
	C82.470573,147.399551 81.286362,141.692261 81.346413,136.118118 
	C81.503929,121.497505 82.362610,106.883186 83.046715,92.271278 
	C83.122650,90.649406 83.745758,89.009689 84.336700,87.462906 
	C86.905220,80.739845 92.219139,76.924660 98.702133,77.035072 
	C105.135963,77.144653 111.107399,81.592522 112.779076,88.509407 
	C114.098259,93.967781 114.411697,99.669228 115.206726,105.723152 
z"/>
</svg>