<svg version="1.1" id="Layer_1" xmlns="http://www.w3.org/2000/svg" xmlns:xlink="http://www.w3.org/1999/xlink" x="0px" y="0px"
	 width="100%" viewBox="0 0 2362 2362" enable-background="new 0 0 2362 2362" xml:space="preserve">
<path fill="#3853A4" opacity="1.000000" stroke="none" 
	d="
M1324.000000,2364.000000 
	C882.666687,2364.000000 442.333344,2364.000000 2.000000,2364.000000 
	C2.000000,1576.666626 2.000000,789.333313 2.000000,2.000000 
	C789.333313,2.000000 1576.666626,2.000000 2364.000000,2.000000 
	C2364.000000,789.333313 2364.000000,1576.666626 2364.000000,2364.000000 
	C2017.666626,2364.000000 1671.333374,2364.000000 1324.000000,2364.000000 
M810.278076,2178.671143 
	C914.892151,2218.230225 1023.174133,2240.291260 1134.801392,2245.415283 
	C1200.495483,2248.430664 1266.020386,2245.590332 1331.260864,2236.487793 
	C1406.432739,2225.999023 1479.767822,2208.161377 1550.861328,2181.712402 
	C1743.767578,2109.945801 1903.665649,1992.794067 2028.682617,1829.298340 
	C2169.802246,1644.744141 2241.850342,1435.422241 2247.442383,1203.335327 
	C2249.522217,1117.024414 2240.797852,1031.561401 2221.211182,947.453857 
	C2169.768799,726.554260 2059.995605,539.560913 1890.238647,389.232727 
	C1695.888428,217.125671 1467.666870,128.544830 1208.222168,120.988495 
	C1125.630249,118.583000 1043.844482,126.612000 962.998352,143.869705 
	C817.270447,174.977341 683.905090,234.071243 563.133728,321.280853 
	C440.338104,409.952240 340.697601,519.843933 264.691711,650.858215 
	C176.752167,802.442932 129.782166,966.131348 122.457344,1141.124756 
	C120.295044,1192.782959 122.086021,1244.388184 127.550438,1295.878540 
	C134.601852,1362.323242 147.489624,1427.559814 166.923615,1491.452026 
	C263.170258,1807.877563 500.229797,2061.375000 810.278076,2178.671143 
z"/>
<path fill="#FEFFFF" opacity="1.000000" stroke="none" 
	d="
M809.550781,2178.395996 
	C500.229797,2061.375000 263.170258,1807.877563 166.923615,1491.452026 
	C147.489624,1427.559814 134.601852,1362.323242 127.550438,1295.878540 
	C122.086021,1244.388184 120.295044,1192.782959 122.457344,1141.124756 
	C129.782166,966.131348 176.752167,802.442932 264.691711,650.858215 
	C340.697601,519.843933 440.338104,409.952240 563.133728,321.280853 
	C683.905090,234.071243 817.270447,174.977341 962.998352,143.869705 
	C1043.844482,126.612000 1125.630249,118.583000 1208.222168,120.988495 
	C1467.666870,128.544830 1695.888428,217.125671 1890.238647,389.232727 
	C2059.995605,539.560913 2169.768799,726.554260 2221.211182,947.453857 
	C2240.797852,1031.561401 2249.522217,1117.024414 2247.442383,1203.335327 
	C2241.850342,1435.422241 2169.802246,1644.744141 2028.682617,1829.298340 
	C1903.665649,1992.794067 1743.767578,2109.945801 1550.861328,2181.712402 
	C1479.767822,2208.161377 1406.432739,2225.999023 1331.260864,2236.487793 
	C1266.020386,2245.590332 1200.495483,2248.430664 1134.801392,2245.415283 
	C1023.174133,2240.291260 914.892151,2218.230225 809.550781,2178.395996 
M761.007019,577.375366 
	C736.520630,576.840393 712.574341,580.793335 688.716736,585.794189 
	C600.929260,604.195679 532.361816,651.099609 481.851990,724.901611 
	C451.426331,769.357910 430.904480,818.325562 415.936279,869.802917 
	C392.066437,951.893921 381.480652,1036.035645 378.448364,1121.182983 
	C376.039276,1188.829346 377.006683,1256.445923 383.614594,1323.922974 
	C389.244629,1381.414429 399.101471,1438.102539 414.585358,1493.738770 
	C429.218933,1546.319702 449.505310,1596.487061 480.059479,1642.112915 
	C521.818115,1704.470459 576.498108,1750.464478 648.716492,1773.259399 
	C718.881714,1795.406250 789.943726,1797.369019 861.814331,1780.868530 
	C931.004578,1764.983398 987.516663,1729.035522 1033.382446,1675.658936 
	C1070.116699,1632.909058 1096.106689,1583.985474 1114.257202,1530.808716 
	C1142.685669,1447.520630 1155.122070,1361.351318 1159.701294,1273.858521 
	C1163.766479,1196.185303 1161.656738,1118.628174 1154.324341,1041.190796 
	C1148.689331,981.681152 1138.312256,923.056824 1121.802490,865.600464 
	C1105.302246,808.177185 1081.702515,754.072021 1045.342529,706.122009 
	C1004.663513,652.476257 952.762756,614.538147 888.225098,594.667847 
	C847.481995,582.123474 805.640015,576.664856 761.007019,577.375366 
M1918.572754,1160.359863 
	C1909.165771,1155.150635 1899.758789,1149.941528 1889.475464,1144.247070 
	C1893.351074,1141.745117 1896.085693,1139.944092 1898.854858,1138.197754 
	C1920.968262,1124.252075 1941.085815,1107.990234 1958.211426,1088.090332 
	C1994.199585,1046.271729 2010.516602,996.622803 2015.807251,942.768127 
	C2020.047607,899.605957 2016.476685,856.881897 2005.834106,814.838867 
	C1980.821289,716.026184 1921.907227,646.178345 1827.137817,607.670715 
	C1786.406494,591.120422 1743.623535,582.721558 1699.853394,579.490234 
	C1640.729492,575.125488 1582.099121,576.937561 1524.201294,591.788757 
	C1472.281250,605.106628 1425.306152,627.492493 1385.438599,663.657104 
	C1344.180298,701.083252 1316.922363,747.450745 1299.979492,800.138916 
	C1283.745361,850.623352 1276.522705,902.615601 1274.569336,955.458313 
	C1273.776489,976.906738 1280.909424,984.345032 1302.650879,984.360107 
	C1344.317139,984.388977 1385.983398,984.391602 1427.649658,984.332031 
	C1431.627686,984.326355 1435.701782,984.256287 1439.562378,983.428650 
	C1447.322266,981.765198 1452.711060,977.151062 1454.435059,969.108948 
	C1455.197266,965.553223 1455.666748,961.913391 1455.981934,958.286743 
	C1458.057617,934.408142 1458.648926,910.302551 1462.347168,886.681702 
	C1472.587891,821.273560 1508.184448,775.767273 1571.429199,753.399780 
	C1607.404175,740.676697 1644.623657,740.335327 1682.054810,743.099243 
	C1702.803345,744.631348 1722.721313,749.559021 1741.886353,757.919861 
	C1788.852905,778.409180 1817.171021,814.145935 1827.536499,863.776550 
	C1834.411987,896.696045 1834.480591,930.148499 1827.784912,963.136353 
	C1820.183960,1000.584229 1800.777466,1029.161987 1763.776489,1044.039551 
	C1739.162476,1053.936523 1713.784668,1060.244507 1687.651978,1063.975830 
	C1651.645020,1069.116943 1615.437866,1071.606567 1579.079712,1072.163330 
	C1561.096436,1072.438721 1553.787231,1079.904419 1553.676636,1098.009155 
	C1553.570923,1115.341675 1553.652710,1132.675415 1553.652588,1150.008545 
	C1553.652466,1169.008301 1553.567993,1188.008667 1553.677490,1207.007812 
	C1553.783569,1225.426880 1560.658325,1232.180908 1579.272949,1232.344116 
	C1586.937988,1232.411377 1594.604980,1232.262695 1602.270996,1232.240479 
	C1628.587402,1232.164307 1654.932739,1231.296631 1681.212891,1232.240356 
	C1712.330322,1233.357788 1742.616943,1239.196777 1771.567017,1251.542114 
	C1820.189209,1272.276733 1848.842529,1309.230835 1860.111572,1359.992310 
	C1868.219116,1396.513428 1868.026733,1433.529053 1861.761719,1470.297729 
	C1849.006348,1545.158447 1801.510376,1603.146484 1718.068726,1620.082764 
	C1676.178833,1628.585327 1633.899170,1628.740234 1591.828735,1621.391113 
	C1545.901611,1613.368286 1506.515991,1593.233643 1478.224609,1555.009277 
	C1458.696777,1528.625610 1446.794189,1498.539917 1440.231201,1466.616333 
	C1436.219116,1447.100952 1434.272095,1427.135132 1431.944580,1407.307373 
	C1429.975342,1390.530396 1423.506714,1383.520630 1407.289551,1383.453125 
	C1362.957397,1383.268433 1318.623413,1383.240234 1274.291626,1383.456665 
	C1256.705200,1383.542480 1248.847656,1392.899536 1250.661011,1410.347290 
	C1251.831909,1421.613892 1252.913086,1432.890015 1254.079956,1444.156982 
	C1259.049316,1492.138672 1269.611206,1538.826416 1288.175903,1583.405518 
	C1320.640869,1661.362427 1373.580200,1720.215088 1451.474609,1754.955688 
	C1493.842407,1773.851562 1538.604248,1783.762329 1584.599854,1788.516235 
	C1643.023926,1794.554688 1701.030884,1792.339355 1758.562744,1779.948730 
	C1808.555908,1769.181519 1855.438232,1751.121826 1898.093628,1722.432373 
	C1956.752319,1682.979370 2000.833130,1631.611328 2025.508179,1565.035645 
	C2051.778809,1494.155884 2057.185303,1420.906372 2045.316040,1346.509888 
	C2040.264648,1314.847290 2031.264282,1284.165405 2015.107666,1255.989868 
	C1991.975708,1215.649658 1959.329956,1184.962891 1918.572754,1160.359863 
z"/>
<path fill="#3954A4" opacity="1.000000" stroke="none" 
	d="
M762.006470,577.375122 
	C805.640015,576.664856 847.481995,582.123474 888.225098,594.667847 
	C952.762756,614.538147 1004.663513,652.476257 1045.342529,706.122009 
	C1081.702515,754.072021 1105.302246,808.177185 1121.802490,865.600464 
	C1138.312256,923.056824 1148.689331,981.681152 1154.324341,1041.190796 
	C1161.656738,1118.628174 1163.766479,1196.185303 1159.701294,1273.858521 
	C1155.122070,1361.351318 1142.685669,1447.520630 1114.257202,1530.808716 
	C1096.106689,1583.985474 1070.116699,1632.909058 1033.382446,1675.658936 
	C987.516663,1729.035522 931.004578,1764.983398 861.814331,1780.868530 
	C789.943726,1797.369019 718.881714,1795.406250 648.716492,1773.259399 
	C576.498108,1750.464478 521.818115,1704.470459 480.059479,1642.112915 
	C449.505310,1596.487061 429.218933,1546.319702 414.585358,1493.738770 
	C399.101471,1438.102539 389.244629,1381.414429 383.614594,1323.922974 
	C377.006683,1256.445923 376.039276,1188.829346 378.448364,1121.182983 
	C381.480652,1036.035645 392.066437,951.893921 415.936279,869.802917 
	C430.904480,818.325562 451.426331,769.357910 481.851990,724.901611 
	C532.361816,651.099609 600.929260,604.195679 688.716736,585.794189 
	C712.574341,580.793335 736.520630,576.840393 762.006470,577.375122 
M562.014954,1220.989746 
	C564.117432,1258.568604 565.341553,1296.222778 568.556580,1333.706177 
	C572.143982,1375.531982 578.661743,1417.006836 589.989014,1457.569092 
	C600.161621,1493.996704 613.501953,1529.137451 634.411682,1560.871338 
	C678.426941,1627.671509 743.109436,1647.051392 816.398621,1627.464966 
	C857.352478,1616.520020 886.269714,1588.559204 908.451965,1553.346924 
	C930.720581,1517.997559 944.530945,1479.175781 954.091675,1438.785400 
	C967.962646,1380.186279 972.990723,1320.438232 975.562439,1260.483521 
	C978.076477,1201.871826 978.023254,1143.244873 974.308594,1084.645996 
	C971.312378,1037.379395 966.228760,990.390991 955.913147,944.123962 
	C946.073059,899.990112 931.630249,857.461609 906.992371,819.174133 
	C878.101013,774.276794 838.218567,746.879639 783.566467,743.093079 
	C729.389099,739.339478 683.961121,756.219055 648.486877,797.993347 
	C624.794739,825.892944 610.006836,858.566650 598.144043,892.737854 
	C578.869690,948.258667 571.281616,1006.001099 566.275391,1064.168091 
	C561.841919,1115.679932 561.261353,1167.325073 562.014954,1220.989746 
z"/>
<path fill="#3954A4" opacity="1.000000" stroke="none" 
	d="
M1919.188477,1160.751465 
	C1959.329956,1184.962891 1991.975708,1215.649658 2015.107666,1255.989868 
	C2031.264282,1284.165405 2040.264648,1314.847290 2045.316040,1346.509888 
	C2057.185303,1420.906372 2051.778809,1494.155884 2025.508179,1565.035645 
	C2000.833130,1631.611328 1956.752319,1682.979370 1898.093628,1722.432373 
	C1855.438232,1751.121826 1808.555908,1769.181519 1758.562744,1779.948730 
	C1701.030884,1792.339355 1643.023926,1794.554688 1584.599854,1788.516235 
	C1538.604248,1783.762329 1493.842407,1773.851562 1451.474609,1754.955688 
	C1373.580200,1720.215088 1320.640869,1661.362427 1288.175903,1583.405518 
	C1269.611206,1538.826416 1259.049316,1492.138672 1254.079956,1444.156982 
	C1252.913086,1432.890015 1251.831909,1421.613892 1250.661011,1410.347290 
	C1248.847656,1392.899536 1256.705200,1383.542480 1274.291626,1383.456665 
	C1318.623413,1383.240234 1362.957397,1383.268433 1407.289551,1383.453125 
	C1423.506714,1383.520630 1429.975342,1390.530396 1431.944580,1407.307373 
	C1434.272095,1427.135132 1436.219116,1447.100952 1440.231201,1466.616333 
	C1446.794189,1498.539917 1458.696777,1528.625610 1478.224609,1555.009277 
	C1506.515991,1593.233643 1545.901611,1613.368286 1591.828735,1621.391113 
	C1633.899170,1628.740234 1676.178833,1628.585327 1718.068726,1620.082764 
	C1801.510376,1603.146484 1849.006348,1545.158447 1861.761719,1470.297729 
	C1868.026733,1433.529053 1868.219116,1396.513428 1860.111572,1359.992310 
	C1848.842529,1309.230835 1820.189209,1272.276733 1771.567017,1251.542114 
	C1742.616943,1239.196777 1712.330322,1233.357788 1681.212891,1232.240356 
	C1654.932739,1231.296631 1628.587402,1232.164307 1602.270996,1232.240479 
	C1594.604980,1232.262695 1586.937988,1232.411377 1579.272949,1232.344116 
	C1560.658325,1232.180908 1553.783569,1225.426880 1553.677490,1207.007812 
	C1553.567993,1188.008667 1553.652466,1169.008301 1553.652588,1150.008545 
	C1553.652710,1132.675415 1553.570923,1115.341675 1553.676636,1098.009155 
	C1553.787231,1079.904419 1561.096436,1072.438721 1579.079712,1072.163330 
	C1615.437866,1071.606567 1651.645020,1069.116943 1687.651978,1063.975830 
	C1713.784668,1060.244507 1739.162476,1053.936523 1763.776489,1044.039551 
	C1800.777466,1029.161987 1820.183960,1000.584229 1827.784912,963.136353 
	C1834.480591,930.148499 1834.411987,896.696045 1827.536499,863.776550 
	C1817.171021,814.145935 1788.852905,778.409180 1741.886353,757.919861 
	C1722.721313,749.559021 1702.803345,744.631348 1682.054810,743.099243 
	C1644.623657,740.335327 1607.404175,740.676697 1571.429199,753.399780 
	C1508.184448,775.767273 1472.587891,821.273560 1462.347168,886.681702 
	C1458.648926,910.302551 1458.057617,934.408142 1455.981934,958.286743 
	C1455.666748,961.913391 1455.197266,965.553223 1454.435059,969.108948 
	C1452.711060,977.151062 1447.322266,981.765198 1439.562378,983.428650 
	C1435.701782,984.256287 1431.627686,984.326355 1427.649658,984.332031 
	C1385.983398,984.391602 1344.317139,984.388977 1302.650879,984.360107 
	C1280.909424,984.345032 1273.776489,976.906738 1274.569336,955.458313 
	C1276.522705,902.615601 1283.745361,850.623352 1299.979492,800.138916 
	C1316.922363,747.450745 1344.180298,701.083252 1385.438599,663.657104 
	C1425.306152,627.492493 1472.281250,605.106628 1524.201294,591.788757 
	C1582.099121,576.937561 1640.729492,575.125488 1699.853394,579.490234 
	C1743.623535,582.721558 1786.406494,591.120422 1827.137817,607.670715 
	C1921.907227,646.178345 1980.821289,716.026184 2005.834106,814.838867 
	C2016.476685,856.881897 2020.047607,899.605957 2015.807251,942.768127 
	C2010.516602,996.622803 1994.199585,1046.271729 1958.211426,1088.090332 
	C1941.085815,1107.990234 1920.968262,1124.252075 1898.854858,1138.197754 
	C1896.085693,1139.944092 1893.351074,1141.745117 1889.475464,1144.247070 
	C1899.758789,1149.941528 1909.165771,1155.150635 1919.188477,1160.751465 
z"/>
<path fill="#FFFFFF" opacity="1.000000" stroke="none" 
	d="
M562.013672,1219.991699 
	C561.261353,1167.325073 561.841919,1115.679932 566.275391,1064.168091 
	C571.281616,1006.001099 578.869690,948.258667 598.144043,892.737854 
	C610.006836,858.566650 624.794739,825.892944 648.486877,797.993347 
	C683.961121,756.219055 729.389099,739.339478 783.566467,743.093079 
	C838.218567,746.879639 878.101013,774.276794 906.992371,819.174133 
	C931.630249,857.461609 946.073059,899.990112 955.913147,944.123962 
	C966.228760,990.390991 971.312378,1037.379395 974.308594,1084.645996 
	C978.023254,1143.244873 978.076477,1201.871826 975.562439,1260.483521 
	C972.990723,1320.438232 967.962646,1380.186279 954.091675,1438.785400 
	C944.530945,1479.175781 930.720581,1517.997559 908.451965,1553.346924 
	C886.269714,1588.559204 857.352478,1616.520020 816.398621,1627.464966 
	C743.109436,1647.051392 678.426941,1627.671509 634.411682,1560.871338 
	C613.501953,1529.137451 600.161621,1493.996704 589.989014,1457.569092 
	C578.661743,1417.006836 572.143982,1375.531982 568.556580,1333.706177 
	C565.341553,1296.222778 564.117432,1258.568604 562.013672,1219.991699 
z"/>
</svg>