<?xml version="1.0" encoding="utf-8"?>
<!-- Generator: Adobe Illustrator 27.5.0, SVG Export Plug-In . SVG Version: 6.00 Build 0)  -->
<svg version="1.1" id="_x2DC_àð_x5F_2" xmlns="http://www.w3.org/2000/svg" xmlns:xlink="http://www.w3.org/1999/xlink" x="0px"
	 y="0px" viewBox="0 0 2400 2000" style="enable-background:new 0 0 2400 2000;" xml:space="preserve">
<g>
	<rect style="opacity:0.64;fill:#FFFFFF;" width="2400" height="2000"/>
	<g>
		<rect style="fill:#FFFFFF;" width="2400" height="2000"/>
		<g>
			
				<radialGradient id="SVGID_1_" cx="-3072.8167" cy="424.0985" r="3331.011" gradientTransform="matrix(0.245 0 0 0.2461 1832.8394 755.6297)" gradientUnits="userSpaceOnUse">
				<stop  offset="0" style="stop-color:#5902C2"/>
				<stop  offset="0.107" style="stop-color:#4428CA"/>
				<stop  offset="0.2321" style="stop-color:#2F4DD1"/>
				<stop  offset="0.3633" style="stop-color:#1E6CD7"/>
				<stop  offset="0.5" style="stop-color:#1184DC"/>
				<stop  offset="0.6448" style="stop-color:#0795DF"/>
				<stop  offset="0.803" style="stop-color:#029FE1"/>
				<stop  offset="1" style="stop-color:#00A2E2"/>
			</radialGradient>
			<path style="fill:url(#SVGID_1_);" d="M1968.883,413.285c-71.625-202.428-201.546-360.928-549.176-161.441
				C1072.078,451.33,948.5,416.301,744.676,364.894c-203.825-51.406-572.414,22.658-584.371,347.727
				c-9.836,267.516,219.571,521.453,352.449,606.839c374.063,240.391,730.308,376.243,1114.867,36.938
				C2012.18,1017.098,2040.509,615.711,1968.883,413.285z"/>
		</g>
		<g>
			
				<radialGradient id="SVGID_00000156587228568833317080000007864073118193094057_" cx="-1527.8213" cy="834.1456" r="3002.3499" gradientTransform="matrix(0.2445 0 0 0.2458 1833.551 754.9674)" gradientUnits="userSpaceOnUse">
				<stop  offset="0" style="stop-color:#5902C2"/>
				<stop  offset="0.107" style="stop-color:#4428CA"/>
				<stop  offset="0.2321" style="stop-color:#2F4DD1"/>
				<stop  offset="0.3633" style="stop-color:#1E6CD7"/>
				<stop  offset="0.5" style="stop-color:#1184DC"/>
				<stop  offset="0.6448" style="stop-color:#0795DF"/>
				<stop  offset="0.803" style="stop-color:#029FE1"/>
				<stop  offset="1" style="stop-color:#00A2E2"/>
			</radialGradient>
			<path style="fill:url(#SVGID_00000156587228568833317080000007864073118193094057_);" d="M2229.355,963.33
				c-15.718-456.24-301.628-500.635-599.425-597.715c-297.801-97.078-684.524-211.725-852.778,83.334
				c-168.254,295.06-57.297,449.912,35.949,740.083c93.246,290.171,289.777,637.327,900.269,382.226
				C1969.652,1464.164,2245.079,1419.57,2229.355,963.33z"/>
		</g>
		<g>
			
				<radialGradient id="SVGID_00000052077473262259152110000007188691075025909155_" cx="-3000.4497" cy="1652.8064" r="3112.6851" gradientTransform="matrix(0.2445 0 0 0.2445 1833.61 755.8878)" gradientUnits="userSpaceOnUse">
				<stop  offset="0" style="stop-color:#5902C2"/>
				<stop  offset="0.107" style="stop-color:#4428CA"/>
				<stop  offset="0.2321" style="stop-color:#2F4DD1"/>
				<stop  offset="0.3633" style="stop-color:#1E6CD7"/>
				<stop  offset="0.5" style="stop-color:#1184DC"/>
				<stop  offset="0.6448" style="stop-color:#0795DF"/>
				<stop  offset="0.803" style="stop-color:#029FE1"/>
				<stop  offset="1" style="stop-color:#00A2E2"/>
			</radialGradient>
			<path style="fill:url(#SVGID_00000052077473262259152110000007188691075025909155_);" d="M1455.09,508.227
				c-352.223-184.762-715.773,42.904-888.691,241.881c-320.582,368.9-281.579,562.224-236.219,674.748
				c44.465,110.301,175.723,188.297,321.316,190.719c159.832,2.66,241.453,20.242,341.918,80.094
				c95.933,57.152,242.691,219.379,456.464,177.508c256.668-50.266,419.739-261.016,445.852-510.625
				C1924.914,1083.609,1807.317,692.988,1455.09,508.227z"/>
		</g>
	</g>
	<rect style="opacity:0.64;fill:#B6FACC;" width="2400" height="2000"/>
</g>
<g>
	<g>
		<g>
			<polygon style="fill:#D9E7FF;" points="1727.148,1043.568 1338.615,1043.447 1338.615,404.131 1727.148,404.131 			"/>
		</g>
	</g>
	<g>
		<g>
			<g>
				<rect x="1355.197" y="420.541" style="fill:#F3F8FF;" width="106.73" height="193.158"/>
			</g>
			<g>
				<rect x="1479.517" y="420.541" style="fill:#F3F8FF;" width="106.73" height="193.158"/>
			</g>
			<g>
				<rect x="1603.836" y="420.541" style="fill:#F3F8FF;" width="106.73" height="193.158"/>
			</g>
		</g>
		<g>
			<g>
				<rect x="1355.197" y="627.271" style="fill:#F3F8FF;" width="106.73" height="193.158"/>
			</g>
			<g>
				<rect x="1479.517" y="627.271" style="fill:#F3F8FF;" width="106.73" height="193.158"/>
			</g>
			<g>
				<rect x="1603.836" y="627.271" style="fill:#F3F8FF;" width="106.73" height="193.158"/>
			</g>
		</g>
		<g>
			<g>
				<rect x="1355.197" y="834.001" style="fill:#F3F8FF;" width="106.73" height="193.157"/>
			</g>
			<g>
				<rect x="1479.517" y="834.001" style="fill:#F3F8FF;" width="106.73" height="193.157"/>
			</g>
			<g>
				<rect x="1603.836" y="834.001" style="fill:#F3F8FF;" width="106.73" height="193.157"/>
			</g>
		</g>
	</g>
	<g>
		<g>
			<ellipse style="fill:#8094F0;" cx="1199.997" cy="1517.263" rx="965.693" ry="78.606"/>
		</g>
	</g>
	<g>
		<g>
			<g>
				<g>
					<path style="fill:#80B5FA;" d="M1943.36,1389.26c-0.083-0.004-0.168-0.017-0.252-0.039c-0.678-0.175-1.086-0.869-0.91-1.547
						c45.946-177.305,89.126-302.895,121.585-353.638c0.721-1.127,1.243-1.939,1.435-2.349c0.304-0.633,1.062-0.899,1.692-0.6
						c0.635,0.3,0.902,1.057,0.603,1.692c-0.264,0.552-0.763,1.332-1.59,2.625c-32.319,50.524-75.385,175.855-121.268,352.907
						C1944.5,1388.905,1943.951,1389.291,1943.36,1389.26z"/>
				</g>
			</g>
			<g>
				<g>
					<path style="fill:#80B5FA;" d="M2087.4,1024.098c-3.857,5.704-23.951,16.673-25.579,15.572
						c-1.628-1.101,1.069-23.835,4.925-29.538c3.859-5.704,11.608-7.2,17.31-3.344
						C2089.76,1010.645,2091.258,1018.394,2087.4,1024.098z"/>
				</g>
			</g>
			<g>
				<g>
					<path style="fill:#80B5FA;" d="M2048.493,1042.484c2.284,6.663-1.127,29.833-3.03,30.486
						c-1.902,0.65-18.812-15.552-21.096-22.214c-2.284-6.661,1.264-13.917,7.927-16.201
						C2038.956,1032.271,2046.208,1035.821,2048.493,1042.484z"/>
				</g>
			</g>
			<g>
				<g>
					<path style="fill:#80B5FA;" d="M2074.467,1081.776c-7.006,0.726-28.812-7.816-29.021-9.816
						c-0.207-2,19.389-14.829,26.395-15.555c7.006-0.726,13.273,4.367,13.998,11.373
						C2086.566,1074.783,2081.473,1081.052,2074.467,1081.776z"/>
				</g>
			</g>
			<g>
				<g>
					<path style="fill:#80B5FA;" d="M1992.782,1160.973c5.017,10.705,3.516,49.991,0.459,51.422
						c-3.055,1.433-34.207-22.549-39.226-33.253c-5.016-10.705-0.404-23.451,10.3-28.469
						C1975.018,1145.657,1987.764,1150.266,1992.782,1160.973z"/>
				</g>
			</g>
			<g>
				<g>
					<path style="fill:#80B5FA;" d="M2043.236,1221.843c-11.56,2.478-49.499-7.832-50.204-11.131
						c-0.708-3.3,29.672-28.253,41.231-30.73c11.56-2.479,22.939,4.884,25.418,16.444
						C2062.16,1207.984,2054.796,1219.365,2043.236,1221.843z"/>
				</g>
			</g>
			<g>
				<g>
					<path style="fill:#80B5FA;" d="M1963.758,1205.986c8.873,11.427,17.659,58.728,14.399,61.261
						c-3.262,2.532-46.91-17.703-55.782-29.131c-8.873-11.428-6.802-27.882,4.626-36.757
						C1938.429,1192.488,1954.885,1194.559,1963.758,1205.986z"/>
				</g>
			</g>
			<g>
				<g>
					<path style="fill:#80B5FA;" d="M2035.618,1285.432c-14.383,1.559-59.264-15.767-59.708-19.872
						c-0.445-4.106,39.675-30.655,54.058-32.215c14.382-1.561,27.307,8.833,28.867,23.217
						C2060.396,1270.946,2050.002,1283.87,2035.618,1285.432z"/>
				</g>
			</g>
			<g>
				<g>
					<path style="fill:#80B5FA;" d="M1946.95,1263.874c8.873,11.428,17.661,58.727,14.399,61.26
						c-3.262,2.532-46.909-17.703-55.781-29.13c-8.873-11.428-6.802-27.884,4.626-36.757
						C1921.622,1250.376,1938.079,1252.447,1946.95,1263.874z"/>
				</g>
			</g>
			<g>
				<g>
					<path style="fill:#80B5FA;" d="M2018.811,1343.32c-14.383,1.56-59.264-15.768-59.71-19.873
						c-0.445-4.105,39.675-30.654,54.058-32.214c14.383-1.561,27.309,8.834,28.869,23.217
						C2043.59,1328.833,2033.194,1341.758,2018.811,1343.32z"/>
				</g>
			</g>
			<g>
				<g>
					<path style="fill:#80B5FA;" d="M1908.044,1337.302c12.555,7.186,38.698,47.572,36.647,51.157
						c-2.051,3.582-50.116,1.501-62.672-5.687c-12.556-7.186-16.909-23.191-9.723-35.749
						C1879.483,1334.468,1895.488,1330.115,1908.044,1337.302z"/>
				</g>
			</g>
			<g>
				<g>
					<path style="fill:#80B5FA;" d="M2004.175,1400.498c-14.074,3.347-60.77-8.233-61.725-12.251
						c-0.956-4.016,35.53-35.373,49.606-38.719c14.074-3.346,28.198,5.352,31.545,19.426
						C2026.949,1383.03,2018.249,1397.152,2004.175,1400.498z"/>
				</g>
			</g>
			<g>
				<g>
					<path style="fill:#80B5FA;" d="M2031.324,1079.37c2.32,6.768-1.146,30.313-3.079,30.975
						c-1.932,0.662-19.116-15.801-21.435-22.571c-2.322-6.769,1.286-14.138,8.055-16.458
						C2021.635,1068.995,2029.002,1072.6,2031.324,1079.37z"/>
				</g>
			</g>
			<g>
				<g>
					<path style="fill:#80B5FA;" d="M2056.805,1119.762c-7.118,0.739-29.276-7.942-29.486-9.973
						c-0.21-2.032,19.7-15.068,26.818-15.805c7.119-0.734,13.486,4.438,14.222,11.555
						C2069.096,1112.658,2063.924,1119.025,2056.805,1119.762z"/>
				</g>
			</g>
			<g>
				<g>
					<path style="fill:#80B5FA;" d="M2011.429,1113.776c4.076,9.316,1.909,43.055-0.749,44.218
						c-2.659,1.163-28.906-20.146-32.982-29.46c-4.074-9.315,0.172-20.168,9.487-24.242
						C1996.5,1100.216,2007.354,1104.462,2011.429,1113.776z"/>
				</g>
			</g>
			<g>
				<g>
					<path style="fill:#80B5FA;" d="M2052.229,1171.028c-10.113,1.047-41.592-11.283-41.89-14.17
						c-0.298-2.887,27.987-21.403,38.098-22.451c10.113-1.047,19.16,6.302,20.207,16.414
						C2069.692,1160.935,2062.344,1169.981,2052.229,1171.028z"/>
				</g>
			</g>
		</g>
		<g>
			<g>
				<g>
					<path style="fill:#B5D1FA;" d="M1918.718,1405.751c0.096,0.009,0.191,0.006,0.288-0.004c0.782-0.097,1.34-0.807,1.244-1.589
						c-24.883-204.395-54.357-350.751-82.996-412.114c-0.635-1.363-1.095-2.346-1.25-2.832c-0.243-0.75-1.049-1.16-1.797-0.92
						c-0.75,0.242-1.162,1.046-0.92,1.796c0.21,0.655,0.652,1.599,1.382,3.163c28.514,61.095,57.902,207.148,82.749,411.251
						C1917.5,1405.186,1918.057,1405.699,1918.718,1405.751z"/>
				</g>
			</g>
			<g>
				<g>
					<path style="fill:#B5D1FA;" d="M1812.415,977.464c3.45,6.928,24.213,22.133,26.192,21.15
						c1.977-0.986,2.346-26.721-1.105-33.647c-3.452-6.927-11.865-9.746-18.792-6.295
						C1811.782,962.124,1808.963,970.538,1812.415,977.464z"/>
				</g>
			</g>
			<g>
				<g>
					<path style="fill:#B5D1FA;" d="M1853.04,1003.729c-3.534,7.086-3.171,33.411-1.149,34.421
						c2.022,1.009,23.272-14.538,26.807-21.622c3.534-7.086,0.655-15.694-6.431-19.229
						C1865.184,993.763,1856.574,996.641,1853.04,1003.729z"/>
				</g>
			</g>
			<g>
				<g>
					<path style="fill:#B5D1FA;" d="M1818.264,1043.657c7.698,1.847,33.269-4.435,33.796-6.632
						c0.527-2.197-19.405-19.4-27.103-21.25c-7.7-1.847-15.439,2.896-17.287,10.595
						C1805.822,1034.067,1810.564,1041.808,1818.264,1043.657z"/>
				</g>
			</g>
			<g>
				<g>
					<path style="fill:#B5D1FA;" d="M1897.533,1144.032c-7.18,11.183-11.337,55.184-8.145,57.232
						c3.192,2.049,41.467-20.048,48.647-31.233c7.18-11.183,3.932-26.07-7.252-33.25
						C1919.598,1129.601,1904.713,1132.847,1897.533,1144.032z"/>
				</g>
			</g>
			<g>
				<g>
					<path style="fill:#B5D1FA;" d="M1832.276,1204.372c12.513,4.477,56.319-1.38,57.595-4.952
						c1.279-3.572-28.872-35.886-41.383-40.363c-12.515-4.477-26.288,2.038-30.765,14.551
						C1813.246,1186.122,1819.761,1199.895,1832.276,1204.372z"/>
				</g>
			</g>
			<g>
				<g>
					<path style="fill:#B5D1FA;" d="M1923.194,1198.5c-11.583,11.415-28.398,62.82-25.138,66.125
						c3.259,3.305,54.898-12.764,66.483-24.18c11.582-11.417,11.716-30.062,0.298-41.645
						C1953.422,1187.217,1934.775,1187.082,1923.194,1198.5z"/>
				</g>
			</g>
			<g>
				<g>
					<path style="fill:#B5D1FA;" d="M1831.325,1276.36c15.797,3.873,68.38-8.773,69.485-13.281
						c1.107-4.509-39.661-40.048-55.456-43.921c-15.796-3.875-31.741,5.789-35.615,21.586
						C1805.865,1256.54,1815.53,1272.486,1831.325,1276.36z"/>
				</g>
			</g>
			<g>
				<g>
					<path style="fill:#B5D1FA;" d="M1933.328,1265.5c-11.582,11.417-28.397,62.82-25.138,66.127
						c3.26,3.305,54.898-12.763,66.483-24.181c11.585-11.415,11.718-30.061,0.302-41.645
						C1963.557,1254.217,1944.913,1254.082,1933.328,1265.5z"/>
				</g>
			</g>
			<g>
				<g>
					<path style="fill:#B5D1FA;" d="M1841.462,1343.36c15.797,3.875,68.379-8.772,69.485-13.281
						c1.105-4.508-39.661-40.046-55.456-43.922c-15.797-3.872-31.742,5.792-35.615,21.587
						C1816.001,1323.541,1825.667,1339.487,1841.462,1343.36z"/>
				</g>
			</g>
			<g>
				<g>
					<path style="fill:#B5D1FA;" d="M1965.786,1353.097c-15.059,6.144-50.185,47.268-48.431,51.566
						c1.754,4.299,55.623,9.111,70.68,2.966c15.059-6.144,22.286-23.331,16.142-38.391
						C1998.032,1354.179,1980.845,1346.951,1965.786,1353.097z"/>
				</g>
			</g>
			<g>
				<g>
					<path style="fill:#B5D1FA;" d="M1849.283,1409.249c15.188,5.818,68.94-0.153,70.601-4.489
						c1.661-4.335-34.344-44.693-49.53-50.511c-15.187-5.817-32.216,1.779-38.035,16.967
						C1826.501,1386.403,1834.096,1403.432,1849.283,1409.249z"/>
				</g>
			</g>
			<g>
				<g>
					<path style="fill:#B5D1FA;" d="M1866.698,1047.378c-3.592,7.199-3.221,33.947-1.167,34.974
						c2.055,1.024,23.646-14.771,27.235-21.968c3.594-7.199,0.666-15.946-6.531-19.538
						C1879.035,1037.255,1870.288,1040.18,1866.698,1047.378z"/>
				</g>
			</g>
			<g>
				<g>
					<path style="fill:#B5D1FA;" d="M1832.306,1088.606c7.823,1.879,33.802-4.503,34.339-6.737
						c0.534-2.233-19.716-19.713-27.539-21.59s-15.687,2.942-17.564,10.765C1819.664,1078.866,1824.484,1086.731,1832.306,1088.606z
						"/>
				</g>
			</g>
			<g>
				<g>
					<path style="fill:#B5D1FA;" d="M1883.76,1088.673c-5.924,9.774-8.52,47.691-5.729,49.381
						c2.788,1.69,35.201-18.156,41.124-27.932c5.924-9.774,2.803-22.5-6.971-28.422
						C1902.409,1075.776,1889.683,1078.898,1883.76,1088.673z"/>
				</g>
			</g>
			<g>
				<g>
					<path style="fill:#B5D1FA;" d="M1829.796,1146.413c11.114,2.668,48.021-6.401,48.783-9.573
						c0.76-3.172-28.008-28.005-39.122-30.673c-11.114-2.668-22.286,4.178-24.953,15.292
						C1811.837,1132.573,1818.682,1143.745,1829.796,1146.413z"/>
				</g>
			</g>
		</g>
		<g>
			<g>
				<g>
					<path style="fill:#3B8DDB;" d="M1887.495,1404.771c0.053-0.012,0.11-0.031,0.164-0.055c0.434-0.197,0.626-0.71,0.429-1.143
						c-51.509-113.36-95.115-192.413-122.787-222.596c-0.614-0.672-1.057-1.154-1.236-1.406c-0.276-0.388-0.815-0.478-1.204-0.203
						c-0.388,0.274-0.479,0.814-0.204,1.202c0.24,0.338,0.666,0.804,1.372,1.573c27.553,30.052,71.052,108.945,122.489,222.143
						C1886.689,1404.668,1887.103,1404.862,1887.495,1404.771z"/>
				</g>
			</g>
			<g>
				<g>
					<path style="fill:#3B8DDB;" d="M1748.323,1177.082c3.25,3.369,17.99,8.363,18.951,7.436c0.962-0.927-3.504-15.836-6.754-19.203
						c-3.249-3.369-8.614-3.465-11.982-0.215C1745.17,1168.35,1745.075,1173.716,1748.323,1177.082z"/>
				</g>
			</g>
			<g>
				<g>
					<path style="fill:#3B8DDB;" d="M1776.53,1184.846c-0.75,4.728,4.244,19.845,5.594,20.061
						c1.35,0.213,10.781-12.616,11.529-17.344c0.75-4.731-2.474-9.171-7.203-9.922
						C1781.721,1176.891,1777.28,1180.115,1776.53,1184.846z"/>
				</g>
			</g>
			<g>
				<g>
					<path style="fill:#3B8DDB;" d="M1763.73,1214.197c4.777-0.333,18.382-8.606,18.286-9.97
						c-0.096-1.363-14.718-7.662-19.495-7.327c-4.777,0.333-8.379,4.476-8.045,9.253
						C1754.811,1210.929,1758.955,1214.53,1763.73,1214.197z"/>
				</g>
			</g>
			<g>
				<g>
					<path style="fill:#3B8DDB;" d="M1827.697,1257.676c-2.109,7.758,3.494,33.889,5.707,34.49
						c2.213,0.602,20.271-19.102,22.378-26.857c2.107-7.755-2.471-15.75-10.226-17.859
						C1837.8,1245.342,1829.805,1249.921,1827.697,1257.676z"/>
				</g>
			</g>
			<g>
				<g>
					<path style="fill:#3B8DDB;" d="M1801.029,1304.341c8.031,0.307,32.23-11.035,32.319-13.327
						c0.087-2.293-23.175-15.45-31.206-15.756c-8.032-0.307-14.791,5.953-15.099,13.985
						C1786.736,1297.274,1792.997,1304.032,1801.029,1304.341z"/>
				</g>
			</g>
			<g>
				<g>
					<path style="fill:#3B8DDB;" d="M1852.399,1284.425c-4.605,8.691-4.958,41.393-2.477,42.707
						c2.48,1.314,29.342-17.341,33.947-26.031c4.606-8.69,1.293-19.468-7.397-24.074
						C1867.781,1272.423,1857.002,1275.735,1852.399,1284.425z"/>
				</g>
			</g>
			<g>
				<g>
					<path style="fill:#3B8DDB;" d="M1813.569,1346.033c9.814-0.637,37.843-17.49,37.661-20.291
						c-0.182-2.803-30.155-15.888-39.969-15.25c-9.815,0.637-17.254,9.111-16.616,18.924
						C1795.281,1339.231,1803.755,1346.67,1813.569,1346.033z"/>
				</g>
			</g>
			<g>
				<g>
					<path style="fill:#3B8DDB;" d="M1870.424,1321.225c-4.606,8.689-4.958,41.393-2.477,42.707
						c2.48,1.314,29.344-17.341,33.947-26.031c4.606-8.691,1.295-19.468-7.397-24.074
						C1885.807,1309.222,1875.029,1312.535,1870.424,1321.225z"/>
				</g>
			</g>
			<g>
				<g>
					<path style="fill:#3B8DDB;" d="M1831.595,1382.832c9.815-0.636,37.843-17.49,37.662-20.29
						c-0.182-2.803-30.155-15.889-39.971-15.252c-9.813,0.639-17.254,9.11-16.616,18.925
						C1813.307,1376.03,1821.78,1383.469,1831.595,1382.832z"/>
				</g>
			</g>
			<g>
				<g>
					<path style="fill:#3B8DDB;" d="M1905.068,1365.846c-7.568,6.282-20.35,36.385-18.557,38.544
						c1.793,2.161,33.735-4.855,41.303-11.137c7.569-6.282,8.611-17.51,2.329-25.078
						C1923.861,1360.608,1912.636,1359.564,1905.068,1365.846z"/>
				</g>
			</g>
			<g>
				<g>
					<path style="fill:#3B8DDB;" d="M1848.084,1419.411c9.818,0.596,39.732-12.621,39.903-15.424
						c0.169-2.801-27.933-19.532-37.749-20.126c-9.818-0.597-18.257,6.881-18.853,16.698
						C1830.791,1410.376,1838.268,1418.816,1848.084,1419.411z"/>
				</g>
			</g>
			<g>
				<g>
					<path style="fill:#3B8DDB;" d="M1792.341,1207.537c-0.762,4.806,4.314,20.166,5.685,20.382
						c1.372,0.22,10.951-12.816,11.715-17.621c0.763-4.805-2.514-9.316-7.319-10.078
						C1797.618,1199.456,1793.104,1202.732,1792.341,1207.537z"/>
				</g>
			</g>
			<g>
				<g>
					<path style="fill:#3B8DDB;" d="M1780.002,1237.567c4.852-0.337,18.676-8.743,18.579-10.127
						c-0.097-1.386-14.954-7.785-19.807-7.447c-4.854,0.339-8.512,4.548-8.173,9.402
						C1770.941,1234.249,1775.148,1237.907,1780.002,1237.567z"/>
				</g>
			</g>
			<g>
				<g>
					<path style="fill:#3B8DDB;" d="M1809.689,1228.252c-1.64,6.715,3.757,29.052,5.673,29.522
						c1.916,0.468,17.002-16.871,18.641-23.586c1.64-6.714-2.475-13.485-9.189-15.126
						C1818.1,1217.424,1811.328,1221.537,1809.689,1228.252z"/>
				</g>
			</g>
			<g>
				<g>
					<path style="fill:#3B8DDB;" d="M1789.063,1271.363c6.894-0.482,26.532-12.422,26.395-14.389
						c-0.138-1.967-21.246-11.06-28.14-10.579c-6.895,0.481-12.093,6.463-11.611,13.357
						C1776.188,1266.647,1782.169,1271.844,1789.063,1271.363z"/>
				</g>
			</g>
		</g>
		<g>
			<g>
				<path style="fill:#80B5FA;" d="M1882.006,1521.424h61.961c31.3,0,56.673-25.373,56.673-56.673v-63.204h-175.309v63.203
					C1825.332,1496.05,1850.706,1521.424,1882.006,1521.424z"/>
			</g>
		</g>
	</g>
	<g>
		<g>
			<g>
				<g>
					<g>
						<rect x="1490.469" y="1395.646" style="fill:#FF7367;" width="184.413" height="136.251"/>
					</g>
				</g>
				<g>
					<g>
						<rect x="1429.842" y="1395.646" style="fill:#FF8B85;" width="146.215" height="136.251"/>
					</g>
				</g>
				<g>
					<g>
						<path style="fill:#010131;" d="M1513.775,1417.889h-38.322c-2.222,0-4.04-1.818-4.04-4.04v-1c0-2.222,1.818-4.04,4.04-4.04
							h38.322c2.222,0,4.04,1.818,4.04,4.04v1C1517.815,1416.071,1515.997,1417.889,1513.775,1417.889z"/>
					</g>
				</g>
				<g>
					<g>
						<rect x="1422.673" y="1372.461" style="fill:#FF807E;" width="153.385" height="30.017"/>
					</g>
				</g>
				<g>
					<g>
						<rect x="1576.058" y="1372.461" style="fill:#FF615A;" width="103.422" height="30.017"/>
					</g>
				</g>
			</g>
			<g>
				<g>
					
						<rect x="1515.027" y="1429.458" transform="matrix(0.9672 -0.2541 0.2541 0.9672 -318.8285 438.7777)" style="fill:#ACBBFF;" width="48.493" height="48.492"/>
				</g>
			</g>
			<g>
				<g>
					
						<rect x="1509.863" y="1430.125" transform="matrix(0.9672 -0.2541 0.2541 0.9672 -314.0008 436.8167)" style="fill:#99AEF6;" width="48.493" height="7.837"/>
				</g>
			</g>
		</g>
		<g>
			<g>
				<g>
					<polygon style="fill:#667BFF;" points="1598.447,1540.678 1657.089,1493.463 1718.339,1521.397 1718.018,1540.678 					"/>
				</g>
			</g>
			<g>
				<g>
					
						<rect x="1560.427" y="1444.244" transform="matrix(-1.836970e-16 1 -1 -1.836970e-16 3101.333 -67.191)" style="fill:#889FFF;" width="47.671" height="145.655"/>
				</g>
			</g>
			<g>
				<g>
					<path style="fill:#D9E7FF;" d="M1638.898,1509.649c4.161,0,7.535,3.373,7.535,7.536s-3.374,7.536-7.535,7.536
						c-4.162,0-7.536-3.374-7.536-7.536S1634.736,1509.649,1638.898,1509.649z"/>
				</g>
			</g>
			<g>
				<g>
					<path style="fill:#040156;" d="M1638.898,1512.971c2.326,0,4.213,1.887,4.213,4.214c0,2.327-1.886,4.213-4.213,4.213
						c-2.327,0-4.214-1.885-4.214-4.213C1634.684,1514.858,1636.571,1512.971,1638.898,1512.971z"/>
				</g>
			</g>
			<g>
				<g>
					
						<rect x="1587.584" y="1494.81" transform="matrix(-1.836970e-16 1 -1 -1.836970e-16 3115.553 -80.8522)" style="fill:#D9E7FF;" width="21.237" height="45.081"/>
				</g>
			</g>
		</g>
		<g>
			<g>
				<g>
					<g>
						<polygon style="fill:#667BFF;" points="1524.721,1311.296 1563.172,1280.337 1620.224,1287.312 1620.224,1311.296 						"/>
					</g>
				</g>
				<g>
					<g>
						
							<rect x="1499.792" y="1248.063" transform="matrix(-1.836970e-16 1 -1 -1.836970e-16 2811.2358 -219.6047)" style="fill:#FF8B85;" width="31.257" height="95.505"/>
					</g>
				</g>
				<g>
					<g>
						<path style="fill:#D9E7FF;" d="M1551.243,1290.95c2.729,0,4.942,2.212,4.942,4.941c0,2.728-2.213,4.941-4.942,4.941
							s-4.941-2.213-4.941-4.941C1546.302,1293.162,1548.514,1290.95,1551.243,1290.95z"/>
					</g>
				</g>
				<g>
					<g>
						<path style="fill:#040156;" d="M1551.243,1293.128c1.526,0,2.763,1.237,2.763,2.763c0,1.526-1.237,2.762-2.763,2.762
							c-1.525,0-2.762-1.237-2.762-2.762C1548.481,1294.364,1549.719,1293.128,1551.243,1293.128z"/>
					</g>
				</g>
				<g>
					<g>
						
							<rect x="1517.597" y="1281.219" transform="matrix(-1.836970e-16 1 -1 -1.836970e-16 2820.5588 -228.5611)" style="fill:#D9E7FF;" width="13.925" height="29.559"/>
					</g>
				</g>
			</g>
			<g>
				<g>
					<g>
						<rect x="1473.403" y="1341.952" style="fill:#E6EFFF;" width="94.648" height="30.509"/>
					</g>
				</g>
				<g>
					<g>
						<g>
							<rect x="1568.051" y="1341.952" style="fill:#AEC6E9;" width="94.648" height="30.509"/>
						</g>
					</g>
					<g>
						<g>
							<rect x="1473.405" y="1356.876" style="fill:#AEC6E9;" width="23.619" height="0.662"/>
						</g>
					</g>
					<g>
						<g>
							<rect x="1502.812" y="1347.489" style="fill:#AEC6E9;" width="65.239" height="0.662"/>
						</g>
					</g>
					<g>
						<g>
							<rect x="1473.405" y="1365.089" style="fill:#AEC6E9;" width="41.756" height="0.663"/>
						</g>
					</g>
				</g>
			</g>
			<g>
				<g>
					<g>
						<rect x="1444.048" y="1311.444" style="fill:#F3F8FF;" width="94.648" height="30.508"/>
					</g>
				</g>
				<g>
					<g>
						<g>
							<rect x="1538.696" y="1311.444" style="fill:#B6C9FA;" width="94.648" height="30.508"/>
						</g>
					</g>
					<g>
						<g>
							<rect x="1444.048" y="1326.368" style="fill:#AEC6E9;" width="23.62" height="0.662"/>
						</g>
					</g>
					<g>
						<g>
							<rect x="1473.457" y="1316.981" style="fill:#AEC6E9;" width="65.239" height="0.662"/>
						</g>
					</g>
					<g>
						<g>
							<rect x="1444.048" y="1334.581" style="fill:#AEC6E9;" width="41.757" height="0.662"/>
						</g>
					</g>
				</g>
			</g>
		</g>
	</g>
	<g>
		<g>
			<g>
				
					<ellipse transform="matrix(0.8766 -0.4812 0.4812 0.8766 -102.7587 1001.1957)" style="fill:#80B5FA;" cx="1900.833" cy="700.965" rx="97.798" ry="97.798"/>
			</g>
		</g>
		<g>
			<g>
				<path style="fill:#FFFFFF;" d="M1976.732,700.25c0-42.966-34.83-77.797-77.797-77.797c-42.966,0-77.796,34.831-77.796,77.797
					c0,42.965,34.83,77.796,77.796,77.796C1941.902,778.046,1976.732,743.215,1976.732,700.25z"/>
			</g>
		</g>
		<g>
			<g>
				<path style="fill:#6E9AF4;" d="M1907.552,699.472c0-4.81-3.9-8.71-8.71-8.71s-8.709,3.9-8.709,8.71
					c0,4.81,3.899,8.709,8.709,8.709S1907.552,704.282,1907.552,699.472z"/>
			</g>
		</g>
		<g>
			<g>
				<path style="fill:#6E9AF4;" d="M1898.842,701.201h-1.741c-0.955,0-1.729-0.773-1.729-1.728c0-0.956,0.774-1.729,1.729-1.729
					h0.017l0.08-53.676l-2.161,3.131c-0.547,0.787-1.624,0.978-2.402,0.442c-0.783-0.542-0.983-1.619-0.44-2.404l5.322-7.714
					c0.428-0.626,1.211-0.896,1.937-0.669c0.723,0.225,1.212,0.895,1.212,1.653l-0.095,60.969
					C1900.57,700.428,1899.795,701.201,1898.842,701.201z"/>
			</g>
		</g>
		<g>
			<g>
				<path style="fill:#6E9AF4;" d="M1904.814,647.449c-0.5,0-1-0.218-1.34-0.637l-5.877-7.216c-0.604-0.741-0.493-1.83,0.25-2.432
					c0.735-0.601,1.826-0.493,2.43,0.247l5.877,7.216c0.604,0.741,0.494,1.83-0.25,2.432
					C1905.584,647.322,1905.199,647.449,1904.814,647.449z"/>
			</g>
		</g>
		<g>
			<g>
				<path style="fill:#6E9AF4;" d="M1867.521,706.8c-0.452,0-0.905-0.177-1.243-0.528l-5.135-5.319
					c-0.482-0.5-0.621-1.239-0.347-1.877c0.27-0.638,0.898-1.052,1.589-1.052h0.004l40.561,0.094
					c0.954,0.001,1.726,0.775,1.726,1.728v1.742c0,0.954-0.773,1.728-1.729,1.728c-0.955,0-1.728-0.774-1.728-1.728v-0.017
					l-34.752-0.079l2.296,2.38c0.665,0.687,0.645,1.781-0.04,2.444C1868.385,706.64,1867.953,706.8,1867.521,706.8z"/>
			</g>
		</g>
		<g>
			<g>
				<path style="fill:#6E9AF4;" d="M1862.386,701.482c-0.384,0-0.773-0.129-1.093-0.39c-0.74-0.603-0.848-1.693-0.247-2.432
					l4.801-5.879c0.61-0.742,1.698-0.845,2.434-0.245c0.739,0.605,0.847,1.693,0.246,2.433l-4.801,5.879
					C1863.381,701.266,1862.885,701.482,1862.386,701.482z"/>
			</g>
		</g>
	</g>
	<g>
		<g>
			<g>
				<g>
					<path style="fill:#4250F0;" d="M1513.701,974.553h133.4v3.842h-68.441c-6.897,0-12.487,5.591-12.487,12.488l0,0
						c0,6.896,5.59,12.486,12.487,12.486h68.441v3.603h-133.4c-8.952,0-16.209-7.258-16.209-16.21l0,0
						C1497.492,981.811,1504.749,974.553,1513.701,974.553z"/>
				</g>
			</g>
			<g>
				<g>
					<path style="fill:#2E46D7;" d="M1560.089,990.763L1560.089,990.763c0-8.952,7.256-16.21,16.21-16.21h70.802v3.842h-68.441
						c-6.897,0-12.487,5.591-12.487,12.488l0,0c0,6.896,5.59,12.486,12.487,12.486h68.441v3.603h-70.802
						C1567.345,1006.973,1560.089,999.715,1560.089,990.763z"/>
				</g>
			</g>
			<g>
				<g>
					<path style="fill:#FFFFFF;" d="M1578.66,978.41h68.441v0.085c-6.218,0.714-11.046,5.993-11.046,12.402l0,0
						c0,6.409,4.828,11.688,11.046,12.402v0.086h-68.441c-6.897,0-12.487-5.591-12.487-12.488l0,0
						C1566.173,984,1571.763,978.41,1578.66,978.41z"/>
				</g>
			</g>
			<g>
				<g>
					<path style="fill:#A0C7FA;" d="M1566.173,990.763c0-6.896,5.59-12.487,12.487-12.487h68.441v0.085
						c-3.215,0.37-6.055,1.961-8.053,4.296c-13.689-1.084-54.516-2.348-58.818,20.593h-1.571
						C1571.763,1003.25,1566.173,997.66,1566.173,990.763z"/>
				</g>
			</g>
		</g>
		<g>
			<g>
				<g>
					<path style="fill:#FF4646;" d="M1625.49,1006.973h-139.785v4.41h71.716c7.227,0,13.085,6.417,13.085,14.334l0,0
						c0,7.917-5.858,14.335-13.085,14.335h-71.716v4.134h139.785c9.381,0,16.984-8.33,16.984-18.607l0,0
						C1642.474,1015.304,1634.871,1006.973,1625.49,1006.973z"/>
				</g>
			</g>
			<g>
				<g>
					<path style="fill:#FF5E55;" d="M1576.881,1025.579L1576.881,1025.579c0-10.276-7.605-18.606-16.985-18.606h-74.191v4.41h71.716
						c7.227,0,13.085,6.417,13.085,14.334l0,0c0,7.917-5.858,14.335-13.085,14.335h-71.716v4.134h74.191
						C1569.276,1044.187,1576.881,1035.856,1576.881,1025.579z"/>
				</g>
			</g>
			<g>
				<g>
					<path style="fill:#FFFFFF;" d="M1557.421,1011.399h-71.716v0.097c6.516,0.821,11.575,6.881,11.575,14.237l0,0
						c0,7.357-5.06,13.417-11.575,14.236v0.098h71.716c7.227,0,13.085-6.418,13.085-14.334l0,0
						C1570.506,1017.816,1564.648,1011.399,1557.421,1011.399z"/>
				</g>
			</g>
			<g>
				<g>
					<path style="fill:#A0C7FA;" d="M1570.506,1025.579c0-7.916-5.858-14.333-13.085-14.333h-71.716v0.097
						c3.368,0.424,6.346,2.251,8.438,4.931c14.345-1.244,57.125-2.694,61.632,23.639h1.646
						C1564.648,1039.914,1570.506,1033.497,1570.506,1025.579z"/>
				</g>
			</g>
		</g>
	</g>
	<g>
		<g>
			<g>
				<g>
					<g>
						<rect x="967.602" y="1257.784" style="fill:#010131;" width="42.86" height="39.043"/>
					</g>
				</g>
				<g>
					<g>
						<rect x="891.617" y="1126.135" style="fill:#010131;" width="18.649" height="82.703"/>
					</g>
				</g>
				<g>
					<g>
						<path style="fill:#0B0B78;" d="M1106.41,1260.084H821.773c-9.569,0-17.327-7.757-17.327-17.327v-34.677
							c0-9.57,7.758-17.328,17.328-17.328h284.635c9.57,0,17.328,7.758,17.328,17.328v34.676
							C1123.737,1252.326,1115.979,1260.084,1106.41,1260.084z"/>
					</g>
				</g>
				<g>
					<g>
						<path style="fill:#010131;" d="M1185.365,1260.084H994.894c-7.929,0-14.357-6.428-14.357-14.357v-40.617
							c0-7.929,6.428-14.357,14.357-14.357h190.471c7.929,0,14.356,6.427,14.356,14.356v40.619
							C1199.721,1253.656,1193.294,1260.084,1185.365,1260.084z"/>
					</g>
				</g>
				<g>
					<g>
						<g>
							<path style="fill:#0B0B78;" d="M968.53,1141.398H830.13c-14.106,0-25.54-11.435-25.54-25.54V873.843
								c0-14.106,11.435-25.54,25.54-25.54h138.402c14.105,0,25.54,11.435,25.54,25.54v242.016
								C994.071,1129.963,982.636,1141.398,968.53,1141.398z"/>
						</g>
					</g>
					<g>
						<g>
							<path style="fill:#010131;" d="M1017.739,1141.398H879.339c-14.105,0-25.54-11.435-25.54-25.54V873.842
								c0-14.105,11.434-25.54,25.54-25.54h138.401c14.106,0,25.54,11.435,25.54,25.54v242.015
								C1043.28,1129.963,1031.845,1141.398,1017.739,1141.398z"/>
						</g>
					</g>
				</g>
				<g>
					<g>
						<rect x="979.709" y="1260.083" style="fill:#010131;" width="18.647" height="250.302"/>
					</g>
				</g>
				<g>
					<g>
						<path style="fill:#010131;" d="M896.529,1515.699h185.408c3.091,0,5.595-2.38,5.595-5.314c0-2.934-2.505-5.313-5.595-5.313
							H896.529c-3.091,0-5.594,2.379-5.594,5.313C890.935,1513.319,893.437,1515.699,896.529,1515.699z"/>
					</g>
				</g>
				<g>
					<g>
						<ellipse style="fill:#010131;" cx="1067.688" cy="1526.728" rx="13.629" ry="12.945"/>
					</g>
				</g>
				<g>
					<g>
						<path style="fill:#010131;" d="M900.55,1526.728c0-7.149,6.102-12.945,13.627-12.945c7.528,0,13.628,5.796,13.628,12.945
							c0,7.15-6.101,12.945-13.628,12.945C906.652,1539.673,900.55,1533.878,900.55,1526.728z"/>
					</g>
				</g>
				<g>
					<g>
						<path style="fill:#010131;" d="M975.405,1526.728c0-7.149,6.101-12.945,13.628-12.945c7.524,0,13.628,5.796,13.628,12.945
							c0,7.15-6.104,12.945-13.628,12.945C981.506,1539.673,975.405,1533.878,975.405,1526.728z"/>
					</g>
				</g>
			</g>
			<g>
				<g>
					<path style="fill:#01011C;" d="M925.445,702.691c0,0-37.072,7.775-32.835,40.81c3.683,28.716,27.064,49.568,49.664,44.884
						c22.599-4.684,32.174-17.013,32.01-35.507C974.119,734.384,925.445,702.691,925.445,702.691z"/>
				</g>
				<g>
					<g>
						<path style="fill:#FFA088;" d="M1287.236,1523.086c0.218,0.26,0.435,0.518,0.65,0.777
							C1287.671,1523.604,1287.454,1523.345,1287.236,1523.086z"/>
					</g>
					<g>
						<path style="fill:#FFA088;" d="M1292.836,1530.005c0.289,0.375,0.573,0.748,0.851,1.118
							C1293.409,1530.752,1293.125,1530.38,1292.836,1530.005z"/>
					</g>
					<g>
						<path style="fill:#FFA088;" d="M1293.971,1531.502c0.217,0.29,0.43,0.578,0.639,0.864
							C1294.4,1532.08,1294.188,1531.792,1293.971,1531.502z"/>
					</g>
					<g>
						<path style="fill:#FFA088;" d="M1290.639,1527.215c0.305,0.379,0.605,0.756,0.901,1.13
							C1291.244,1527.971,1290.944,1527.594,1290.639,1527.215z"/>
					</g>
					<g>
						<path style="fill:#FFA088;" d="M1288.282,1524.336c0.316,0.38,0.627,0.757,0.937,1.134
							C1288.909,1525.093,1288.598,1524.716,1288.282,1524.336z"/>
					</g>
					<g>
						<path style="fill:#FFA088;" d="M1289.616,1525.955c0.23,0.281,0.457,0.561,0.683,0.84
							C1290.073,1526.516,1289.846,1526.236,1289.616,1525.955z"/>
					</g>
					<g>
						<path style="fill:#FFA088;" d="M1291.875,1528.771c0.229,0.291,0.455,0.581,0.679,0.869
							C1292.33,1529.352,1292.104,1529.062,1291.875,1528.771z"/>
					</g>
					<g>
						<path style="fill:#FFA088;" d="M1298.219,1537.74c0.203,0.339,0.397,0.673,0.583,1.003
							C1298.617,1538.413,1298.422,1538.079,1298.219,1537.74z"/>
					</g>
					<g>
						<path style="fill:#FFA088;" d="M1297.528,1536.62c0.178,0.281,0.35,0.559,0.518,0.834
							C1297.879,1537.179,1297.706,1536.901,1297.528,1536.62z"/>
					</g>
					<g>
						<path style="fill:#FFA088;" d="M1295.862,1534.119c0.201,0.288,0.397,0.574,0.588,0.857
							C1296.259,1534.693,1296.063,1534.407,1295.862,1534.119z"/>
					</g>
					<g>
						<path style="fill:#FFA088;" d="M1299.5,1540.045c0.162,0.32,0.316,0.634,0.459,0.943
							C1299.817,1540.679,1299.663,1540.365,1299.5,1540.045z"/>
					</g>
					<g>
						<path style="fill:#FFA088;" d="M1296.662,1535.288c0.237,0.354,0.467,0.705,0.69,1.052
							C1297.129,1535.994,1296.899,1535.643,1296.662,1535.288z"/>
					</g>
					<g>
						<path style="fill:#FFA088;" d="M1294.856,1532.703c0.267,0.368,0.527,0.732,0.781,1.094
							C1295.383,1533.435,1295.123,1533.071,1294.856,1532.703z"/>
					</g>
					<g>
						<path style="fill:#FFA088;" d="M1210.065,1505.124c0.015-0.066,0.028-0.127,0.043-0.195
							C1210.093,1504.997,1210.08,1505.058,1210.065,1505.124z"/>
					</g>
					<g>
						<path style="fill:#FFA088;" d="M1286.051,1521.683c0.231,0.272,0.462,0.544,0.69,0.815
							C1286.513,1522.227,1286.282,1521.955,1286.051,1521.683z"/>
					</g>
					<g>
						<path style="fill:#FFA088;" d="M1210.378,1503.752c0.015-0.064,0.031-0.132,0.047-0.198
							C1210.409,1503.62,1210.393,1503.688,1210.378,1503.752z"/>
					</g>
					<g>
						<path style="fill:#FFA088;" d="M1210.712,1502.351c0.013-0.056,0.026-0.11,0.04-0.167
							C1210.738,1502.24,1210.725,1502.295,1210.712,1502.351z"/>
					</g>
					<g>
						<path style="fill:#FFA088;" d="M1214.85,1513.703c-0.224-0.178-0.438-0.353-0.649-0.526
							C1214.411,1513.35,1214.626,1513.525,1214.85,1513.703z"/>
					</g>
					<g>
						<path style="fill:#FFA088;" d="M1209.833,1506.221c0.016-0.079,0.033-0.161,0.05-0.242
							C1209.866,1506.06,1209.848,1506.142,1209.833,1506.221z"/>
					</g>
					<g>
						<path style="fill:#FFA088;" d="M1284.76,1520.17c0.174,0.203,0.347,0.406,0.521,0.609
							C1285.108,1520.576,1284.934,1520.373,1284.76,1520.17z"/>
					</g>
					<g>
						<path style="fill:#FFA088;" d="M1283.746,1518.99c0.132,0.153,0.265,0.307,0.396,0.46
							C1284.01,1519.296,1283.878,1519.143,1283.746,1518.99z"/>
					</g>
					<g>
						<path style="fill:#FFA088;" d="M1282.259,1517.27c0.068,0.078,0.136,0.157,0.203,0.235
							C1282.395,1517.427,1282.327,1517.348,1282.259,1517.27z"/>
					</g>
					<g>
						<path style="fill:#FFA088;" d="M1267.894,1541.808c-1.988-0.809-4.012-1.658-6.053-2.54
							C1263.882,1540.149,1265.905,1540.999,1267.894,1541.808z"/>
					</g>
					<g>
						<path style="fill:#FFA088;" d="M1259.161,1538.094c-1.159-0.513-2.321-1.033-3.484-1.562
							C1256.84,1537.062,1258.002,1537.582,1259.161,1538.094z"/>
					</g>
					<g>
						<path style="fill:#FFA088;" d="M1298.933,1538.98c0.15,0.271,0.293,0.538,0.431,0.802
							C1299.226,1539.518,1299.083,1539.25,1298.933,1538.98z"/>
					</g>
					<g>
						<path style="fill:#FFA088;" d="M1301.355,1545.904c0.008,0.241,0.008,0.477-0.01,0.704
							C1301.363,1546.38,1301.364,1546.144,1301.355,1545.904z"/>
					</g>
					<g>
						<path style="fill:#FFA088;" d="M1301.205,1547.447c-0.053,0.209-0.116,0.413-0.197,0.607
							C1301.089,1547.86,1301.152,1547.656,1301.205,1547.447z"/>
					</g>
					<g>
						<path style="fill:#FFA088;" d="M1301.336,1546.683c-0.019,0.204-0.051,0.401-0.092,0.594
							C1301.285,1547.085,1301.317,1546.887,1301.336,1546.683z"/>
					</g>
					<g>
						<path style="fill:#FFA088;" d="M1300.836,1543.21c0.078,0.243,0.147,0.481,0.208,0.715
							C1300.983,1543.691,1300.914,1543.453,1300.836,1543.21z"/>
					</g>
					<g>
						<path style="fill:#FFA088;" d="M1301.276,1545.05c0.033,0.225,0.055,0.444,0.068,0.658
							C1301.331,1545.493,1301.309,1545.275,1301.276,1545.05z"/>
					</g>
					<g>
						<path style="fill:#FFA088;" d="M1301.1,1544.144c0.065,0.27,0.121,0.535,0.162,0.792
							C1301.221,1544.679,1301.165,1544.414,1301.1,1544.144z"/>
					</g>
					<g>
						<path style="fill:#FFA088;" d="M1300.989,1548.092c-0.079,0.182-0.174,0.355-0.279,0.524
							C1300.814,1548.448,1300.91,1548.274,1300.989,1548.092z"/>
					</g>
					<g>
						<path style="fill:#FFA088;" d="M1269.87,1542.603c13.087,5.207,24.361,8.489,28.818,7.433
							C1294.23,1551.091,1282.956,1547.809,1269.87,1542.603z"/>
					</g>
					<g>
						<path style="fill:#FFA088;" d="M1276.567,1510.742c-4.906-5.627-9.698-11.194-13.47-16.218
							c-11.454-15.257-11.022-42.976-10.304-54.217l-32.14-0.182c0.988,14.245-2.902,33.24-6.362,47.715
							C1249.568,1521.386,1268.978,1515.77,1276.567,1510.742z"/>
					</g>
					<g>
						<path style="fill:#FFA088;" d="M1300.618,1548.756c-0.119,0.173-0.247,0.341-0.397,0.498
							C1300.37,1549.097,1300.499,1548.929,1300.618,1548.756z"/>
					</g>
					<g>
						<path style="fill:#FFA088;" d="M1300.045,1541.179c0.117,0.259,0.227,0.515,0.329,0.766
							C1300.271,1541.694,1300.162,1541.438,1300.045,1541.179z"/>
					</g>
					<g>
						<path style="fill:#FFA088;" d="M1300.471,1542.185c0.116,0.296,0.224,0.588,0.318,0.873
							C1300.695,1542.773,1300.587,1542.481,1300.471,1542.185z"/>
					</g>
					<g>
						<path style="fill:#FF4646;" d="M1261.84,1539.267c-0.89-0.385-1.784-0.777-2.679-1.173
							C1260.057,1538.49,1260.95,1538.883,1261.84,1539.267z"/>
					</g>
					<g>
						<path style="fill:#FF4646;" d="M1299.959,1540.988c0.03,0.064,0.056,0.127,0.085,0.191
							C1300.016,1541.115,1299.989,1541.053,1299.959,1540.988z"/>
					</g>
					<g>
						<path style="fill:#FF4646;" d="M1300.709,1548.616c-0.029,0.047-0.06,0.094-0.092,0.14
							C1300.649,1548.71,1300.68,1548.663,1300.709,1548.616z"/>
					</g>
					<g>
						<path style="fill:#FF4646;" d="M1276.568,1510.742C1276.568,1510.742,1276.567,1510.742,1276.568,1510.742
							c1.897,2.177,3.812,4.362,5.691,6.528C1280.379,1515.103,1278.465,1512.918,1276.568,1510.742z"/>
					</g>
					<g>
						<path style="fill:#FF4646;" d="M1251.558,1534.625c-14.908-7.017-29.287-15.025-36.708-20.921
							C1222.271,1519.6,1236.65,1527.607,1251.558,1534.625z"/>
					</g>
					<g>
						<path style="fill:#FF4646;" d="M1298.046,1537.454c0.058,0.095,0.117,0.191,0.173,0.286
							C1298.163,1537.645,1298.104,1537.549,1298.046,1537.454z"/>
					</g>
					<g>
						<path style="fill:#FF4646;" d="M1301.244,1547.277c-0.012,0.057-0.025,0.114-0.039,0.169
							C1301.219,1547.391,1301.232,1547.334,1301.244,1547.277z"/>
					</g>
					<g>
						<path style="fill:#FF4646;" d="M1282.462,1517.505c0.43,0.496,0.858,0.991,1.283,1.485
							C1283.32,1518.496,1282.892,1518.001,1282.462,1517.505z"/>
					</g>
					<g>
						<path style="fill:#FF4646;" d="M1301.008,1548.054c-0.006,0.013-0.013,0.025-0.019,0.038
							C1300.995,1548.079,1301.002,1548.067,1301.008,1548.054z"/>
					</g>
					<g>
						<path style="fill:#FF4646;" d="M1284.142,1519.45c0.207,0.24,0.413,0.48,0.618,0.72
							C1284.555,1519.93,1284.349,1519.69,1284.142,1519.45z"/>
					</g>
					<g>
						<path style="fill:#FF4646;" d="M1299.364,1539.782c0.046,0.088,0.093,0.176,0.137,0.263
							C1299.456,1539.958,1299.409,1539.87,1299.364,1539.782z"/>
					</g>
					<g>
						<path style="fill:#FF4646;" d="M1210.424,1503.554c0.091-0.385,0.186-0.785,0.287-1.204
							C1210.611,1502.768,1210.515,1503.17,1210.424,1503.554z"/>
					</g>
					<g>
						<path style="fill:#FF4646;" d="M1298.802,1538.743c0.045,0.08,0.087,0.158,0.13,0.237
							C1298.889,1538.901,1298.847,1538.822,1298.802,1538.743z"/>
					</g>
					<g>
						<path style="fill:#FF4646;" d="M1210.108,1504.93c0.083-0.371,0.173-0.764,0.27-1.178
							C1210.281,1504.165,1210.191,1504.558,1210.108,1504.93z"/>
					</g>
					<g>
						<path style="fill:#FF4646;" d="M1300.221,1549.254c-0.002,0.002-0.003,0.004-0.005,0.006c-0.345,0.362-0.86,0.618-1.529,0.776
							c0.669-0.158,1.184-0.414,1.529-0.776C1300.218,1549.258,1300.219,1549.256,1300.221,1549.254z"/>
					</g>
					<g>
						<path style="fill:#FF4646;" d="M1209.664,1507.103c0.047-0.268,0.105-0.567,0.169-0.882
							C1209.769,1506.535,1209.711,1506.835,1209.664,1507.103c-0.249,1.418,1.454,3.533,4.537,6.074
							C1211.119,1510.636,1209.415,1508.521,1209.664,1507.103z"/>
					</g>
					<g>
						<path style="fill:#FF4646;" d="M1214.291,1487.84c-1.353,5.661-2.638,10.624-3.539,14.344
							C1211.653,1498.467,1212.939,1493.497,1214.291,1487.84L1214.291,1487.84z"/>
					</g>
					<g>
						<path style="fill:#FF4646;" d="M1209.882,1505.979c0.056-0.27,0.117-0.555,0.183-0.855
							C1209.999,1505.424,1209.938,1505.709,1209.882,1505.979z"/>
					</g>
					<g>
						<path style="fill:#FF4646;" d="M1301.262,1544.936c0.006,0.038,0.009,0.075,0.015,0.113
							C1301.271,1545.011,1301.268,1544.975,1301.262,1544.936z"/>
					</g>
					<g>
						<path style="fill:#FF4646;" d="M1292.554,1529.64c0.094,0.121,0.189,0.244,0.282,0.365
							C1292.743,1529.884,1292.648,1529.761,1292.554,1529.64z"/>
					</g>
					<g>
						<path style="fill:#FF4646;" d="M1296.45,1534.976c0.071,0.104,0.142,0.209,0.211,0.313
							C1296.593,1535.185,1296.521,1535.08,1296.45,1534.976z"/>
					</g>
					<g>
						<path style="fill:#FF4646;" d="M1295.637,1533.796c0.076,0.108,0.15,0.215,0.225,0.323
							C1295.787,1534.011,1295.713,1533.905,1295.637,1533.796z"/>
					</g>
					<g>
						<path style="fill:#FF4646;" d="M1293.687,1531.123c0.096,0.127,0.189,0.253,0.284,0.38
							C1293.876,1531.376,1293.783,1531.25,1293.687,1531.123z"/>
					</g>
					<g>
						<path style="fill:#FF4646;" d="M1300.789,1543.058c0.017,0.051,0.031,0.101,0.047,0.152
							C1300.82,1543.159,1300.806,1543.109,1300.789,1543.058z"/>
					</g>
					<g>
						<path style="fill:#FF4646;" d="M1291.54,1528.345c0.113,0.142,0.224,0.283,0.335,0.425
							C1291.764,1528.629,1291.653,1528.488,1291.54,1528.345z"/>
					</g>
					<g>
						<path style="fill:#FF4646;" d="M1294.61,1532.366c0.082,0.112,0.165,0.225,0.246,0.336
							C1294.775,1532.591,1294.692,1532.479,1294.61,1532.366z"/>
					</g>
					<g>
						<path style="fill:#FF4646;" d="M1301.044,1543.925c0.019,0.073,0.039,0.147,0.056,0.219
							C1301.083,1544.072,1301.063,1543.999,1301.044,1543.925z"/>
					</g>
					<g>
						<path style="fill:#FF4646;" d="M1301.345,1546.607c-0.002,0.026-0.007,0.05-0.009,0.076
							C1301.338,1546.657,1301.343,1546.633,1301.345,1546.607z"/>
					</g>
					<g>
						<path style="fill:#FF4646;" d="M1285.281,1520.779c0.258,0.302,0.515,0.604,0.77,0.905
							C1285.796,1521.382,1285.539,1521.081,1285.281,1520.779z"/>
					</g>
					<g>
						<path style="fill:#FF4646;" d="M1286.742,1522.498c0.166,0.196,0.33,0.392,0.495,0.588
							C1287.072,1522.89,1286.907,1522.694,1286.742,1522.498z"/>
					</g>
					<g>
						<path style="fill:#FF4646;" d="M1290.299,1526.796c0.113,0.14,0.227,0.28,0.339,0.419
							C1290.526,1527.076,1290.412,1526.935,1290.299,1526.796z"/>
					</g>
					<g>
						<path style="fill:#FF4646;" d="M1287.887,1523.862c0.132,0.158,0.265,0.316,0.395,0.474
							C1288.151,1524.179,1288.019,1524.02,1287.887,1523.862z"/>
					</g>
					<g>
						<path style="fill:#FF4646;" d="M1300.374,1541.945c0.033,0.08,0.066,0.161,0.097,0.24
							C1300.44,1542.106,1300.406,1542.026,1300.374,1541.945z"/>
					</g>
					<g>
						<path style="fill:#FF4646;" d="M1297.351,1536.34c0.06,0.094,0.118,0.186,0.177,0.279
							C1297.469,1536.526,1297.412,1536.434,1297.351,1536.34z"/>
					</g>
					<g>
						<path style="fill:#FF4646;" d="M1301.344,1545.708c0.004,0.066,0.008,0.131,0.011,0.196
							C1301.353,1545.839,1301.349,1545.774,1301.344,1545.708z"/>
					</g>
					<g>
						<path style="fill:#FF4646;" d="M1289.219,1525.47c0.133,0.162,0.265,0.324,0.397,0.486
							C1289.484,1525.794,1289.352,1525.632,1289.219,1525.47z"/>
					</g>
					<g>
						<path style="fill:#FF4646;" d="M1300.221,1549.254c0.149-0.157,0.278-0.325,0.397-0.498c0.032-0.046,0.062-0.093,0.092-0.14
							c0.105-0.168,0.201-0.342,0.279-0.524c0.006-0.013,0.013-0.025,0.019-0.038c0.082-0.194,0.144-0.398,0.197-0.607
							c0.014-0.056,0.027-0.113,0.039-0.169c0.041-0.193,0.073-0.39,0.092-0.594c0.002-0.026,0.007-0.05,0.009-0.076
							c0.018-0.227,0.018-0.463,0.01-0.704c-0.002-0.065-0.006-0.13-0.011-0.196c-0.013-0.215-0.035-0.433-0.068-0.658
							c-0.005-0.038-0.008-0.075-0.015-0.113c-0.041-0.257-0.097-0.522-0.162-0.792c-0.017-0.072-0.037-0.146-0.056-0.219
							c-0.061-0.234-0.13-0.473-0.208-0.715c-0.016-0.051-0.03-0.101-0.047-0.152c-0.095-0.285-0.202-0.576-0.318-0.873
							c-0.031-0.079-0.065-0.16-0.097-0.24c-0.103-0.251-0.212-0.507-0.329-0.766c-0.029-0.064-0.055-0.126-0.085-0.191
							c-0.143-0.309-0.297-0.624-0.459-0.943c-0.044-0.087-0.091-0.175-0.137-0.263c-0.137-0.264-0.281-0.531-0.431-0.802
							c-0.044-0.079-0.086-0.157-0.13-0.237c-0.186-0.329-0.38-0.664-0.583-1.003c-0.057-0.094-0.116-0.19-0.173-0.286
							c-0.167-0.275-0.34-0.553-0.518-0.834c-0.059-0.093-0.117-0.186-0.177-0.279c-0.222-0.346-0.452-0.697-0.69-1.052
							c-0.069-0.103-0.141-0.208-0.211-0.313c-0.192-0.283-0.388-0.569-0.588-0.857c-0.075-0.107-0.149-0.214-0.225-0.323
							c-0.254-0.361-0.514-0.726-0.781-1.094c-0.081-0.111-0.164-0.224-0.246-0.336c-0.209-0.286-0.422-0.574-0.639-0.864
							c-0.095-0.126-0.188-0.252-0.284-0.38c-0.279-0.37-0.562-0.743-0.851-1.118c-0.093-0.121-0.188-0.243-0.282-0.365
							c-0.224-0.288-0.45-0.578-0.679-0.869c-0.111-0.142-0.222-0.283-0.335-0.425c-0.296-0.375-0.597-0.751-0.901-1.13
							c-0.112-0.139-0.226-0.28-0.339-0.419c-0.226-0.279-0.453-0.559-0.683-0.84c-0.132-0.162-0.264-0.323-0.397-0.486
							c-0.309-0.376-0.621-0.754-0.937-1.134c-0.131-0.157-0.263-0.316-0.395-0.474c-0.215-0.258-0.432-0.517-0.65-0.777
							c-0.164-0.196-0.329-0.391-0.495-0.588c-0.229-0.271-0.459-0.543-0.69-0.815c-0.255-0.301-0.512-0.602-0.77-0.905
							c-0.173-0.203-0.347-0.406-0.521-0.609c-0.206-0.24-0.411-0.48-0.618-0.72c-0.132-0.153-0.264-0.307-0.396-0.46
							c-0.426-0.494-0.853-0.989-1.283-1.485c-0.068-0.078-0.136-0.157-0.203-0.235c-1.879-2.166-3.794-4.352-5.692-6.528
							c-7.589,5.028-26.999,10.644-62.276-22.902c-1.353,5.657-2.638,10.628-3.539,14.344c-0.014,0.056-0.027,0.111-0.04,0.167
							c-0.101,0.418-0.197,0.818-0.287,1.204c-0.015,0.065-0.032,0.134-0.047,0.198c-0.097,0.414-0.187,0.806-0.27,1.178
							c-0.015,0.067-0.028,0.129-0.043,0.195c-0.066,0.3-0.127,0.585-0.183,0.855c-0.017,0.081-0.034,0.163-0.05,0.242
							c-0.064,0.314-0.122,0.614-0.169,0.882c-0.249,1.418,1.455,3.533,4.537,6.074c0.211,0.174,0.425,0.349,0.649,0.526
							c7.421,5.896,21.8,13.904,36.708,20.921c1.37,0.645,2.745,1.282,4.119,1.907c1.163,0.53,2.325,1.05,3.484,1.562
							c0.895,0.396,1.789,0.788,2.679,1.173c2.042,0.882,4.065,1.731,6.053,2.54c0.663,0.27,1.322,0.535,1.976,0.795
							c13.086,5.207,24.361,8.489,28.818,7.433c0.668-0.158,1.184-0.414,1.529-0.776
							C1300.218,1549.258,1300.219,1549.256,1300.221,1549.254z"/>
					</g>
					<g>
						<path style="fill:#FFA088;" d="M1195.991,1543.514c0.229,0.307,0.454,0.611,0.676,0.914
							C1196.445,1544.125,1196.22,1543.821,1195.991,1543.514z"/>
					</g>
					<g>
						<path style="fill:#FFA088;" d="M1196.891,1544.735c0.271,0.374,0.535,0.744,0.793,1.11
							C1197.426,1545.479,1197.162,1545.109,1196.891,1544.735z"/>
					</g>
					<g>
						<path style="fill:#FFA088;" d="M1194.87,1542.035c0.297,0.386,0.588,0.768,0.874,1.148
							C1195.457,1542.803,1195.167,1542.421,1194.87,1542.035z"/>
					</g>
					<g>
						<path style="fill:#FFA088;" d="M1193.9,1540.791c0.241,0.306,0.479,0.611,0.714,0.914
							C1194.379,1541.402,1194.141,1541.097,1193.9,1540.791z"/>
					</g>
					<g>
						<path style="fill:#FFA088;" d="M1197.891,1546.143c0.209,0.3,0.413,0.597,0.612,0.891
							C1198.304,1546.74,1198.1,1546.443,1197.891,1546.143z"/>
					</g>
					<g>
						<path style="fill:#FFA088;" d="M1192.666,1539.239c0.313,0.39,0.622,0.777,0.927,1.162
							C1193.288,1540.016,1192.98,1539.629,1192.666,1539.239z"/>
					</g>
					<g>
						<path style="fill:#FFA088;" d="M1199.559,1548.644c0.184,0.291,0.363,0.579,0.536,0.863
							C1199.922,1549.222,1199.743,1548.934,1199.559,1548.644z"/>
					</g>
					<g>
						<path style="fill:#FFA088;" d="M1202.083,1553.214c0.119,0.262,0.229,0.521,0.333,0.775
							C1202.313,1553.735,1202.202,1553.477,1202.083,1553.214z"/>
					</g>
					<g>
						<path style="fill:#FFA088;" d="M1198.697,1547.32c0.241,0.36,0.475,0.716,0.7,1.068
							C1199.172,1548.037,1198.938,1547.681,1198.697,1547.32z"/>
					</g>
					<g>
						<path style="fill:#FFA088;" d="M1202.511,1554.224c0.117,0.297,0.225,0.59,0.319,0.876
							C1202.736,1554.814,1202.628,1554.521,1202.511,1554.224z"/>
					</g>
					<g>
						<path style="fill:#FFA088;" d="M1191.635,1537.969c0.25,0.306,0.498,0.611,0.743,0.914
							C1192.133,1538.58,1191.885,1538.275,1191.635,1537.969z"/>
					</g>
					<g>
						<path style="fill:#FFA088;" d="M1200.969,1551.01c0.153,0.276,0.3,0.549,0.44,0.819
							C1201.268,1551.56,1201.122,1551.287,1200.969,1551.01z"/>
					</g>
					<g>
						<path style="fill:#FFA088;" d="M1201.54,1552.082c0.163,0.321,0.318,0.638,0.462,0.948
							C1201.858,1552.72,1201.703,1552.403,1201.54,1552.082z"/>
					</g>
					<g>
						<path style="fill:#FFA088;" d="M1183.464,1528.349c0.006,0.006,0.011,0.013,0.017,0.019
							C1183.476,1528.362,1183.47,1528.355,1183.464,1528.349z"/>
					</g>
					<g>
						<path style="fill:#FFA088;" d="M1190.314,1536.365c0.325,0.39,0.645,0.778,0.963,1.165
							C1190.959,1537.144,1190.638,1536.756,1190.314,1536.365z"/>
					</g>
					<g>
						<path style="fill:#FFA088;" d="M1112.758,1514.367c0.01-0.041,0.02-0.082,0.03-0.123
							C1112.778,1514.286,1112.768,1514.326,1112.758,1514.367z"/>
					</g>
					<g>
						<path style="fill:#FFA088;" d="M1145.47,1542.714c21.99,11.037,47.905,21.104,55.259,19.363
							C1193.374,1563.818,1167.46,1553.751,1145.47,1542.714z"/>
					</g>
					<g>
						<path style="fill:#FFA088;" d="M1116.332,1499.88c35.277,33.546,54.687,27.931,62.276,22.902
							c-4.906-5.626-9.698-11.194-13.47-16.219c-9.366-12.475-10.784-33.283-10.598-46.601l-31.733-0.187
							C1122.379,1472.724,1119.205,1487.861,1116.332,1499.88z"/>
					</g>
					<g>
						<path style="fill:#FFA088;" d="M1112.421,1515.783c0.012-0.052,0.026-0.108,0.038-0.161
							C1112.446,1515.675,1112.433,1515.731,1112.421,1515.783z"/>
					</g>
					<g>
						<path style="fill:#FFA088;" d="M1189.241,1535.083c0.247,0.293,0.491,0.586,0.735,0.877
							C1189.732,1535.668,1189.487,1535.376,1189.241,1535.083z"/>
					</g>
					<g>
						<path style="fill:#FFA088;" d="M1187.875,1533.468c0.315,0.371,0.628,0.74,0.939,1.108
							C1188.503,1534.208,1188.191,1533.838,1187.875,1533.468z"/>
					</g>
					<g>
						<path style="fill:#FFA088;" d="M1185.548,1530.753c0.23,0.267,0.46,0.533,0.688,0.799
							C1186.007,1531.286,1185.778,1531.019,1185.548,1530.753z"/>
					</g>
					<g>
						<path style="fill:#FFA088;" d="M1186.747,1532.147c0.233,0.272,0.465,0.543,0.696,0.814
							C1187.212,1532.69,1186.98,1532.419,1186.747,1532.147z"/>
					</g>
					<g>
						<path style="fill:#FFA088;" d="M1184.23,1529.23c0.153,0.176,0.305,0.351,0.457,0.527
							C1184.535,1529.581,1184.383,1529.406,1184.23,1529.23z"/>
					</g>
					<g>
						<path style="fill:#FFA088;" d="M1200.257,1549.775c0.205,0.342,0.401,0.68,0.589,1.012
							C1200.659,1550.455,1200.462,1550.117,1200.257,1549.775z"/>
					</g>
					<g>
						<path style="fill:#FFA088;" d="M1203.396,1557.943c0.009,0.241,0.008,0.477-0.01,0.705
							C1203.404,1558.421,1203.405,1558.184,1203.396,1557.943z"/>
					</g>
					<g>
						<path style="fill:#FFA088;" d="M1121.028,1528.769c-2.962-2.024-5.357-3.894-6.977-5.513
							C1115.67,1524.875,1118.065,1526.745,1121.028,1528.769z"/>
					</g>
					<g>
						<path style="fill:#FFA088;" d="M1111.874,1518.262c0.016-0.079,0.033-0.161,0.05-0.243
							C1111.906,1518.101,1111.89,1518.183,1111.874,1518.262z"/>
					</g>
					<g>
						<path style="fill:#FFA088;" d="M1203.377,1558.722c-0.019,0.205-0.051,0.404-0.092,0.597
							C1203.326,1559.125,1203.358,1558.927,1203.377,1558.722z"/>
					</g>
					<g>
						<path style="fill:#FFA088;" d="M1203.246,1559.486c-0.053,0.21-0.116,0.414-0.198,0.608
							C1203.13,1559.9,1203.193,1559.696,1203.246,1559.486z"/>
					</g>
					<g>
						<path style="fill:#FFA088;" d="M1203.031,1560.131c-0.079,0.183-0.175,0.357-0.281,0.526
							C1202.856,1560.488,1202.951,1560.314,1203.031,1560.131z"/>
					</g>
					<g>
						<path style="fill:#FFA088;" d="M1203.317,1557.086c0.033,0.227,0.055,0.448,0.069,0.664
							C1203.372,1557.533,1203.35,1557.312,1203.317,1557.086z"/>
					</g>
					<g>
						<path style="fill:#FFA088;" d="M1202.659,1560.796c-0.119,0.173-0.248,0.341-0.397,0.499
							C1202.411,1561.137,1202.54,1560.969,1202.659,1560.796z"/>
					</g>
					<g>
						<path style="fill:#FFA088;" d="M1145.47,1542.714c-2.971-1.491-5.866-3-8.638-4.5
							C1139.604,1539.714,1142.499,1541.222,1145.47,1542.714z"/>
					</g>
					<g>
						<path style="fill:#FFA088;" d="M1135.175,1537.31c-5.149-2.832-9.802-5.611-13.583-8.158
							C1125.373,1531.699,1130.025,1534.478,1135.175,1537.31z"/>
					</g>
					<g>
						<path style="fill:#FFA088;" d="M1112.108,1517.155c0.013-0.061,0.026-0.117,0.039-0.179
							C1112.134,1517.038,1112.122,1517.095,1112.108,1517.155z"/>
					</g>
					<g>
						<path style="fill:#FFA088;" d="M1202.876,1555.247c0.078,0.245,0.148,0.485,0.209,0.721
							C1203.024,1555.732,1202.955,1555.492,1202.876,1555.247z"/>
					</g>
					<g>
						<path style="fill:#FFA088;" d="M1203.141,1556.183c0.065,0.271,0.121,0.537,0.162,0.795
							C1203.262,1556.72,1203.206,1556.454,1203.141,1556.183z"/>
					</g>
					<g>
						<path style="fill:#2B35BA;" d="M1270.529,1440.407c0,0,34.642-264.229-11.787-299.009
							c-46.429-34.781-172.539-62.153-172.539-62.153l-116.962-15.507c0,0,0,0,0,0c1.1,0.507,2.209,0.993,3.313,1.49
							c23.09,10.383,46.18,20.766,69.27,31.149c26.112,11.743,52.944,21.761,79.431,32.606
							c13.229,5.417,56.485,26.874,61.262,36.344c2.137,4.236,0.685,28.271,0.685,28.271l19.692,4.163
							c4.672,2.46,4.171,13.265,4.26,18.544l3.744,223.764L1270.529,1440.407z"/>
					</g>
					<g>
						<path style="fill:#2B35C6;" d="M1122.276,1448.193c0.525,3.519,0.669,7.438,0.532,11.583l31.733,0.187
							c0.104-7.446,0.71-12.551,0.71-12.551L1122.276,1448.193z"/>
					</g>
					<g>
						<path style="fill:#FF4646;" d="M1112.459,1515.622c0.094-0.401,0.194-0.818,0.299-1.255
							C1112.653,1514.803,1112.553,1515.222,1112.459,1515.622z"/>
					</g>
					<g>
						<path style="fill:#FF4646;" d="M1186.236,1531.552c0.171,0.199,0.341,0.397,0.511,0.595
							C1186.577,1531.948,1186.407,1531.75,1186.236,1531.552z"/>
					</g>
					<g>
						<path style="fill:#FF4646;" d="M1187.443,1532.961c0.144,0.169,0.289,0.338,0.432,0.507
							C1187.732,1533.299,1187.587,1533.13,1187.443,1532.961z"/>
					</g>
					<g>
						<path style="fill:#FF4646;" d="M1111.923,1518.019c0.057-0.273,0.118-0.56,0.185-0.864
							C1112.041,1517.459,1111.98,1517.746,1111.923,1518.019z"/>
					</g>
					<g>
						<path style="fill:#FF4646;" d="M1200.729,1562.076c0.669-0.158,1.184-0.414,1.529-0.776c0.002-0.002,0.003-0.004,0.005-0.006
							c-0.002,0.002-0.003,0.004-0.005,0.006C1201.912,1561.662,1201.397,1561.918,1200.729,1562.076z"/>
					</g>
					<g>
						<path style="fill:#FF4646;" d="M1116.332,1499.88c-1.356,5.671-2.642,10.641-3.544,14.364
							C1113.69,1510.525,1114.978,1505.547,1116.332,1499.88L1116.332,1499.88z"/>
					</g>
					<g>
						<path style="fill:#FF4646;" d="M1136.832,1538.214c-0.557-0.302-1.11-0.603-1.657-0.904
							C1135.722,1537.611,1136.274,1537.912,1136.832,1538.214z"/>
					</g>
					<g>
						<path style="fill:#FF4646;" d="M1121.592,1529.152c-0.19-0.128-0.378-0.256-0.564-0.383
							C1121.214,1528.896,1121.401,1529.024,1121.592,1529.152z"/>
					</g>
					<g>
						<path style="fill:#FF4646;" d="M1202.831,1555.099c0.016,0.05,0.03,0.098,0.046,0.147
							C1202.86,1555.197,1202.847,1555.149,1202.831,1555.099z"/>
					</g>
					<g>
						<path style="fill:#FF4646;" d="M1183.481,1528.368c0.25,0.288,0.5,0.575,0.749,0.862
							C1183.981,1528.943,1183.731,1528.656,1183.481,1528.368z"/>
					</g>
					<g>
						<path style="fill:#FF4646;" d="M1188.814,1534.576c0.143,0.169,0.285,0.338,0.427,0.507
							C1189.099,1534.914,1188.957,1534.745,1188.814,1534.576z"/>
					</g>
					<g>
						<path style="fill:#FF4646;" d="M1111.705,1519.144c0.047-0.268,0.105-0.567,0.169-0.881
							C1111.81,1518.576,1111.752,1518.876,1111.705,1519.144c-0.182,1.035,0.672,2.44,2.345,4.113
							C1112.377,1521.584,1111.523,1520.179,1111.705,1519.144z"/>
					</g>
					<g>
						<path style="fill:#FF4646;" d="M1184.687,1529.757c0.288,0.332,0.575,0.664,0.861,0.996
							C1185.262,1530.421,1184.975,1530.089,1184.687,1529.757z"/>
					</g>
					<g>
						<path style="fill:#FF4646;" d="M1178.609,1522.782C1178.609,1522.782,1178.608,1522.782,1178.609,1522.782
							c1.617,1.855,3.246,3.716,4.856,5.567C1181.855,1526.498,1180.226,1524.637,1178.609,1522.782z"/>
					</g>
					<g>
						<path style="fill:#FF4646;" d="M1203.386,1557.75c0.004,0.065,0.008,0.13,0.01,0.194
							C1203.394,1557.879,1203.39,1557.814,1203.386,1557.75z"/>
					</g>
					<g>
						<path style="fill:#FF4646;" d="M1200.095,1549.507c0.054,0.089,0.109,0.179,0.162,0.268
							C1200.204,1549.686,1200.149,1549.596,1200.095,1549.507z"/>
					</g>
					<g>
						<path style="fill:#FF4646;" d="M1203.303,1556.979c0.006,0.036,0.009,0.071,0.014,0.107
							C1203.312,1557.05,1203.309,1557.015,1203.303,1556.979z"/>
					</g>
					<g>
						<path style="fill:#FF4646;" d="M1198.504,1547.034c0.065,0.095,0.13,0.191,0.194,0.286
							C1198.634,1547.225,1198.568,1547.13,1198.504,1547.034z"/>
					</g>
					<g>
						<path style="fill:#FF4646;" d="M1199.398,1548.389c0.055,0.086,0.107,0.17,0.161,0.255
							C1199.505,1548.558,1199.453,1548.474,1199.398,1548.389z"/>
					</g>
					<g>
						<path style="fill:#FF4646;" d="M1112.148,1516.976c0.084-0.376,0.175-0.774,0.273-1.193
							C1112.323,1516.202,1112.231,1516.6,1112.148,1516.976z"/>
					</g>
					<g>
						<path style="fill:#FF4646;" d="M1200.846,1550.787c0.042,0.075,0.082,0.149,0.123,0.223
							C1200.927,1550.936,1200.888,1550.862,1200.846,1550.787z"/>
					</g>
					<g>
						<path style="fill:#FF4646;" d="M1202.001,1553.031c0.029,0.062,0.054,0.122,0.082,0.184
							C1202.055,1553.153,1202.03,1553.093,1202.001,1553.031z"/>
					</g>
					<g>
						<path style="fill:#FF4646;" d="M1202.416,1553.99c0.032,0.078,0.064,0.156,0.095,0.234
							C1202.481,1554.146,1202.448,1554.068,1202.416,1553.99z"/>
					</g>
					<g>
						<path style="fill:#FF4646;" d="M1203.086,1555.968c0.019,0.072,0.038,0.144,0.055,0.215
							C1203.124,1556.112,1203.104,1556.04,1203.086,1555.968z"/>
					</g>
					<g>
						<path style="fill:#FF4646;" d="M1201.408,1551.829c0.044,0.084,0.089,0.169,0.131,0.253
							C1201.497,1551.998,1201.452,1551.914,1201.408,1551.829z"/>
					</g>
					<g>
						<path style="fill:#FF4646;" d="M1197.684,1545.845c0.07,0.1,0.138,0.198,0.207,0.298
							C1197.822,1546.044,1197.754,1545.945,1197.684,1545.845z"/>
					</g>
					<g>
						<path style="fill:#FF4646;" d="M1193.593,1540.401c0.103,0.13,0.205,0.26,0.307,0.39
							C1193.798,1540.661,1193.696,1540.531,1193.593,1540.401z"/>
					</g>
					<g>
						<path style="fill:#FF4646;" d="M1192.378,1538.883c0.096,0.118,0.193,0.238,0.288,0.356
							C1192.571,1539.121,1192.474,1539.002,1192.378,1538.883z"/>
					</g>
					<g>
						<path style="fill:#FF4646;" d="M1202.75,1560.656c-0.029,0.047-0.06,0.093-0.091,0.139
							C1202.691,1560.75,1202.721,1560.703,1202.75,1560.656z"/>
					</g>
					<g>
						<path style="fill:#FF4646;" d="M1191.276,1537.531c0.12,0.146,0.24,0.292,0.359,0.438
							C1191.516,1537.823,1191.397,1537.677,1191.276,1537.531z"/>
					</g>
					<g>
						<path style="fill:#FF4646;" d="M1189.976,1535.96c0.113,0.135,0.226,0.271,0.338,0.405
							C1190.202,1536.231,1190.088,1536.095,1189.976,1535.96z"/>
					</g>
					<g>
						<path style="fill:#FF4646;" d="M1203.048,1560.094c-0.005,0.013-0.013,0.024-0.018,0.036
							C1203.036,1560.119,1203.043,1560.107,1203.048,1560.094z"/>
					</g>
					<g>
						<path style="fill:#FF4646;" d="M1196.666,1544.428c0.075,0.102,0.151,0.205,0.225,0.307
							C1196.817,1544.633,1196.741,1544.53,1196.666,1544.428z"/>
					</g>
					<g>
						<path style="fill:#FF4646;" d="M1195.743,1543.183c0.084,0.111,0.165,0.221,0.248,0.331
							C1195.908,1543.404,1195.827,1543.294,1195.743,1543.183z"/>
					</g>
					<g>
						<path style="fill:#FF4646;" d="M1203.386,1558.648c-0.002,0.025-0.007,0.048-0.009,0.073
							C1203.379,1558.697,1203.384,1558.673,1203.386,1558.648z"/>
					</g>
					<g>
						<path style="fill:#FF4646;" d="M1203.285,1559.319c-0.012,0.056-0.024,0.112-0.038,0.167
							C1203.26,1559.431,1203.272,1559.375,1203.285,1559.319z"/>
					</g>
					<g>
						<path style="fill:#FF4646;" d="M1194.614,1541.705c0.085,0.11,0.172,0.22,0.256,0.33
							C1194.785,1541.926,1194.699,1541.815,1194.614,1541.705z"/>
					</g>
					<g>
						<path style="fill:#FF4646;" d="M1116.332,1499.88c-1.355,5.667-2.643,10.645-3.544,14.364c-0.01,0.042-0.02,0.082-0.03,0.123
							c-0.106,0.437-0.205,0.854-0.299,1.255c-0.012,0.053-0.026,0.109-0.038,0.161c-0.098,0.419-0.189,0.817-0.273,1.193
							c-0.014,0.062-0.026,0.118-0.039,0.179c-0.067,0.304-0.128,0.591-0.185,0.864c-0.017,0.082-0.034,0.164-0.05,0.243
							c-0.063,0.314-0.122,0.613-0.169,0.881c-0.182,1.035,0.672,2.441,2.345,4.113c1.62,1.618,4.015,3.489,6.977,5.513
							c0.186,0.127,0.374,0.255,0.564,0.383c3.781,2.547,8.433,5.326,13.583,8.158c0.547,0.301,1.099,0.602,1.657,0.904
							c2.772,1.5,5.667,3.008,8.638,4.5c21.99,11.037,47.904,21.104,55.259,19.363c0.669-0.158,1.184-0.414,1.528-0.776
							c0.002-0.002,0.003-0.004,0.005-0.006c0.149-0.157,0.278-0.325,0.397-0.499c0.031-0.046,0.062-0.092,0.091-0.139
							c0.106-0.169,0.201-0.343,0.281-0.526c0.005-0.012,0.012-0.024,0.018-0.036c0.082-0.194,0.144-0.399,0.198-0.608
							c0.014-0.055,0.026-0.111,0.038-0.167c0.042-0.193,0.073-0.392,0.092-0.597c0.002-0.025,0.007-0.048,0.009-0.073
							c0.018-0.227,0.019-0.464,0.01-0.705c-0.002-0.064-0.006-0.129-0.01-0.194c-0.014-0.216-0.036-0.437-0.069-0.664
							c-0.005-0.036-0.008-0.071-0.014-0.107c-0.041-0.258-0.097-0.524-0.162-0.795c-0.017-0.071-0.036-0.143-0.055-0.215
							c-0.061-0.236-0.131-0.476-0.209-0.721c-0.016-0.049-0.029-0.097-0.046-0.147c-0.095-0.286-0.203-0.578-0.319-0.876
							c-0.031-0.077-0.063-0.156-0.095-0.234c-0.104-0.255-0.214-0.513-0.333-0.775c-0.028-0.061-0.053-0.122-0.082-0.184
							c-0.144-0.311-0.298-0.627-0.462-0.948c-0.042-0.084-0.087-0.169-0.131-0.253c-0.14-0.27-0.286-0.542-0.44-0.819
							c-0.041-0.075-0.081-0.148-0.123-0.223c-0.187-0.333-0.384-0.67-0.589-1.012c-0.053-0.089-0.108-0.178-0.162-0.268
							c-0.173-0.285-0.352-0.572-0.536-0.863c-0.054-0.085-0.106-0.169-0.161-0.255c-0.226-0.352-0.459-0.708-0.7-1.068
							c-0.064-0.095-0.129-0.191-0.194-0.286c-0.199-0.294-0.403-0.592-0.612-0.891c-0.069-0.099-0.137-0.198-0.207-0.298
							c-0.258-0.366-0.522-0.737-0.793-1.11c-0.074-0.102-0.15-0.205-0.225-0.307c-0.221-0.303-0.446-0.607-0.676-0.914
							c-0.082-0.11-0.164-0.22-0.248-0.331c-0.286-0.38-0.577-0.762-0.874-1.148c-0.084-0.109-0.171-0.22-0.256-0.33
							c-0.235-0.303-0.473-0.608-0.714-0.914c-0.102-0.13-0.204-0.26-0.307-0.39c-0.305-0.385-0.613-0.772-0.927-1.162
							c-0.095-0.118-0.192-0.237-0.288-0.356c-0.245-0.303-0.493-0.608-0.743-0.914c-0.12-0.146-0.239-0.292-0.359-0.438
							c-0.318-0.387-0.638-0.775-0.963-1.165c-0.112-0.135-0.226-0.27-0.338-0.405c-0.243-0.292-0.488-0.584-0.735-0.877
							c-0.142-0.169-0.284-0.338-0.427-0.507c-0.311-0.368-0.624-0.738-0.939-1.108c-0.143-0.169-0.288-0.338-0.432-0.507
							c-0.231-0.271-0.463-0.542-0.696-0.814c-0.17-0.198-0.34-0.396-0.511-0.595c-0.228-0.266-0.458-0.532-0.688-0.799
							c-0.286-0.331-0.573-0.663-0.861-0.996c-0.152-0.176-0.304-0.351-0.457-0.527c-0.249-0.287-0.499-0.574-0.749-0.862
							c-0.006-0.006-0.011-0.013-0.017-0.019c-1.609-1.85-3.239-3.712-4.856-5.567
							C1171.019,1527.811,1151.609,1533.426,1116.332,1499.88z"/>
					</g>
					<g>
						<path style="fill:#2B35C6;" d="M1183.662,1162.036c-6.619-10.495-21.766-15.303-32.153-21.642
							c-9.169-5.595-18.605-10.39-28.211-14.759c-16.218-7.376-32.92-13.537-49.638-20.281
							c-19.351-7.806-38.957-15.243-58.428-22.857c-14.275-5.582-28.693-10.981-42.678-17.27c-1.104-0.496-2.214-0.983-3.313-1.49
							l-49.58-6.574c0,0-20.706,114.279,16.945,129.417c37.65,15.138,163.641,40.367,171.679,63.125
							c8.038,22.758,4.982,210.014,4.982,210.014l59.663,0.351c0,0,16.681-258.712,16.681-258.712
							C1189.61,1189.136,1190.358,1172.653,1183.662,1162.036z"/>
					</g>
				</g>
				<g>
					<g>
						<path style="fill:#FFA68E;" d="M996.848,633.431c-28.834-4.477-56.923,13.669-64.761,41.776
							c-2.576,9.242-2.761,18.519-0.986,27.234c3.424,21.493,6.347,38.847,11.808,52.224c5.535,13.56,6.092,28.636,0.919,42.338
							l-2.069,5.481c-1.961,5.194-0.004,11.053,4.67,14.049c14.444,9.253,25.545,9.348,32.272,7.832
							c4.307-0.97,7.653-4.355,8.612-8.666l6.079-27.296l0,0c36.641,3.691,46.554-63.239,50.889-82.711l-0.058-0.002
							c0.19-0.724,0.381-1.448,0.545-2.185C1052.024,670.92,1030.375,638.635,996.848,633.431z"/>
					</g>
				</g>
				<g>
					<g>
						<path style="fill:#01011C;" d="M1026.998,729.337c0.87-2.663-0.583-5.526-3.246-6.396c-2.663-0.869-5.526,0.584-6.396,3.247
							c-0.87,2.663,0.583,5.526,3.247,6.395C1023.265,733.452,1026.128,731.999,1026.998,729.337z"/>
					</g>
				</g>
				<g>
					<g>
						<path style="fill:#01011C;" d="M979.104,724.171c0.87-2.662-0.584-5.525-3.246-6.396c-2.663-0.869-5.526,0.584-6.396,3.248
							c-0.87,2.662,0.584,5.525,3.247,6.395C975.372,728.288,978.235,726.833,979.104,724.171z"/>
					</g>
				</g>
				<g>
					<g>
						<path style="fill:#01011C;" d="M964.4,713.447c-0.582-0.162-1.09-0.573-1.357-1.166c-0.478-1.064-0.003-2.31,1.059-2.789
							c0.319-0.143,7.943-3.442,16.91-0.507c1.107,0.362,1.713,1.552,1.353,2.659c-0.362,1.107-1.65,1.698-2.658,1.351
							c-7.474-2.438-13.811,0.316-13.875,0.345C965.363,713.549,964.859,713.576,964.4,713.447z"/>
					</g>
				</g>
				<g>
					<g>
						<path style="fill:#01011C;" d="M1016.679,716.099c-0.544-0.265-0.97-0.76-1.125-1.391c-0.28-1.132,0.411-2.273,1.541-2.553
							c0.338-0.082,8.355-2.003,16.726,2.532c1.026,0.555,1.406,1.833,0.853,2.857c-0.553,1.027-1.873,1.397-2.857,0.853
							c-6.924-3.752-13.641-2.162-13.71-2.147C1017.606,716.373,1017.107,716.308,1016.679,716.099z"/>
					</g>
				</g>
				<g>
					<g>
						<path style="fill:#FF8874;" d="M999.449,746.895c-1.399,0.199-3.079,0.11-5.089-0.443c-0.396-0.109-0.63-0.521-0.521-0.917
							c0.11-0.396,0.521-0.632,0.917-0.521c6.954,1.916,9.177-2.384,9.638-3.528c-4.083-8.426-1.317-18.069-1.196-18.479
							c0.116-0.396,0.535-0.62,0.925-0.505c0.395,0.116,0.622,0.53,0.506,0.925c-0.029,0.096-2.781,9.721,1.238,17.675
							c0.086,0.17,0.103,0.366,0.049,0.548C1005.897,741.708,1004.492,746.177,999.449,746.895z"/>
					</g>
				</g>
				<g>
					<g>
						<path style="fill:#FFA68E;" d="M944.864,722.192c-0.509-2.039-1.794-3.794-3.525-4.985
							c-3.565-2.452-10.088-5.714-15.894-2.023c-8.518,5.416,1.385,27.006,17.282,20.912
							C942.727,736.095,947.567,733.019,944.864,722.192z"/>
					</g>
				</g>
				<g>
					<g>
						<path style="fill:#FF7367;" d="M928.263,819.568c0,0,3.982-30.666,10.355-29.073c6.371,1.593,62.923,11.878,68.499,10.718
							c5.575-1.16,0,25.92,0,25.92s46.197,3.984,62.127,31.064c15.93,27.082,26.503,143.263,26.523,159.391
							c0.03,25.321,26.546,44.862,26.546,44.862s-29.595,27.789-63.699,45.972c-38.148,20.341-78.922,46.669-146.639,35.326
							c-8.886-1.488-76.941-187.623-39.597-299.792C879.637,822.146,928.263,819.568,928.263,819.568z"/>
					</g>
				</g>
				<g>
					<g>
						<polygon style="fill:#FF7367;" points="936.819,1026.505 998.447,1038.104 1001.663,1078.107 981.875,1087.824 						"/>
					</g>
				</g>
				<g>
					<g>
						<path style="fill:#FF7367;" d="M1069.243,858.196c0,0,42.771,102.985,86.432,117.119c43.661,14.135,114.93,28.87,114.93,28.87
							l-4.83,17.122c0,0-115.955,25.688-170.009-3.72c-54.054-29.408-52.907-89.124-52.907-89.124L1069.243,858.196z"/>
					</g>
				</g>
				<g>
					<g>
						<g>
							<g>
								<path style="fill:#FFA68E;" d="M1128.084,979.042c0,0,1.576,0.134,4.221,0.364c13.033,1.14,52.011,4.67,56.453,6.521
									c5.344,2.227-12.976,35.38-12.976,35.38s-47.074-0.059-61.613-10.977C1099.632,999.413,1128.084,979.042,1128.084,979.042z"
									/>
							</g>
						</g>
						<g>
							<g>
								<path style="fill:#FFA68E;" d="M1169.578,1021.177c0,0,25.515,13.309,27.977,10.853c2.463-2.456-19.612-16.95-19.612-16.95
									L1169.578,1021.177z"/>
							</g>
						</g>
						<g>
							<g>
								<path style="fill:#FFA68E;" d="M1177.178,1013.183c0,0,37.866,18.115,41.096,12.926
									c3.231-5.189-38.881-21.432-38.881-21.432L1177.178,1013.183z"/>
							</g>
						</g>
						<g>
							<g>
								<path style="fill:#FFA68E;" d="M1182.859,1004.076c0,0,39.302,14.738,42.067,9.287c2.766-5.451-40.606-17.953-40.606-17.953
									L1182.859,1004.076z"/>
							</g>
						</g>
						<g>
							<g>
								<path style="fill:#FFA68E;" d="M1185.452,994.114c0,0,36.682,14.296,39.332,8.824c2.65-5.472-37.87-17.492-37.87-17.492
									L1185.452,994.114z"/>
							</g>
						</g>
					</g>
					<g>
						<g>
							<polygon style="fill:#FFA68E;" points="1136.952,980.661 1107.672,975.316 1108.52,1008.805 1123.498,1013.05 							"/>
						</g>
					</g>
				</g>
				<g>
					<g>
						<path style="fill:#FF7367;" d="M885.254,913.03c0,0,15.255,98.83,44.509,116.764c29.253,17.934,180.271-16.745,180.271-16.745
							l4.458-39.135c0,0-131.411,5.395-142.16-13.312c-10.75-18.708-20.692-73.146-20.692-73.146L885.254,913.03z"/>
					</g>
				</g>
				<g>
					<path d="M961.103,1035.433c-14.112,0-25.433-1.493-31.575-5.257c-17.478-10.716-29.968-49.792-37.368-80.687
						c-0.058-0.24,0.09-0.482,0.331-0.539c0.241-0.055,0.481,0.091,0.539,0.331c7.36,30.73,19.748,69.577,36.965,80.132
						c28.136,17.25,171.947-14.987,179.629-16.729l4.363-38.301c-10.31,0.405-131.518,4.761-142.044-13.558
						c-10.665-18.56-20.644-72.743-20.744-73.288c-0.044-0.243,0.117-0.476,0.359-0.52c0.243-0.044,0.476,0.117,0.52,0.359
						c0.099,0.544,10.051,54.577,20.64,73.003c10.491,18.261,140.443,13.143,141.754,13.088l0.522-0.021l-4.553,39.969l-0.308,0.071
						C1105.264,1014.604,1013.794,1035.433,961.103,1035.433z"/>
				</g>
				<g>
					<g>
						<g>
							<path style="fill:#FF5D63;" d="M1004.082,765.106c0,0-3.576-4.779-5.568-4.968c-1.992-0.189-3.816,1.612-3.816,1.612
								s-0.247-2.585-2.43-3.455c-2.183-0.87-11.088,0.473-11.088,0.473s3.338,11.977,10.448,13.301
								C998.867,773.417,1004.082,765.106,1004.082,765.106L1004.082,765.106z"/>
						</g>
					</g>
					<g>
						<g>
							<path style="fill:#FFFFFF;" d="M981.18,758.768c0,0,13.689,4.584,22.902,6.337c0,0-6.586,5.314-11.746,3.383
								C987.176,766.558,981.18,758.768,981.18,758.768z"/>
						</g>
					</g>
				</g>
				<g>
					<path style="fill:#01011C;" d="M1052.724,734.424c-1.82-3.181-4.147-6.048-5.72-9.373c-0.466-0.985-0.87-2.034-0.874-3.123
						c-0.016-3.943,5.37-4.235,7.428-6.707c1.536-1.844,1.397-4.517,1.15-6.905c-1.219-11.771-2.667-23.883-5.944-35.282
						c-2.958-10.256-7.878-21.065-16.099-28.165c-8.919-7.703-20.818-11.344-32.309-12.867c-24.63-3.264-50.734,3.417-66.152,23.99
						c-10.6,14.144-16.521,36.077-9.837,53.158c3.652,9.337,9.335,11.405,15.372,9.827c-0.054,0.127-0.12,0.248-0.172,0.376
						c-1.895,4.676-1.882,10.435,1.262,14.382c2.595,3.258,7.247,5.476,7.469,9.635c0.203,3.8-3.578,6.67-4.341,10.398
						c-0.671,3.281,1.094,6.518,2.794,9.403c2.055,3.488,4.284,7.147,7.86,9.044c-3.989-4.702-4.633-11.955-1.534-17.286
						c1.033-1.777,2.447-3.38,2.995-5.36c1.154-4.167-1.802-8.202-3.557-12.154c-2.831-6.377-2.422-14.333,1.858-19.842
						c1.636-2.106,3.741-3.789,5.689-5.609c4.573-4.273,9.16-20.394,12.601-25.601c4.354-6.588,13.189-2.58,21.407-4.38
						c9.109-1.995,15.296-8.083,19.989-13.11c2.521,1.564,4.7,3.886,6.374,7.241c2.678,5.365,3.905,11.43,7.142,16.478
						c4.128,6.437,11.551,11.927,9.84,20.527c-0.531,2.669-1.875,5.094-2.857,7.632c-0.982,2.538-1.596,5.41-0.627,7.954
						c2.002,5.256,12.398,8.157,10.991,14.795c-0.923,4.352-9.041,22.579-6.628,26.316c1.405-6.193,8.75-12.95,12.642-17.8
						c2.089-2.603,3.959-5.585,4.215-8.912C1055.386,740.063,1054.239,737.072,1052.724,734.424z"/>
				</g>
			</g>
		</g>
		<g>
			<g>
				<g>
					<polygon style="fill:#667BFF;" points="1501.989,875.19 1274.903,875.021 1203.575,1041.113 1430.659,1041.282 					"/>
				</g>
			</g>
			<g>
				<g>
					<rect x="1096.13" y="1031.039" style="fill:#667BFF;" width="152.032" height="10.05"/>
				</g>
			</g>
			<g>
				<g>
					<path style="fill:#FFFFFF;" d="M1346.734,963.943c-0.034-5.521,4.414-10.024,9.935-10.058
						c5.522-0.033,10.025,4.415,10.059,9.936c0.033,5.521-4.415,10.024-9.937,10.058
						C1351.27,973.913,1346.766,969.464,1346.734,963.943z"/>
				</g>
			</g>
		</g>
		<g>
			<g>
				<g>
					<path style="fill:#FF4646;" d="M1320.245,980.265l-43.663,0.331l5.783,57.968c0.152,1.521,1.589,2.682,3.303,2.669
						l25.903-0.196c1.705-0.013,3.119-1.182,3.26-2.696L1320.245,980.265z"/>
				</g>
			</g>
			<g>
				<g>
					<path style="fill:#FFFFFF;" d="M1322.168,979.185l-47.525,0.36c-0.11,0.001-0.198,0.091-0.198,0.201l0.046,5.992
						c0.001,0.11,0.091,0.198,0.2,0.197l47.525-0.36c0.11-0.001,0.198-0.091,0.197-0.2l-0.045-5.992
						C1322.368,979.273,1322.278,979.184,1322.168,979.185z"/>
				</g>
			</g>
			<g>
				<g>
					<path style="fill:#FFFFFF;" d="M1319.275,974.947l-41.802,0.317c-0.22,0.002-0.396,0.181-0.395,0.401l0.045,5.992l42.598-0.323
						l-0.045-5.992C1319.674,975.122,1319.494,974.945,1319.275,974.947z"/>
				</g>
			</g>
			<g>
				<g>
					<path style="fill:#FFFFFF;" d="M1310.282,1012.291c-0.049-6.47-5.334-11.675-11.803-11.626
						c-6.47,0.049-11.675,5.334-11.626,11.803c0.049,6.47,5.334,11.675,11.803,11.626
						C1305.126,1024.045,1310.331,1018.76,1310.282,1012.291z"/>
				</g>
			</g>
			<g>
				<g>
					<path style="fill:#271B31;" d="M1298.636,1021.432c-4.991,0.038-9.083-3.993-9.121-8.984c-0.038-4.991,3.992-9.083,8.983-9.121
						c4.991-0.038,9.083,3.993,9.121,8.984C1307.657,1017.302,1303.627,1021.394,1298.636,1021.432z M1298.507,1004.392
						c-4.404,0.033-7.96,3.643-7.927,8.048c0.033,4.404,3.643,7.96,8.048,7.927c4.404-0.033,7.96-3.643,7.927-8.048
						C1306.521,1007.914,1302.911,1004.359,1298.507,1004.392z"/>
				</g>
			</g>
			<g>
				<g>
					
						<rect x="1288.45" y="1009.184" transform="matrix(1 -0.0076 0.0076 1 -7.6376 9.8736)" style="fill:#FFFFFF;" width="20.235" height="6.39"/>
				</g>
			</g>
			<g>
				<g>
					<path style="fill:#271B31;" d="M1305.77,1011.26l-14.776,0.112c-0.026,0.026-0.04,0.041-0.066,0.067l0.015,1.997
						c0.026,0.026,0.041,0.04,0.067,0.066l14.777-0.112c0.026-0.026,0.04-0.041,0.066-0.067l-0.015-1.997
						C1305.811,1011.3,1305.796,1011.286,1305.77,1011.26z"/>
				</g>
			</g>
		</g>
		<g>
			<g>
				<g>
					<rect x="1075.608" y="1041.048" style="fill:#010131;" width="584.915" height="32.08"/>
				</g>
			</g>
			<g>
				<g>
					<g>
						
							<rect x="1331.654" y="1284.792" transform="matrix(6.123234e-17 -1 1 6.123234e-17 285.4147 2887.0784)" style="fill:#010131;" width="509.185" height="32.08"/>
					</g>
				</g>
				<g>
					<g>
						
							<rect x="895.292" y="1284.792" transform="matrix(6.123234e-17 -1 1 6.123234e-17 -150.9474 2450.7163)" style="fill:#010131;" width="509.185" height="32.08"/>
					</g>
				</g>
			</g>
		</g>
	</g>
	<g>
		<g>
			<g>
				<g>
					<rect x="314.378" y="1034.768" style="fill:#889FFF;" width="44.935" height="146.848"/>
				</g>
			</g>
			<g>
				<g>
					<rect x="359.313" y="1034.768" style="fill:#667BFF;" width="59.794" height="146.848"/>
				</g>
			</g>
			<g>
				<g>
					<g>
						<path style="fill:#D9E7FF;" d="M331.542,1053.108c0-2.967,2.375-5.372,5.304-5.372c2.928,0,5.303,2.405,5.303,5.372
							c0,2.967-2.375,5.372-5.303,5.372C333.916,1058.48,331.542,1056.075,331.542,1053.108z"/>
					</g>
				</g>
				<g>
					<g>
						<ellipse style="fill:#040156;" cx="336.845" cy="1053.108" rx="3.75" ry="3.799"/>
					</g>
				</g>
			</g>
			<g>
				<g>
					<rect x="326.442" y="1071.412" style="fill:#D9E7FF;" width="21.136" height="38.678"/>
				</g>
			</g>
		</g>
		<g>
			<g>
				<g>
					<rect x="366.743" y="1034.768" style="fill:#FF8B85;" width="33.2" height="146.848"/>
				</g>
			</g>
			<g>
				<g>
					<rect x="399.943" y="1034.768" style="fill:#667BFF;" width="59.794" height="146.848"/>
				</g>
			</g>
			<g>
				<g>
					<ellipse style="fill:#D9E7FF;" cx="383.343" cy="1053.108" rx="3.75" ry="3.799"/>
				</g>
			</g>
			<g>
				<g>
					<path style="fill:#040156;" d="M380.691,1053.108c0-1.483,1.187-2.686,2.652-2.686c1.464,0,2.652,1.203,2.652,2.686
						c0,1.484-1.188,2.686-2.652,2.686C381.878,1055.795,380.691,1054.592,380.691,1053.108z"/>
				</g>
			</g>
			<g>
				<g>
					<rect x="375.656" y="1071.412" style="fill:#D9E7FF;" width="15.617" height="38.678"/>
				</g>
			</g>
		</g>
		<g>
			<g>
				<g>
					<polygon style="fill:#667BFF;" points="462.248,1136.613 498.385,1107.517 552.002,1114.073 552.002,1136.613 					"/>
				</g>
			</g>
			<g>
				<g>
					
						<rect x="438.819" y="1077.187" transform="matrix(-1.836970e-16 1 -1 -1.836970e-16 1575.5717 668.5576)" style="fill:#FF8B85;" width="29.375" height="89.756"/>
				</g>
			</g>
			<g>
				<g>
					<path style="fill:#D9E7FF;" d="M487.174,1117.492c2.565,0,4.644,2.079,4.644,4.644c0,2.564-2.08,4.644-4.644,4.644
						c-2.565,0-4.644-2.08-4.644-4.644C482.53,1119.571,484.609,1117.492,487.174,1117.492z"/>
				</g>
			</g>
			<g>
				<g>
					<path style="fill:#040156;" d="M487.174,1119.538c1.435,0,2.597,1.162,2.597,2.597c0,1.434-1.162,2.596-2.597,2.596
						c-1.433,0-2.596-1.162-2.596-2.596C484.578,1120.701,485.741,1119.538,487.174,1119.538z"/>
				</g>
			</g>
			<g>
				<g>
					
						<rect x="455.553" y="1108.347" transform="matrix(-1.836970e-16 1 -1 -1.836970e-16 1584.3337 660.1404)" style="fill:#D9E7FF;" width="13.087" height="27.78"/>
				</g>
			</g>
		</g>
		<g>
			<g>
				<g>
					<polygon style="fill:#667BFF;" points="493.36,1181.845 552.002,1134.63 613.252,1162.564 612.931,1181.845 					"/>
				</g>
			</g>
			<g>
				<g>
					
						<rect x="455.339" y="1085.411" transform="matrix(-1.836970e-16 1 -1 -1.836970e-16 1637.4128 679.0632)" style="fill:#889FFF;" width="47.671" height="145.655"/>
				</g>
			</g>
			<g>
				<g>
					<path style="fill:#D9E7FF;" d="M533.811,1150.816c4.161,0,7.535,3.373,7.535,7.535c0,4.162-3.373,7.536-7.535,7.536
						c-4.162,0-7.536-3.374-7.536-7.536C526.275,1154.189,529.649,1150.816,533.811,1150.816z"/>
				</g>
			</g>
			<g>
				<g>
					<path style="fill:#040156;" d="M533.811,1154.138c2.326,0,4.213,1.887,4.213,4.214c0,2.328-1.886,4.213-4.213,4.213
						c-2.327,0-4.214-1.885-4.214-4.213C529.597,1156.025,531.483,1154.138,533.811,1154.138z"/>
				</g>
			</g>
			<g>
				<g>
					
						<rect x="482.497" y="1135.977" transform="matrix(-1.836970e-16 1 -1 -1.836970e-16 1651.6329 665.4019)" style="fill:#D9E7FF;" width="21.237" height="45.081"/>
				</g>
			</g>
		</g>
	</g>
	<g>
		<g>
			<g>
				
					<rect x="312.775" y="1199.189" transform="matrix(-1 -1.224647e-16 1.224647e-16 -1 985.4736 2697.8618)" style="fill:#80B5FA;" width="359.923" height="299.484"/>
			</g>
		</g>
		<g>
			<g>
				
					<rect x="276.354" y="1177.076" transform="matrix(-1 -1.224647e-16 1.224647e-16 -1 989.7592 2386.21)" style="fill:#B5D1FA;" width="437.051" height="32.057"/>
			</g>
		</g>
		<g>
			<g>
				
					<rect x="342.768" y="1236.461" transform="matrix(-1 -1.224647e-16 1.224647e-16 -1 992.9716 2572.8594)" style="fill:#B5D1FA;" width="307.435" height="99.938"/>
			</g>
		</g>
		<g>
			<g>
				
					<rect x="342.768" y="1354.072" transform="matrix(-1 -1.224647e-16 1.224647e-16 -1 992.9716 2808.0813)" style="fill:#B5D1FA;" width="307.435" height="99.938"/>
			</g>
		</g>
		<g>
			<g>
				
					<rect x="463.815" y="1245.829" transform="matrix(-1 -1.224647e-16 1.224647e-16 -1 995.1151 2501.8088)" style="fill:#80B5FA;" width="67.485" height="10.15"/>
			</g>
		</g>
		<g>
			<g>
				
					<rect x="463.815" y="1363.726" transform="matrix(-1 -1.224647e-16 1.224647e-16 -1 995.1151 2737.6016)" style="fill:#80B5FA;" width="67.485" height="10.15"/>
			</g>
		</g>
	</g>
	<g>
		<g>
			<path style="fill:#FFFFFF;" d="M1301.586,613.698H1137.65c-8.06,0-14.593,6.533-14.593,14.592v72.485
				c0,8.059,6.533,14.592,14.593,14.592h16.043v28.133l17.339-28.133h130.553c8.059,0,14.593-6.533,14.593-14.592v-72.485
				C1316.178,620.231,1309.644,613.698,1301.586,613.698z"/>
		</g>
		<g>
			<g>
				<g>
					<g>
						<polygon style="fill:#FF7367;" points="1246.928,634.641 1270.367,627.271 1262.78,649.613 						"/>
					</g>
				</g>
				<g>
					<g>
						<polygon style="fill:#FF7367;" points="1176.095,682.509 1168.718,674.854 1191.502,652.9 1233.867,653.676 1257.277,632.786 
							1264.355,640.718 1237.837,664.382 1195.709,663.61 						"/>
					</g>
				</g>
			</g>
			<g>
				<g>
					<g>
						
							<rect x="1167.804" y="686.894" transform="matrix(1 -0.0018 0.0018 1 -1.2367 2.0863)" style="fill:#6698FA;" width="12.16" height="20.689"/>
					</g>
				</g>
				<g>
					<g>
						
							<rect x="1190.66" y="674.155" transform="matrix(1 -0.0018 0.0018 1 -1.2253 2.1269)" style="fill:#6698FA;" width="12.16" height="33.388"/>
					</g>
				</g>
				<g>
					<g>
						
							<rect x="1213.534" y="682.561" transform="matrix(1 -0.0018 0.0018 1 -1.2384 2.1776)" style="fill:#6698FA;" width="12.16" height="24.941"/>
					</g>
				</g>
				<g>
					<g>
						
							<rect x="1236.388" y="667.52" transform="matrix(1 -0.0018 0.0018 1 -1.2249 2.2184)" style="fill:#6698FA;" width="12.16" height="39.942"/>
					</g>
				</g>
				<g>
					<g>
						
							<rect x="1259.248" y="659.434" transform="matrix(1 -0.0018 0.0018 1 -1.212 2.2488)" style="fill:#FF6760;" width="12.16" height="47.987"/>
					</g>
				</g>
			</g>
		</g>
	</g>
	<g>
		<g>
			<path style="fill:#FFFFFF;" d="M624.934,713.145H788.87c8.06,0,14.593,6.533,14.593,14.592v72.485
				c0,8.059-6.533,14.592-14.593,14.592h-16.043v28.133l-17.339-28.133H624.934c-8.059,0-14.593-6.533-14.593-14.592v-72.485
				C610.341,719.678,616.875,713.145,624.934,713.145z"/>
		</g>
		<g>
			<g>
				<g>
					<g>
						<polygon style="fill:#78BFF4;" points="759.823,735.559 759.991,797.457 653.718,797.745 653.55,735.846 702.844,769.01 
							711.558,768.987 						"/>
					</g>
					<g>
						<g>
							<polygon style="fill:#0A005A;" points="740.557,797.685 707.723,758 667.263,797.905 666.877,797.513 707.764,757.187 
								740.981,797.334 							"/>
						</g>
					</g>
					<g>
						<g>
							<g>
								<path style="fill:#0A005A;" d="M708.845,771.718c-1.934,0.885-4.238,0.702-6.018-0.549l-49.593-34.873l0.633-0.899
									l49.593,34.872c1.701,1.197,3.991,1.201,5.697,0.009l50.352-35.171l0.63,0.902l-50.352,35.171
									C709.485,771.389,709.17,771.569,708.845,771.718z"/>
							</g>
						</g>
					</g>
					<g>
						<g>
							<path style="fill:#78BFF4;" d="M653.55,735.846l106.273-0.288l-50.352,35.17c-1.901,1.328-4.43,1.324-6.328-0.01
								L653.55,735.846z"/>
						</g>
					</g>
				</g>
				<g>
					<path style="fill:#FF6760;" d="M702.597,764.183c-0.822-1.795-0.855-5.051,0.94-5.873c1.795-0.822,5.644-0.22,6.466,1.575
						c0.822,1.795-0.363,4.702-2.158,5.523C706.05,766.231,703.419,765.978,702.597,764.183z"/>
				</g>
			</g>
			<g>
				<path style="fill:#FF6760;" d="M767.154,737.48c0.333,7.553-5.521,13.946-13.074,14.279
					c-7.554,0.333-13.946-5.521-14.279-13.074c-0.333-7.553,5.521-13.946,13.074-14.279
					C760.429,724.073,766.822,729.927,767.154,737.48z"/>
			</g>
			<g>
				<g>
					<path style="fill:#FFFFFF;" d="M748.318,743.852c-0.438-4.121,4.463-5.011,6.694-7.312c1.583-3.177-2.856-3.43-4.813-2.28
						c-0.272,0.138-0.425,0.177-0.597-0.12c-0.101-0.393-1.133-1.543-0.53-1.864c3.986-2.467,12.492-0.109,8.473,5.516
						c-1.168,1.568-5.145,2.507-5.891,4.597l5.755,0.22c0.623,0.028,0.796,0.26,0.782,0.865c-0.032,0.339,0.033,1.136-0.226,1.34
						c0.129,0.39-8.698-0.229-8.921-0.157C748.54,744.637,748.298,744.369,748.318,743.852z"/>
				</g>
			</g>
		</g>
	</g>
</g>
</svg>
