<?xml version="1.0" encoding="UTF-8"?>
<svg xmlns="http://www.w3.org/2000/svg" xmlns:xlink="http://www.w3.org/1999/xlink" width="2376.78" height="1584.52" viewBox="0 0 2376.78 1584.52">
<defs>
<clipPath id="clip-0">
<path clip-rule="nonzero" d="M 0 0 L 2376.78125 0 L 2376.78125 1584.519531 L 0 1584.519531 Z M 0 0 "/>
</clipPath>
<clipPath id="clip-1">
<path clip-rule="nonzero" d="M 1461 833 L 1491 833 L 1491 855 L 1461 855 Z M 1461 833 "/>
</clipPath>
<clipPath id="clip-2">
<path clip-rule="nonzero" d="M 1490.390625 850.25 C 1490 852.601562 1461.820312 854.363281 1461.820312 854.363281 L 1466.640625 833.925781 C 1478.570312 841.316406 1490.578125 849.066406 1490.390625 850.25 Z M 1490.390625 850.25 "/>
</clipPath>
<clipPath id="clip-3">
<path clip-rule="nonzero" d="M 1490.390625 850.25 C 1490 852.601562 1461.820312 854.363281 1461.820312 854.363281 L 1466.640625 833.925781 C 1478.570312 841.316406 1490.578125 849.066406 1490.390625 850.25 "/>
</clipPath>
<linearGradient id="linear-pattern-0" gradientUnits="userSpaceOnUse" x1="0.520264" y1="0" x2="0.727152" y2="0" gradientTransform="matrix(-19.7766, 118.66, -118.66, -19.7766, 1489.76, 770.338)">
<stop offset="0" stop-color="rgb(97.277832%, 63.330078%, 73.291016%)" stop-opacity="1"/>
<stop offset="0.0625" stop-color="rgb(97.265625%, 63.174438%, 73.231506%)" stop-opacity="1"/>
<stop offset="0.125" stop-color="rgb(97.242737%, 62.861633%, 73.049927%)" stop-opacity="1"/>
<stop offset="0.15625" stop-color="rgb(97.225952%, 62.6297%, 72.83783%)" stop-opacity="1"/>
<stop offset="0.1875" stop-color="rgb(97.210693%, 62.431335%, 72.669983%)" stop-opacity="1"/>
<stop offset="0.21875" stop-color="rgb(97.189331%, 62.153625%, 72.535706%)" stop-opacity="1"/>
<stop offset="0.25" stop-color="rgb(97.166443%, 61.84845%, 72.419739%)" stop-opacity="1"/>
<stop offset="0.3125" stop-color="rgb(97.143555%, 61.543274%, 72.303772%)" stop-opacity="1"/>
<stop offset="0.375" stop-color="rgb(97.119141%, 61.230469%, 72.184753%)" stop-opacity="1"/>
<stop offset="0.4375" stop-color="rgb(97.096252%, 60.919189%, 71.995544%)" stop-opacity="1"/>
<stop offset="0.46875" stop-color="rgb(97.079468%, 60.687256%, 71.772766%)" stop-opacity="1"/>
<stop offset="0.5" stop-color="rgb(97.062683%, 60.475159%, 71.614075%)" stop-opacity="1"/>
<stop offset="0.53125" stop-color="rgb(97.041321%, 60.185242%, 71.485901%)" stop-opacity="1"/>
<stop offset="0.5625" stop-color="rgb(97.018433%, 59.893799%, 71.376038%)" stop-opacity="1"/>
<stop offset="0.625" stop-color="rgb(96.99707%, 59.602356%, 71.266174%)" stop-opacity="1"/>
<stop offset="0.6875" stop-color="rgb(96.974182%, 59.292603%, 71.038818%)" stop-opacity="1"/>
<stop offset="0.75" stop-color="rgb(96.949768%, 58.982849%, 70.77179%)" stop-opacity="1"/>
<stop offset="0.78125" stop-color="rgb(96.932983%, 58.74939%, 70.645142%)" stop-opacity="1"/>
<stop offset="0.8125" stop-color="rgb(96.914673%, 58.52356%, 70.561218%)" stop-opacity="1"/>
<stop offset="0.84375" stop-color="rgb(96.891785%, 58.218384%, 70.445251%)" stop-opacity="1"/>
<stop offset="0.875" stop-color="rgb(96.871948%, 57.940674%, 70.315552%)" stop-opacity="1"/>
<stop offset="0.9375" stop-color="rgb(96.850586%, 57.667542%, 70.065308%)" stop-opacity="1"/>
<stop offset="1" stop-color="rgb(96.827698%, 57.359314%, 69.828796%)" stop-opacity="1"/>
</linearGradient>
<clipPath id="clip-4">
<path clip-rule="nonzero" d="M 1276 404 L 1462 404 L 1462 556 L 1276 556 Z M 1276 404 "/>
</clipPath>
<clipPath id="clip-5">
<path clip-rule="nonzero" d="M 1316.960938 477.851562 C 1291.859375 479.371094 1268.128906 441.410156 1280.070312 426.128906 C 1304.648438 394.691406 1340.539062 410.921875 1378.199219 405.210938 C 1415.851562 399.511719 1450.378906 419.390625 1443.230469 450.851562 C 1470.988281 450.851562 1462.628906 488.878906 1450.460938 512.839844 C 1438.289062 536.800781 1416.988281 572.171875 1391.890625 545.550781 C 1366.789062 518.929688 1341.308594 508.28125 1341.308594 508.28125 Z M 1316.960938 477.851562 "/>
</clipPath>
<clipPath id="clip-6">
<path clip-rule="nonzero" d="M 1316.960938 477.851562 C 1291.859375 479.371094 1268.128906 441.410156 1280.070312 426.128906 C 1304.648438 394.691406 1340.539062 410.921875 1378.199219 405.210938 C 1415.851562 399.511719 1450.378906 419.390625 1443.230469 450.851562 C 1470.988281 450.851562 1462.628906 488.878906 1450.460938 512.839844 C 1438.289062 536.800781 1416.988281 572.171875 1391.890625 545.550781 C 1366.789062 518.929688 1341.308594 508.28125 1341.308594 508.28125 L 1316.960938 477.851562 "/>
</clipPath>
<linearGradient id="linear-pattern-1" gradientUnits="userSpaceOnUse" x1="0.659328" y1="0" x2="0.925048" y2="0" gradientTransform="matrix(-253.112, -824.571, 824.571, -253.112, 1578.2, 1134.15)">
<stop offset="0" stop-color="rgb(9.159851%, 14.225769%, 25.331116%)" stop-opacity="1"/>
<stop offset="0.03125" stop-color="rgb(9.143066%, 14.201355%, 25.285339%)" stop-opacity="1"/>
<stop offset="0.0625" stop-color="rgb(9.107971%, 14.149475%, 25.193787%)" stop-opacity="1"/>
<stop offset="0.125" stop-color="rgb(9.078979%, 14.105225%, 25.085449%)" stop-opacity="1"/>
<stop offset="0.1875" stop-color="rgb(9.030151%, 14.089966%, 24.971008%)" stop-opacity="1"/>
<stop offset="0.21875" stop-color="rgb(8.972168%, 14.085388%, 24.884033%)" stop-opacity="1"/>
<stop offset="0.25" stop-color="rgb(8.930969%, 14.051819%, 24.804688%)" stop-opacity="1"/>
<stop offset="0.28125" stop-color="rgb(8.891296%, 14.013672%, 24.720764%)" stop-opacity="1"/>
<stop offset="0.3125" stop-color="rgb(8.840942%, 14.004517%, 24.655151%)" stop-opacity="1"/>
<stop offset="0.34375" stop-color="rgb(8.792114%, 13.993835%, 24.577332%)" stop-opacity="1"/>
<stop offset="0.375" stop-color="rgb(8.755493%, 13.955688%, 24.459839%)" stop-opacity="1"/>
<stop offset="0.40625" stop-color="rgb(8.72345%, 13.905334%, 24.339294%)" stop-opacity="1"/>
<stop offset="0.4375" stop-color="rgb(8.688354%, 13.853455%, 24.241638%)" stop-opacity="1"/>
<stop offset="0.46875" stop-color="rgb(8.647156%, 13.821411%, 24.163818%)" stop-opacity="1"/>
<stop offset="0.5" stop-color="rgb(8.59375%, 13.818359%, 24.101257%)" stop-opacity="1"/>
<stop offset="0.53125" stop-color="rgb(8.5495%, 13.800049%, 24.012756%)" stop-opacity="1"/>
<stop offset="0.5625" stop-color="rgb(8.51593%, 13.754272%, 23.886108%)" stop-opacity="1"/>
<stop offset="0.59375" stop-color="rgb(8.473206%, 13.728333%, 23.786926%)" stop-opacity="1"/>
<stop offset="0.625" stop-color="rgb(8.4198%, 13.728333%, 23.727417%)" stop-opacity="1"/>
<stop offset="0.65625" stop-color="rgb(8.377075%, 13.703918%, 23.631287%)" stop-opacity="1"/>
<stop offset="0.6875" stop-color="rgb(8.345032%, 13.65509%, 23.501587%)" stop-opacity="1"/>
<stop offset="0.71875" stop-color="rgb(8.300781%, 13.632202%, 23.410034%)" stop-opacity="1"/>
<stop offset="0.75" stop-color="rgb(8.248901%, 13.630676%, 23.350525%)" stop-opacity="1"/>
<stop offset="0.78125" stop-color="rgb(8.206177%, 13.598633%, 23.272705%)" stop-opacity="1"/>
<stop offset="0.8125" stop-color="rgb(8.172607%, 13.546753%, 23.176575%)" stop-opacity="1"/>
<stop offset="0.84375" stop-color="rgb(8.140564%, 13.494873%, 23.059082%)" stop-opacity="1"/>
<stop offset="0.875" stop-color="rgb(8.105469%, 13.452148%, 22.941589%)" stop-opacity="1"/>
<stop offset="0.90625" stop-color="rgb(8.058167%, 13.43689%, 22.859192%)" stop-opacity="1"/>
<stop offset="0.9375" stop-color="rgb(8.030701%, 13.423157%, 22.782898%)" stop-opacity="1"/>
<stop offset="0.96875" stop-color="rgb(8.058167%, 13.380432%, 22.666931%)" stop-opacity="1"/>
<stop offset="1" stop-color="rgb(8.087158%, 13.337708%, 22.550964%)" stop-opacity="1"/>
</linearGradient>
<clipPath id="clip-7">
<path clip-rule="nonzero" d="M 1362 528 L 1436 528 L 1436 621 L 1362 621 Z M 1362 528 "/>
</clipPath>
<clipPath id="clip-8">
<path clip-rule="nonzero" d="M 1409 619.90625 C 1388.660156 623.507812 1378.578125 612.863281 1374.398438 605.835938 C 1371.851562 601.5625 1371.550781 595.003906 1369.679688 587.144531 C 1368.460938 582.039062 1366.589844 576.390625 1362.988281 570.46875 L 1418.511719 528.820312 C 1417.980469 536.039062 1421.449219 548.148438 1425.371094 559.601562 C 1429.941406 572.878906 1435.121094 585.285156 1435.429688 588.152344 C 1436 593.464844 1429.339844 616.289062 1409 619.90625 Z M 1409 619.90625 "/>
</clipPath>
<clipPath id="clip-9">
<path clip-rule="nonzero" d="M 1409 619.90625 C 1388.660156 623.507812 1378.578125 612.863281 1374.398438 605.835938 C 1371.851562 601.5625 1371.550781 595.003906 1369.679688 587.144531 C 1368.460938 582.039062 1366.589844 576.390625 1362.988281 570.46875 L 1418.511719 528.820312 C 1417.980469 536.039062 1421.449219 548.148438 1425.371094 559.601562 C 1429.941406 572.878906 1435.121094 585.285156 1435.429688 588.152344 C 1436 593.464844 1429.339844 616.289062 1409 619.90625 "/>
</clipPath>
<linearGradient id="linear-pattern-2" gradientUnits="userSpaceOnUse" x1="0.270416" y1="0" x2="0.498764" y2="0" gradientTransform="matrix(-142.235, -468.539, 468.539, -142.235, 1453.56, 756.552)">
<stop offset="0" stop-color="rgb(97.906494%, 71.688843%, 78.103638%)" stop-opacity="1"/>
<stop offset="0.0625" stop-color="rgb(97.894287%, 71.516418%, 77.890015%)" stop-opacity="1"/>
<stop offset="0.09375" stop-color="rgb(97.868347%, 71.180725%, 77.603149%)" stop-opacity="1"/>
<stop offset="0.125" stop-color="rgb(97.843933%, 70.846558%, 77.461243%)" stop-opacity="1"/>
<stop offset="0.15625" stop-color="rgb(97.822571%, 70.555115%, 77.346802%)" stop-opacity="1"/>
<stop offset="0.1875" stop-color="rgb(97.805786%, 70.350647%, 77.267456%)" stop-opacity="1"/>
<stop offset="0.25" stop-color="rgb(97.787476%, 70.091248%, 77.165222%)" stop-opacity="1"/>
<stop offset="0.3125" stop-color="rgb(97.761536%, 69.744873%, 76.945496%)" stop-opacity="1"/>
<stop offset="0.34375" stop-color="rgb(97.741699%, 69.483948%, 76.686096%)" stop-opacity="1"/>
<stop offset="0.375" stop-color="rgb(97.721863%, 69.229126%, 76.512146%)" stop-opacity="1"/>
<stop offset="0.40625" stop-color="rgb(97.695923%, 68.887329%, 76.374817%)" stop-opacity="1"/>
<stop offset="0.4375" stop-color="rgb(97.674561%, 68.603516%, 76.264954%)" stop-opacity="1"/>
<stop offset="0.46875" stop-color="rgb(97.660828%, 68.408203%, 76.18866%)" stop-opacity="1"/>
<stop offset="0.5" stop-color="rgb(97.644043%, 68.191528%, 76.068115%)" stop-opacity="1"/>
<stop offset="0.53125" stop-color="rgb(97.621155%, 67.887878%, 75.843811%)" stop-opacity="1"/>
<stop offset="0.5625" stop-color="rgb(97.596741%, 67.565918%, 75.596619%)" stop-opacity="1"/>
<stop offset="0.625" stop-color="rgb(97.572327%, 67.23938%, 75.418091%)" stop-opacity="1"/>
<stop offset="0.65625" stop-color="rgb(97.546387%, 66.889954%, 75.283813%)" stop-opacity="1"/>
<stop offset="0.6875" stop-color="rgb(97.520447%, 66.543579%, 75.149536%)" stop-opacity="1"/>
<stop offset="0.75" stop-color="rgb(97.492981%, 66.183472%, 74.880981%)" stop-opacity="1"/>
<stop offset="0.78125" stop-color="rgb(97.468567%, 65.858459%, 74.598694%)" stop-opacity="1"/>
<stop offset="0.8125" stop-color="rgb(97.445679%, 65.54718%, 74.452209%)" stop-opacity="1"/>
<stop offset="0.84375" stop-color="rgb(97.421265%, 65.235901%, 74.331665%)" stop-opacity="1"/>
<stop offset="0.875" stop-color="rgb(97.40448%, 65.010071%, 74.24469%)" stop-opacity="1"/>
<stop offset="0.9375" stop-color="rgb(97.384644%, 64.752197%, 74.064636%)" stop-opacity="1"/>
<stop offset="0.96875" stop-color="rgb(97.366333%, 64.492798%, 73.814392%)" stop-opacity="1"/>
<stop offset="1" stop-color="rgb(97.346497%, 64.239502%, 73.643494%)" stop-opacity="1"/>
</linearGradient>
<clipPath id="clip-10">
<path clip-rule="nonzero" d="M 1362 528 L 1426 528 L 1426 590 L 1362 590 Z M 1362 528 "/>
</clipPath>
<clipPath id="clip-11">
<path clip-rule="nonzero" d="M 1425.371094 559.601562 C 1413.710938 587.6875 1392.078125 592.96875 1369.679688 587.144531 C 1368.460938 582.039062 1366.589844 576.390625 1362.988281 570.46875 L 1418.511719 528.820312 C 1417.980469 536.039062 1421.449219 548.148438 1425.371094 559.601562 Z M 1425.371094 559.601562 "/>
</clipPath>
<clipPath id="clip-12">
<path clip-rule="nonzero" d="M 1425.371094 559.601562 C 1413.710938 587.6875 1392.078125 592.96875 1369.679688 587.144531 C 1368.460938 582.039062 1366.589844 576.390625 1362.988281 570.46875 L 1418.511719 528.820312 C 1417.980469 536.039062 1421.449219 548.148438 1425.371094 559.601562 "/>
</clipPath>
<linearGradient id="linear-pattern-3" gradientUnits="userSpaceOnUse" x1="0.644937" y1="0" x2="0.961647" y2="0" gradientTransform="matrix(-73.7814, -240.36, 240.36, -73.7814, 1453.47, 753.967)">
<stop offset="0" stop-color="rgb(96.994019%, 59.558105%, 71.24939%)" stop-opacity="1"/>
<stop offset="0.03125" stop-color="rgb(96.984863%, 59.439087%, 71.166992%)" stop-opacity="1"/>
<stop offset="0.0625" stop-color="rgb(96.966553%, 59.202576%, 70.94574%)" stop-opacity="1"/>
<stop offset="0.09375" stop-color="rgb(96.948242%, 58.964539%, 70.744324%)" stop-opacity="1"/>
<stop offset="0.125" stop-color="rgb(96.928406%, 58.702087%, 70.628357%)" stop-opacity="1"/>
<stop offset="0.140625" stop-color="rgb(96.908569%, 58.439636%, 70.529175%)" stop-opacity="1"/>
<stop offset="0.15625" stop-color="rgb(96.890259%, 58.201599%, 70.439148%)" stop-opacity="1"/>
<stop offset="0.1875" stop-color="rgb(96.868896%, 57.914734%, 70.277405%)" stop-opacity="1"/>
<stop offset="0.21875" stop-color="rgb(96.847534%, 57.63092%, 70.024109%)" stop-opacity="1"/>
<stop offset="0.25" stop-color="rgb(96.83075%, 57.394409%, 69.842529%)" stop-opacity="1"/>
<stop offset="0.28125" stop-color="rgb(96.807861%, 57.10907%, 69.734192%)" stop-opacity="1"/>
<stop offset="0.296875" stop-color="rgb(96.786499%, 56.82373%, 69.62738%)" stop-opacity="1"/>
<stop offset="0.3125" stop-color="rgb(96.768188%, 56.585693%, 69.538879%)" stop-opacity="1"/>
<stop offset="0.34375" stop-color="rgb(96.748352%, 56.323242%, 69.367981%)" stop-opacity="1"/>
<stop offset="0.375" stop-color="rgb(96.728516%, 56.062317%, 69.125366%)" stop-opacity="1"/>
<stop offset="0.40625" stop-color="rgb(96.711731%, 55.825806%, 68.962097%)" stop-opacity="1"/>
<stop offset="0.4375" stop-color="rgb(96.688843%, 55.519104%, 68.849182%)" stop-opacity="1"/>
<stop offset="0.453125" stop-color="rgb(96.664429%, 55.210876%, 68.733215%)" stop-opacity="1"/>
<stop offset="0.46875" stop-color="rgb(96.646118%, 54.972839%, 68.644714%)" stop-opacity="1"/>
<stop offset="0.5" stop-color="rgb(96.629333%, 54.73175%, 68.467712%)" stop-opacity="1"/>
<stop offset="0.53125" stop-color="rgb(96.607971%, 54.450989%, 68.22052%)" stop-opacity="1"/>
<stop offset="0.546875" stop-color="rgb(96.586609%, 54.170227%, 68.058777%)" stop-opacity="1"/>
<stop offset="0.5625" stop-color="rgb(96.568298%, 53.93219%, 67.970276%)" stop-opacity="1"/>
<stop offset="0.59375" stop-color="rgb(96.548462%, 53.668213%, 67.805481%)" stop-opacity="1"/>
<stop offset="0.625" stop-color="rgb(96.528625%, 53.405762%, 67.565918%)" stop-opacity="1"/>
<stop offset="0.65625" stop-color="rgb(96.510315%, 53.170776%, 67.404175%)" stop-opacity="1"/>
<stop offset="0.6875" stop-color="rgb(96.487427%, 52.865601%, 67.29126%)" stop-opacity="1"/>
<stop offset="0.703125" stop-color="rgb(96.464539%, 52.560425%, 67.179871%)" stop-opacity="1"/>
<stop offset="0.71875" stop-color="rgb(96.446228%, 52.322388%, 67.09137%)" stop-opacity="1"/>
<stop offset="0.75" stop-color="rgb(96.427917%, 52.081299%, 66.918945%)" stop-opacity="1"/>
<stop offset="0.78125" stop-color="rgb(96.409607%, 51.843262%, 66.690063%)" stop-opacity="1"/>
<stop offset="0.8125" stop-color="rgb(96.391296%, 51.608276%, 66.546631%)" stop-opacity="1"/>
<stop offset="0.828125" stop-color="rgb(96.376038%, 51.399231%, 66.470337%)" stop-opacity="1"/>
<stop offset="0.84375" stop-color="rgb(96.360779%, 51.191711%, 66.394043%)" stop-opacity="1"/>
<stop offset="0.859375" stop-color="rgb(96.342468%, 50.952148%, 66.307068%)" stop-opacity="1"/>
<stop offset="0.875" stop-color="rgb(96.325684%, 50.732422%, 66.215515%)" stop-opacity="1"/>
<stop offset="0.90625" stop-color="rgb(96.308899%, 50.515747%, 66.035461%)" stop-opacity="1"/>
<stop offset="0.9375" stop-color="rgb(96.290588%, 50.282288%, 65.823364%)" stop-opacity="1"/>
<stop offset="0.96875" stop-color="rgb(96.273804%, 50.045776%, 65.696716%)" stop-opacity="1"/>
<stop offset="1" stop-color="rgb(96.255493%, 49.807739%, 65.609741%)" stop-opacity="1"/>
</linearGradient>
</defs>
<g clip-path="url(#clip-0)">
<path fill-rule="nonzero" fill="rgb(100%, 100%, 100%)" fill-opacity="1" d="M 2376.78125 1584.519531 L 0 1584.519531 L 0 0 L 2376.78125 0 L 2376.78125 1584.519531 "/>
</g>
<path fill-rule="evenodd" fill="rgb(97.874451%, 90.4953%, 82.395935%)" fill-opacity="1" d="M 895.730469 848.226562 C 897.933594 798.476562 764.484375 746.191406 720.53125 724.855469 C 653.070312 692.105469 610.019531 676.132812 651.847656 579.269531 C 677.277344 520.378906 996.324219 466.25 1055.75 444.640625 C 1271.039062 366.339844 480.664062 611.433594 769.058594 148.488281 L 773.785156 140.898438 C 823.496094 61.109375 868.675781 -6.320312 984.324219 35.761719 C 1105.421875 79.828125 1261.238281 187.148438 1397.679688 289.351562 C 1488.910156 357.679688 1611.601562 221.890625 1751.191406 228.378906 C 1751.640625 228.25 2137.570312 332.53125 1731.148438 479.480469 C 1659.941406 556.230469 1728.359375 589.898438 1832.808594 704.449219 C 1916.261719 795.96875 2069.359375 1051.148438 1832.808594 1054.71875 C 1782.949219 1055.46875 1807.410156 1114.871094 1657.859375 1157.75 C 1367.261719 1241.070312 1486.03125 1152.558594 1301.121094 1137.46875 C 1187.660156 1128.199219 1270.21875 1124.820312 1161.761719 1146.921875 C 838.449219 1212.820312 1052.78125 1319.511719 838.367188 1259.78125 C 786.613281 1257.238281 609.628906 1219.429688 617.003906 1120.421875 C 617.003906 992.367188 893.265625 903.828125 895.730469 848.226562 "/>
<path fill-rule="evenodd" fill="rgb(16.569519%, 21.640015%, 39.347839%)" fill-opacity="1" d="M 1566.878906 1065.578125 L 1670.109375 1385.671875 L 1645.710938 1399.390625 L 1533.101562 1081.578125 L 1566.878906 1065.578125 "/>
<path fill-rule="evenodd" fill="rgb(16.569519%, 21.640015%, 39.347839%)" fill-opacity="1" d="M 1506.839844 1077.011719 L 1519.980469 1383.390625 L 1484.320312 1387.960938 L 1474.941406 1081.578125 L 1506.839844 1077.011719 "/>
<path fill-rule="evenodd" fill="rgb(16.569519%, 21.640015%, 39.347839%)" fill-opacity="1" d="M 1448.691406 1079.289062 L 1383 1381.101562 L 1347.339844 1371.949219 L 1422.410156 1065.578125 L 1448.691406 1079.289062 "/>
<path fill-rule="evenodd" fill="rgb(16.569519%, 21.640015%, 39.347839%)" fill-opacity="1" d="M 1621.328125 1296.5 L 1386.71875 1294.21875 L 1384.851562 1317.078125 L 1621.328125 1317.078125 L 1621.328125 1296.5 "/>
<path fill-rule="evenodd" fill="rgb(47.277832%, 66.877747%, 87.802124%)" fill-opacity="1" d="M 1546.25 722.613281 C 1642.601562 727.945312 1618.820312 943.632812 1615.691406 1054.140625 C 1617.570312 1104.441406 1463.671875 1102.160156 1396.109375 1095.300781 C 1433.019531 1060.238281 1469.929688 1025.179688 1506.839844 990.125 L 1546.25 722.613281 "/>
<path fill-rule="evenodd" fill="rgb(21.539307%, 24.771118%, 42.950439%)" fill-opacity="1" d="M 392.3125 1315.628906 C 386.9375 1235.738281 354.152344 1159.789062 282.664062 1191.871094 C 235.902344 1211.519531 232.675781 1380.449219 168.179688 1352.949219 C 180.539062 1392.238281 229.988281 1435.460938 292.339844 1358.851562 C 341.789062 1289.441406 370.277344 1275.03125 392.3125 1315.628906 "/>
<path fill-rule="evenodd" fill="rgb(100%, 100%, 100%)" fill-opacity="1" d="M 358.378906 1259.558594 C 292.707031 1215.109375 270.300781 1366.199219 195.683594 1362.671875 C 264.753906 1388.371094 295.914062 1249.351562 358.378906 1259.558594 "/>
<path fill-rule="evenodd" fill="rgb(21.539307%, 24.771118%, 42.950439%)" fill-opacity="1" d="M 229.453125 757.742188 C 305.851562 755.699219 351.722656 800.195312 381.023438 834.355469 C 372.425781 885.101562 390.433594 899.507812 398.761719 853.996094 C 477.773438 986.921875 422.949219 1180.738281 398.761719 1299.910156 C 397.160156 1236.558594 439.800781 1137.371094 339.101562 1081.871094 C 292.878906 1062.878906 243.425781 988.886719 279.4375 853.996094 C 289.113281 810.128906 266.539062 787.863281 229.453125 757.742188 "/>
<path fill-rule="evenodd" fill="rgb(100%, 100%, 100%)" fill-opacity="1" d="M 413.277344 1196.78125 C 433.164062 1016.390625 334.535156 815.367188 288.3125 788.191406 C 300.671875 815.363281 404.140625 950.582031 413.277344 1196.78125 "/>
<path fill-rule="evenodd" fill="rgb(21.539307%, 24.771118%, 42.950439%)" fill-opacity="1" d="M 410.453125 1284.691406 C 414.484375 1226.410156 431.414062 1193.671875 478.175781 1156.019531 C 511.769531 1126.890625 553.425781 1153.730469 576.539062 1066.640625 C 581.644531 1120.011719 572.238281 1193.019531 536.226562 1217.898438 C 492.691406 1245.078125 439.476562 1223.140625 410.453125 1284.691406 "/>
<path fill-rule="evenodd" fill="rgb(100%, 100%, 100%)" fill-opacity="1" d="M 425.789062 1247.351562 C 423.222656 1200.359375 533.847656 1189.339844 565.144531 1115.53125 C 540.300781 1192.539062 444.828125 1219.460938 425.789062 1247.351562 "/>
<path fill-rule="evenodd" fill="rgb(21.539307%, 24.771118%, 42.950439%)" fill-opacity="1" d="M 421.425781 1316.199219 C 432.757812 1287.988281 446.464844 1275.609375 475.890625 1267.859375 C 497.359375 1261.25 513.921875 1284.558594 539.40625 1246.460938 C 533.433594 1274.378906 517.058594 1308.691406 495.054688 1312.601562 C 468.921875 1315.878906 445.789062 1292.28125 421.425781 1316.199219 "/>
<path fill-rule="evenodd" fill="rgb(100%, 100%, 100%)" fill-opacity="1" d="M 435.070312 1301.148438 C 441.296875 1277.019531 498.429688 1297.738281 525.890625 1268.21875 C 501.148438 1300.878906 449.058594 1291.699219 435.070312 1301.148438 "/>
<path fill-rule="evenodd" fill="rgb(100%, 100%, 100%)" fill-opacity="1" d="M 392.3125 1240 C 396.074219 1216.761719 386.132812 1196.460938 367.320312 1179.109375 C 366.78125 1200.390625 376.726562 1221.671875 392.3125 1240 "/>
<path fill-rule="evenodd" fill="rgb(21.539307%, 24.771118%, 42.950439%)" fill-opacity="1" d="M 406.824219 1321.519531 C 407.898438 1294.351562 418.648438 1278.960938 443.910156 1275.359375 C 423.488281 1291.730469 419.992188 1316.941406 406.824219 1321.519531 "/>
<path fill-rule="evenodd" fill="rgb(100%, 100%, 100%)" fill-opacity="1" d="M 413.722656 1333.769531 C 418.605469 1320.429688 426.445312 1315.28125 439.664062 1319.46875 C 426.824219 1322.808594 421.046875 1334.601562 413.722656 1333.769531 "/>
<path fill-rule="evenodd" fill="rgb(43.455505%, 34.809875%, 69.711304%)" fill-opacity="1" d="M 474.550781 1343.128906 L 340.714844 1337.238281 L 350.390625 1460.988281 L 455.199219 1464.921875 L 474.550781 1343.128906 "/>
<path fill-rule="evenodd" fill="rgb(21.539307%, 24.771118%, 42.950439%)" fill-opacity="1" d="M 2046.839844 1340.109375 C 2052.21875 1260.230469 2085 1184.269531 2156.488281 1216.359375 C 2203.25 1236 2206.480469 1404.941406 2270.980469 1377.441406 C 2258.609375 1416.730469 2209.171875 1459.941406 2146.820312 1383.328125 C 2097.371094 1313.921875 2068.878906 1299.519531 2046.839844 1340.109375 "/>
<path fill-rule="evenodd" fill="rgb(100%, 100%, 100%)" fill-opacity="1" d="M 2080.78125 1284.050781 C 2146.449219 1239.589844 2168.851562 1390.691406 2243.46875 1387.160156 C 2174.398438 1412.851562 2143.238281 1273.839844 2080.78125 1284.050781 "/>
<path fill-rule="evenodd" fill="rgb(21.539307%, 24.771118%, 42.950439%)" fill-opacity="1" d="M 2209.699219 782.226562 C 2133.300781 780.183594 2087.429688 824.679688 2058.128906 858.839844 C 2066.730469 909.585938 2048.71875 923.992188 2040.390625 878.484375 C 1961.378906 1011.410156 2016.210938 1205.230469 2040.390625 1324.398438 C 2041.988281 1261.039062 1999.359375 1161.859375 2100.050781 1106.351562 C 2146.28125 1087.359375 2195.730469 1013.371094 2159.71875 878.484375 C 2150.039062 834.609375 2172.621094 812.347656 2209.699219 782.226562 "/>
<path fill-rule="evenodd" fill="rgb(100%, 100%, 100%)" fill-opacity="1" d="M 2025.878906 1221.269531 C 2005.988281 1040.871094 2104.621094 839.851562 2150.839844 812.675781 C 2138.480469 839.851562 2035.019531 975.066406 2025.878906 1221.269531 "/>
<path fill-rule="evenodd" fill="rgb(21.539307%, 24.771118%, 42.950439%)" fill-opacity="1" d="M 2028.699219 1309.179688 C 2024.671875 1250.898438 2007.738281 1218.160156 1960.980469 1180.511719 C 1927.378906 1151.371094 1885.730469 1178.21875 1862.621094 1091.128906 C 1857.511719 1144.488281 1866.921875 1217.5 1902.929688 1242.390625 C 1946.46875 1269.558594 1999.679688 1247.621094 2028.699219 1309.179688 "/>
<path fill-rule="evenodd" fill="rgb(100%, 100%, 100%)" fill-opacity="1" d="M 2013.359375 1271.839844 C 2015.929688 1224.851562 1905.308594 1213.820312 1874.011719 1140.011719 C 1898.851562 1217.019531 1994.328125 1243.949219 2013.359375 1271.839844 "/>
<path fill-rule="evenodd" fill="rgb(21.539307%, 24.771118%, 42.950439%)" fill-opacity="1" d="M 2017.730469 1340.679688 C 2006.398438 1312.46875 1992.691406 1300.101562 1963.269531 1292.351562 C 1941.789062 1285.730469 1925.238281 1309.050781 1899.75 1270.941406 C 1905.71875 1298.859375 1922.101562 1333.179688 1944.101562 1337.089844 C 1970.238281 1340.359375 1993.359375 1316.761719 2017.730469 1340.679688 "/>
<path fill-rule="evenodd" fill="rgb(100%, 100%, 100%)" fill-opacity="1" d="M 2004.089844 1325.628906 C 1997.859375 1301.511719 1940.730469 1322.230469 1913.269531 1292.710938 C 1938.011719 1325.359375 1990.101562 1316.191406 2004.089844 1325.628906 "/>
<path fill-rule="evenodd" fill="rgb(100%, 100%, 100%)" fill-opacity="1" d="M 2046.839844 1264.488281 C 2043.078125 1241.238281 2053.019531 1220.941406 2071.839844 1203.589844 C 2072.371094 1224.871094 2062.429688 1246.148438 2046.839844 1264.488281 "/>
<path fill-rule="evenodd" fill="rgb(21.539307%, 24.771118%, 42.950439%)" fill-opacity="1" d="M 2032.328125 1346.011719 C 2031.261719 1318.828125 2020.511719 1303.449219 1995.238281 1299.839844 C 2015.671875 1316.210938 2019.160156 1341.421875 2032.328125 1346.011719 "/>
<path fill-rule="evenodd" fill="rgb(100%, 100%, 100%)" fill-opacity="1" d="M 2025.429688 1358.261719 C 2020.550781 1344.910156 2012.710938 1339.761719 1999.488281 1343.949219 C 2012.328125 1347.300781 2018.109375 1359.089844 2025.429688 1358.261719 "/>
<path fill-rule="evenodd" fill="rgb(43.455505%, 34.809875%, 69.711304%)" fill-opacity="1" d="M 1964.609375 1367.621094 L 2098.441406 1361.71875 L 2088.769531 1485.480469 L 1983.960938 1489.410156 L 1964.609375 1367.621094 "/>
<path fill-rule="nonzero" fill="rgb(100%, 100%, 100%)" fill-opacity="1" d="M 1448.808594 870.480469 C 1448.808594 873.902344 1448.789062 877.328125 1448.769531 880.738281 C 1448.660156 923.984375 1448.089844 963.996094 1448.089844 963.996094 L 1355.289062 947.351562 C 1355.289062 947.351562 1353.5 910.621094 1353.238281 880.738281 C 1353.210938 877.199219 1353.210938 873.761719 1353.21875 870.480469 C 1353.289062 856.746094 1353.851562 845.960938 1355.289062 843.496094 C 1355.5 843.140625 1355.691406 842.4375 1355.878906 841.382812 C 1356.261719 839.253906 1356.648438 835.730469 1357.019531 831.105469 C 1357.578125 823.824219 1358.109375 813.789062 1358.589844 802.027344 C 1358.730469 798.726562 1358.871094 795.304688 1359 791.75 C 1359.339844 782.660156 1359.660156 772.832031 1359.949219 762.652344 C 1360.039062 759.261719 1360.140625 755.835938 1360.230469 752.394531 C 1360.511719 742.777344 1360.75 732.980469 1360.96875 723.296875 C 1361.050781 719.855469 1361.128906 716.414062 1361.210938 713.023438 C 1361.429688 702.9375 1361.628906 693.113281 1361.820312 683.925781 C 1361.878906 680.402344 1361.949219 676.980469 1362.011719 673.664062 C 1362.539062 646.523438 1362.878906 627.027344 1362.988281 626.5625 C 1363.371094 625.042969 1382.75 595.753906 1382.75 595.753906 L 1428.78125 584.535156 L 1448.089844 606.699219 C 1448.089844 606.699219 1447.75 636.4375 1447.53125 673.664062 C 1447.511719 677.027344 1447.488281 680.453125 1447.480469 683.925781 C 1447.429688 693.398438 1447.398438 703.210938 1447.378906 713.023438 C 1447.371094 716.445312 1447.371094 719.886719 1447.371094 723.296875 C 1447.371094 733.222656 1447.378906 743.046875 1447.410156 752.394531 C 1447.429688 755.882812 1447.449219 759.308594 1447.480469 762.652344 C 1447.558594 773.425781 1447.671875 783.332031 1447.859375 791.75 C 1447.929688 795.015625 1448.011719 798.058594 1448.089844 800.839844 C 1448.101562 801.226562 1448.121094 801.625 1448.121094 802.027344 C 1448.371094 810.476562 1448.550781 820.398438 1448.648438 831.105469 C 1448.679688 834.46875 1448.710938 837.894531 1448.730469 841.382812 C 1448.789062 850.808594 1448.808594 860.652344 1448.808594 870.480469 "/>
<path fill-rule="nonzero" fill="rgb(25.582886%, 24.5224%, 62.004089%)" fill-opacity="1" d="M 1541.730469 954.007812 C 1538.691406 964.652344 1442.078125 969.214844 1435.460938 960.265625 C 1432.449219 956.203125 1426.160156 910.203125 1422.929688 847.03125 C 1419.039062 771.230469 1419.558594 670.703125 1435.429688 588.152344 L 1486.210938 610.207031 L 1502.488281 634.550781 L 1534.128906 673.328125 C 1534.128906 673.328125 1532.78125 742.839844 1531.359375 788.933594 C 1531.261719 791.78125 1531.179688 794.535156 1531.089844 797.175781 C 1529.570312 842.679688 1544.769531 943.367188 1541.730469 954.007812 "/>
<path fill-rule="nonzero" fill="rgb(22.343445%, 22.032166%, 58.146667%)" fill-opacity="1" d="M 1541.730469 954.007812 C 1538.691406 964.652344 1442.078125 969.214844 1435.460938 960.265625 C 1432.449219 956.203125 1426.160156 910.203125 1422.929688 847.03125 C 1437.230469 841.253906 1457.828125 825.199219 1461.820312 780.46875 C 1468.039062 710.558594 1498.949219 672.960938 1498.949219 672.960938 C 1498.949219 672.960938 1512.070312 717.457031 1498.949219 771.648438 L 1531.359375 788.933594 C 1531.261719 791.78125 1531.179688 794.535156 1531.089844 797.175781 C 1529.570312 842.679688 1544.769531 943.367188 1541.730469 954.007812 "/>
<path fill-rule="nonzero" fill="rgb(93.664551%, 64.81781%, 68.348694%)" fill-opacity="1" d="M 1308.769531 797.183594 C 1288.140625 835.804688 1267.75 873.484375 1256.300781 875.609375 L 1206.488281 870.480469 L 1195.421875 859.738281 L 1223.351562 844.144531 L 1241.570312 755.105469 L 1279.878906 760.984375 L 1308.769531 797.183594 "/>
<path fill-rule="evenodd" fill="rgb(93.664551%, 64.81781%, 68.348694%)" fill-opacity="1" d="M 1221.210938 844.066406 C 1220.621094 844.492188 1189.058594 862.414062 1170.78125 876.855469 C 1150.511719 885.375 1133.5 901.273438 1134.429688 911.34375 C 1142.269531 917.558594 1149.339844 893.601562 1160.199219 894.429688 C 1167.808594 895.011719 1141.890625 925.796875 1151.488281 928.679688 C 1160.148438 931.28125 1167.921875 899.246094 1175.238281 902.5 C 1179.710938 904.488281 1162.558594 934.769531 1166.5 936.703125 C 1177.929688 942.3125 1184.46875 910.976562 1190.488281 912.46875 C 1199.96875 914.8125 1182.410156 935.089844 1186.878906 939.664062 C 1192.96875 943.136719 1199.730469 928.472656 1206.839844 914.28125 C 1213.21875 901.546875 1209.949219 931.851562 1218.96875 928.527344 C 1227.179688 925.503906 1225.96875 906.269531 1225.011719 899.167969 C 1220.96875 876.535156 1244.359375 886.234375 1260.53125 872.640625 C 1271.261719 864.980469 1250.890625 822.554688 1221.210938 844.066406 "/>
<path fill-rule="nonzero" fill="rgb(25.582886%, 24.5224%, 62.004089%)" fill-opacity="1" d="M 1362.988281 960.265625 C 1362.988281 960.265625 1278.558594 962.378906 1280.078125 958.570312 C 1281.601562 954.777344 1296.808594 924.351562 1305.070312 897.304688 C 1313.339844 870.269531 1316.589844 766.894531 1316.589844 766.894531 L 1308.761719 797.175781 C 1308.761719 797.175781 1308.679688 797.160156 1308.511719 797.113281 C 1306.890625 796.695312 1297.859375 794.359375 1286.71875 791.414062 C 1265.929688 785.894531 1237.828125 778.210938 1237.109375 776.785156 C 1235.960938 774.496094 1246.601562 727.347656 1256.488281 694.632812 C 1266.378906 661.917969 1284.640625 618.578125 1380.511719 595.753906 C 1362.300781 658.878906 1362.988281 960.265625 1362.988281 960.265625 "/>
<path fill-rule="nonzero" fill="rgb(97.216797%, 75.201416%, 77.616882%)" fill-opacity="1" d="M 1554.371094 797.175781 C 1554.371094 797.175781 1509.019531 912.882812 1481.519531 916.042969 C 1466.171875 917.808594 1456.128906 872.640625 1461.820312 854.363281 L 1466.640625 833.925781 L 1479.25 780.46875 L 1554.371094 797.175781 "/>
<path fill-rule="evenodd" fill="rgb(97.216797%, 75.201416%, 77.616882%)" fill-opacity="1" d="M 1466.621094 845.492188 C 1490.25 850.234375 1502.890625 863.09375 1502.46875 886.109375 C 1500.828125 904.421875 1488.859375 916.933594 1476.171875 916.746094 C 1449.621094 923.949219 1423.058594 880.980469 1404.890625 890.78125 C 1391.371094 901.113281 1386.140625 926.347656 1374.699219 933.03125 C 1362.640625 931.730469 1384.171875 911.15625 1375.800781 903.65625 C 1369.941406 898.398438 1354.078125 938.050781 1344.371094 932.996094 C 1335.621094 928.433594 1364.609375 899.164062 1356.089844 896.082031 C 1350.878906 894.199219 1330.21875 929.191406 1325.429688 927.664062 C 1311.550781 923.238281 1340.640625 895.394531 1334.898438 891.996094 C 1325.859375 886.636719 1316.210938 914.601562 1308.230469 914.617188 C 1300.320312 912.609375 1311.390625 896.824219 1321.699219 881.113281 C 1330.960938 867.019531 1300.128906 878.933594 1299.769531 869.464844 C 1299.359375 858.832031 1339.761719 854.894531 1358.53125 854.027344 C 1385.570312 840.457031 1413.199219 845.636719 1466.621094 845.492188 "/>
<path fill-rule="nonzero" fill="rgb(25.582886%, 24.5224%, 62.004089%)" fill-opacity="1" d="M 1428.78125 584.53125 C 1428.78125 584.53125 1491.53125 583.960938 1537.738281 617.617188 C 1583.949219 651.277344 1587.289062 699.953125 1554.378906 797.183594 C 1537.300781 793.59375 1479.199219 785.03125 1479.238281 780.46875 C 1479.289062 775.90625 1501.28125 667.820312 1501.28125 667.820312 L 1428.78125 584.53125 "/>
<g clip-path="url(#clip-1)">
<g clip-path="url(#clip-2)">
<g clip-path="url(#clip-3)">
<path fill-rule="nonzero" fill="url(#linear-pattern-0)" d="M 1493.894531 834.476562 L 1462.597656 829.261719 L 1458.503906 853.808594 L 1489.800781 859.027344 Z M 1493.894531 834.476562 "/>
</g>
</g>
</g>
<path fill-rule="nonzero" fill="rgb(19.407654%, 19.685364%, 54.945374%)" fill-opacity="1" d="M 1320.960938 667.246094 C 1320.960938 667.246094 1318.109375 698.632812 1316.589844 766.894531 L 1308.511719 797.113281 C 1306.890625 796.695312 1297.859375 794.359375 1286.71875 791.414062 C 1295.589844 776.867188 1304.699219 756.859375 1305.558594 735.140625 C 1307.269531 691.785156 1320.960938 667.246094 1320.960938 667.246094 "/>
<g clip-path="url(#clip-4)">
<g clip-path="url(#clip-5)">
<g clip-path="url(#clip-6)">
<path fill-rule="nonzero" fill="url(#linear-pattern-1)" d="M 1285.597656 629.078125 L 1520.777344 556.886719 L 1453.519531 337.78125 L 1218.339844 409.972656 Z M 1285.597656 629.078125 "/>
</g>
</g>
</g>
<g clip-path="url(#clip-7)">
<g clip-path="url(#clip-8)">
<g clip-path="url(#clip-9)">
<path fill-rule="nonzero" fill="url(#linear-pattern-2)" d="M 1369.152344 643.800781 L 1462.320312 615.515625 L 1429.839844 508.527344 L 1336.671875 536.808594 Z M 1369.152344 643.800781 "/>
</g>
</g>
</g>
<g clip-path="url(#clip-10)">
<g clip-path="url(#clip-11)">
<g clip-path="url(#clip-12)">
<path fill-rule="nonzero" fill="url(#linear-pattern-3)" d="M 1368.363281 610.46875 L 1443.367188 587.445312 L 1420 511.320312 L 1344.996094 534.34375 Z M 1368.363281 610.46875 "/>
</g>
</g>
</g>
<path fill-rule="nonzero" fill="rgb(93.386841%, 71.458435%, 74.171448%)" fill-opacity="1" d="M 1313.539062 465.019531 C 1383.140625 476.140625 1409.949219 465.019531 1409.949219 465.019531 C 1409.949219 465.019531 1416.941406 503.949219 1421.789062 505.660156 C 1426.640625 507.378906 1423.359375 485.269531 1434.199219 482.558594 C 1445.039062 479.851562 1452.449219 498.820312 1445.179688 509.800781 C 1437.910156 520.78125 1427.78125 516.929688 1427.78125 516.929688 C 1427.78125 516.929688 1427.800781 586.691406 1358.089844 591.753906 C 1320.960938 594.449219 1308.769531 541.261719 1312.96875 506.089844 C 1314.828125 490.5 1312.398438 474.710938 1313.539062 465.019531 "/>
<path fill-rule="evenodd" fill="rgb(56.452942%, 60.002136%, 83.485413%)" fill-opacity="1" d="M 1538.640625 943.175781 C 1574.019531 1049.121094 1485.578125 1103.890625 1399.351562 1099.398438 L 1392.71875 1403.761719 L 1313.128906 1403.761719 L 1308.710938 1096.710938 L 1266.691406 1099.398438 L 1251.21875 1406.460938 L 1176.050781 1409.148438 C 1177.519531 1253.828125 1171.25 1024.429688 1235.738281 970.109375 C 1257.929688 951.15625 1280.109375 940.277344 1302.300781 933.441406 L 1538.640625 943.175781 "/>
<path fill-rule="evenodd" fill="rgb(97.216797%, 75.201416%, 77.616882%)" fill-opacity="1" d="M 1237.949219 1402.949219 L 1242.378906 1491.300781 L 1176.601562 1489.960938 L 1189.308594 1405.441406 L 1237.949219 1402.949219 "/>
<path fill-rule="evenodd" fill="rgb(52.069092%, 19.10553%, 47.453308%)" fill-opacity="1" d="M 1201.75 1482.210938 C 1192.71875 1470.539062 1185.351562 1444.058594 1174.660156 1447.199219 C 1156.429688 1451.910156 1118.019531 1488.28125 1126.578125 1497.699219 L 1244.289062 1496.960938 C 1249.480469 1497.148438 1250.960938 1489.191406 1244.660156 1487.898438 L 1201.75 1482.210938 "/>
<path fill-rule="evenodd" fill="rgb(97.216797%, 75.201416%, 77.616882%)" fill-opacity="1" d="M 1379.460938 1399.320312 L 1375.03125 1489.960938 L 1317.550781 1489.960938 L 1323.078125 1400.53125 L 1379.460938 1399.320312 "/>
<path fill-rule="evenodd" fill="rgb(52.069092%, 19.10553%, 47.453308%)" fill-opacity="1" d="M 1336.070312 1478.839844 C 1327.039062 1467.171875 1319.671875 1440.691406 1308.980469 1443.828125 C 1290.738281 1448.539062 1249 1482.691406 1260.890625 1494.328125 L 1381.941406 1494.328125 C 1387.5 1494.160156 1386.390625 1485.078125 1381.941406 1484.898438 L 1336.070312 1478.839844 "/>
<path fill-rule="evenodd" fill="rgb(72.755432%, 75.491333%, 90.457153%)" fill-opacity="1" d="M 1538.640625 943.175781 C 1574.019531 1049.121094 1485.578125 1103.890625 1399.351562 1099.398438 L 1392.71875 1403.761719 L 1313.128906 1403.761719 L 1308.710938 1096.710938 C 1302.519531 1016.25 1329.488281 953.296875 1366.410156 940.175781 L 1538.640625 943.175781 "/>
<path fill-rule="evenodd" fill="rgb(86.500549%, 67.138672%, 23.554993%)" fill-opacity="1" d="M 1899.75 932.695312 L 508.222656 932.695312 L 508.222656 973.410156 L 1899.75 973.410156 L 1899.75 932.695312 "/>
<path fill-rule="evenodd" fill="rgb(95.454407%, 79.876709%, 45.321655%)" fill-opacity="1" d="M 633.464844 973.410156 L 656.785156 973.410156 L 571.882812 1497.269531 L 548.566406 1497.269531 L 633.464844 973.410156 "/>
<path fill-rule="evenodd" fill="rgb(95.454407%, 79.876709%, 45.321655%)" fill-opacity="1" d="M 741.679688 973.410156 L 765 973.410156 L 680.097656 1497.269531 L 656.78125 1497.269531 L 741.679688 973.410156 "/>
<path fill-rule="evenodd" fill="rgb(95.454407%, 79.876709%, 45.321655%)" fill-opacity="1" d="M 1762.238281 973.410156 L 1738.929688 973.410156 L 1823.820312 1497.269531 L 1847.140625 1497.269531 L 1762.238281 973.410156 "/>
<path fill-rule="evenodd" fill="rgb(95.454407%, 79.876709%, 45.321655%)" fill-opacity="1" d="M 1654.03125 973.410156 L 1630.710938 973.410156 L 1715.609375 1497.269531 L 1738.929688 1497.269531 L 1654.03125 973.410156 "/>
<path fill-rule="evenodd" fill="rgb(14.489746%, 13.612366%, 13.154602%)" fill-opacity="1" d="M 1660.429688 869.910156 L 1660.96875 904.628906 C 1668.199219 904.085938 1674.351562 896.492188 1674.53125 888.355469 C 1674.710938 878.949219 1669.46875 868.460938 1660.429688 869.910156 Z M 1596.410156 848.210938 L 1659.339844 848.210938 L 1659.339844 856.890625 C 1696.601562 861.230469 1691.53125 910.054688 1660.429688 915.480469 L 1660.429688 936.09375 L 1595.871094 936.09375 L 1596.410156 848.210938 "/>
<path fill-rule="evenodd" fill="rgb(52.069092%, 19.10553%, 47.453308%)" fill-opacity="1" d="M 732.171875 878.949219 L 606.820312 878.949219 L 606.820312 933.15625 L 732.171875 933.15625 C 747.992188 933.15625 760.941406 920.960938 760.941406 906.054688 C 760.941406 891.148438 747.992188 878.949219 732.171875 878.949219 "/>
<path fill-rule="evenodd" fill="rgb(84.811401%, 85.502625%, 87.530518%)" fill-opacity="1" d="M 659.832031 884.65625 L 606.820312 884.65625 L 606.820312 928.402344 L 659.832031 928.402344 C 672.601562 928.402344 683.050781 918.558594 683.050781 906.527344 C 683.050781 894.496094 672.601562 884.65625 659.832031 884.65625 "/>
<path fill-rule="evenodd" fill="rgb(58.213806%, 59.851074%, 83.317566%)" fill-opacity="1" d="M 727.710938 847.566406 L 614.277344 847.566406 L 614.277344 878.949219 L 727.710938 878.949219 C 736.871094 878.949219 744.367188 871.886719 744.367188 863.257812 C 744.367188 854.628906 736.871094 847.566406 727.710938 847.566406 "/>
<path fill-rule="evenodd" fill="rgb(84.811401%, 85.502625%, 87.530518%)" fill-opacity="1" d="M 657.175781 851.371094 L 614.277344 851.371094 L 614.277344 875.144531 L 657.175781 875.144531 C 664.113281 875.144531 669.792969 869.796875 669.792969 863.257812 C 669.792969 856.71875 664.113281 851.371094 657.175781 851.371094 "/>
<path fill-rule="evenodd" fill="rgb(95.040894%, 35.031128%, 29.612732%)" fill-opacity="1" d="M 715.152344 811.429688 L 595.632812 811.429688 L 595.632812 848.523438 L 715.152344 848.523438 C 725.980469 848.523438 734.839844 840.175781 734.839844 829.976562 C 734.839844 819.777344 725.980469 811.429688 715.152344 811.429688 "/>
<path fill-rule="evenodd" fill="rgb(84.811401%, 85.502625%, 87.530518%)" fill-opacity="1" d="M 646.277344 815.234375 L 595.632812 815.234375 L 595.632812 844.71875 L 646.277344 844.71875 C 654.882812 844.71875 661.921875 838.082031 661.921875 829.976562 C 661.921875 821.871094 654.882812 815.234375 646.277344 815.234375 "/>
<path fill-rule="evenodd" fill="rgb(80.282593%, 79.855347%, 79.107666%)" fill-opacity="1" d="M 1147.839844 915.703125 L 1448.351562 915.703125 L 1448.351562 934.394531 L 1147.839844 934.394531 L 1147.839844 915.703125 "/>
<path fill-rule="evenodd" fill="rgb(80.282593%, 79.855347%, 79.107666%)" fill-opacity="1" d="M 1056.578125 874.773438 L 1213.488281 879.742188 L 1219.601562 557.019531 L 822.234375 559.5 L 820.199219 867.328125 L 942.464844 869.8125 L 943.992188 931.875 L 1107.519531 931.875 L 1107.519531 909.53125 L 1054.539062 907.050781 L 1056.578125 874.773438 "/>
<path fill-rule="evenodd" fill="rgb(69.091797%, 68.959045%, 68.411255%)" fill-opacity="1" d="M 1057.089844 871.671875 L 1042.308594 753.132812 L 962.839844 743.203125 L 932.78125 867.328125 L 948.578125 867.328125 L 970.992188 763.066406 L 1036.199219 768.027344 L 1044.351562 872.292969 L 1057.089844 871.671875 "/>
<path fill-rule="evenodd" fill="rgb(69.091797%, 68.959045%, 68.411255%)" fill-opacity="1" d="M 1189.03125 830.09375 L 1146.238281 830.09375 L 1146.238281 849.949219 L 1189.03125 849.949219 L 1189.03125 830.09375 "/>
<path fill-rule="evenodd" fill="rgb(69.091797%, 68.959045%, 68.411255%)" fill-opacity="1" d="M 1170.691406 579.359375 L 842.613281 579.359375 L 842.613281 591.773438 L 1170.691406 591.773438 L 1170.691406 579.359375 "/>
</svg>
