<svg version="1.1" id="Layer_1" xmlns="http://www.w3.org/2000/svg" xmlns:xlink="http://www.w3.org/1999/xlink" x="0px" y="0px"
	 width="100%" viewBox="0 0 960 1024" enable-background="new 0 0 960 1024" xml:space="preserve">
<path fill="#000000" opacity="1.000000" stroke="none" 
	d="
M628.803345,109.117081 
	C674.314087,130.526688 721.562256,145.196762 770.768616,153.417358 
	C804.504578,159.053421 838.527161,161.458984 872.733337,160.564484 
	C883.875916,160.273117 895.012390,159.442612 906.126221,158.543854 
	C909.651245,158.258774 911.029419,159.522980 912.263611,162.647476 
	C921.557739,186.176392 926.382751,210.802490 930.296021,235.631317 
	C938.119324,285.269318 940.446472,335.287781 939.224243,385.440460 
	C936.662109,490.572052 916.081970,591.552856 868.373108,686.079895 
	C844.897522,732.592712 815.805420,775.270874 780.940796,814.026917 
	C710.926880,891.855591 626.360901,948.191162 528.618469,985.074402 
	C517.565491,989.245300 506.290649,992.809937 494.862610,995.872498 
	C491.694031,996.721680 488.748596,996.748352 485.580292,995.865417 
	C445.909821,984.809326 408.378693,968.515381 372.199158,949.081604 
	C312.441284,916.982666 258.807892,876.699768 212.049591,827.468872 
	C167.033676,780.072449 130.810013,726.687805 103.284424,667.355164 
	C81.662666,620.748413 66.261703,572.154602 56.124557,521.871338 
	C50.734066,495.132935 46.952507,468.146545 44.533043,440.945709 
	C41.948132,411.884735 40.534569,382.781891 41.063938,353.640747 
	C42.092873,296.999237 46.085304,240.652313 60.630451,185.559250 
	C62.758984,177.496948 65.651215,169.701599 68.549683,161.897308 
	C69.525322,159.270340 70.945564,158.411911 73.748085,158.541275 
	C88.714111,159.232178 103.640747,160.676651 118.643860,160.682968 
	C205.400421,160.719528 287.636932,141.525772 365.143921,102.514221 
	C409.353455,80.262245 449.378937,52.005531 484.968506,17.542744 
	C490.132446,12.542290 490.229675,12.496322 495.219543,17.297794 
	C534.592834,55.184559 579.070862,85.639168 628.803345,109.117081 
M639.637817,885.103638 
	C659.377319,872.011047 678.263245,857.794678 696.302490,842.434448 
	C781.209656,770.136841 839.178101,680.248718 871.629333,573.757141 
	C882.750977,537.260559 890.272949,499.993469 894.914124,462.104065 
	C897.992004,436.976715 900.027466,411.779144 900.569885,386.503601 
	C901.413452,347.190704 900.273254,307.929626 895.769592,268.805695 
	C893.256409,246.973099 889.834900,225.324966 884.801086,203.925034 
	C883.904175,200.112167 882.104248,198.881088 878.222107,199.011703 
	C852.888855,199.863998 827.618958,198.966324 802.374451,196.466583 
	C761.650635,192.434052 721.777832,184.341721 682.832275,171.865356 
	C613.671875,149.709518 550.659546,116.188660 495.084930,69.179665 
	C491.491882,66.140404 489.283447,65.874832 485.568390,69.089195 
	C463.336731,88.324684 439.365997,105.214035 413.981781,119.998512 
	C318.186005,175.792618 214.716446,201.787125 103.992691,199.033401 
	C98.489960,198.896545 96.493011,200.603958 95.292038,205.776581 
	C86.149536,245.153580 82.014961,285.184113 80.546021,325.435272 
	C79.319420,359.045929 79.450035,392.700592 82.115707,426.315674 
	C84.220833,452.862000 87.452003,479.222595 92.311378,505.388855 
	C101.468369,554.696411 115.970917,602.364807 136.817795,648.007446 
	C164.152695,707.855164 200.868759,761.305176 247.122162,808.134705 
	C280.417084,841.844177 317.299377,871.078796 357.657715,895.893311 
	C397.544556,920.417847 439.440521,940.675720 484.084625,955.068604 
	C488.028381,956.340027 491.624207,956.586792 495.693268,955.279907 
	C546.814270,938.860535 594.253662,914.917419 639.637817,885.103638 
z"/>
<path fill="#000000" opacity="1.000000" stroke="none" 
	d="
M441.581665,571.713379 
	C442.284302,566.757507 439.082855,567.058350 436.220673,567.054565 
	C414.892303,567.026123 393.563934,567.024719 372.235565,567.010132 
	C367.070129,567.006592 361.904388,567.012817 356.739410,566.957214 
	C354.950073,566.937927 353.057770,567.306213 350.508820,565.252319 
	C430.643188,456.547821 510.785492,347.832550 590.927795,239.117249 
	C591.493103,239.317917 592.058411,239.518585 592.623718,239.719238 
	C575.888000,316.276978 559.152283,392.834686 542.211914,470.328613 
	C572.956299,470.328613 603.127563,470.328613 633.298828,470.328613 
	C633.638306,470.865265 633.977722,471.401917 634.317139,471.938568 
	C554.065674,580.809692 473.814209,689.680786 393.562744,798.551880 
	C393.078247,798.302612 392.593750,798.053345 392.109283,797.804138 
	C393.968170,789.293274 395.826233,780.782288 397.686157,772.271667 
	C409.678040,717.399536 421.664124,662.526184 433.667419,607.656555 
	C436.259888,595.805786 438.914734,583.968628 441.581665,571.713379 
z"/>
</svg>